<ttFont>
    <TTGlyph name=".notdef" xMin="65" yMin="0" xMax="457" yMax="700">
      <contour>
        <pt x="65" y="700" on="1"/>
        <pt x="457" y="700" on="1"/>
        <pt x="457" y="0" on="1"/>
        <pt x="65" y="0" on="1"/>
      </contour>
      <contour>
        <pt x="342" y="102" on="1"/>
        <pt x="342" y="598" on="1"/>
        <pt x="180" y="598" on="1"/>
        <pt x="180" y="102" on="1"/>
      </contour>
    </TTGlyph>
    <TTGlyph name="A" xMin="15" yMin="0" xMax="530" yMax="700">
      <contour>
        <pt x="273" y="612" on="1"/>
        <pt x="213" y="281" on="1"/>
        <pt x="335" y="281" on="1"/>
      </contour>
      <contour>
        <pt x="389" y="0" on="1"/>
        <pt x="357" y="163" on="1"/>
        <pt x="190" y="163" on="1"/>
        <pt x="158" y="0" on="1"/>
        <pt x="15" y="0" on="1"/>
        <pt x="175" y="700" on="1"/>
        <pt x="377" y="700" on="1"/>
        <pt x="530" y="0" on="1"/>
      </contour>
    </TTGlyph>
    <TTGlyph name="AE" xMin="15" yMin="0" xMax="731" yMax="700">
      <contour>
        <pt x="383" y="0" on="1"/>
        <pt x="364" y="163" on="1"/>
        <pt x="200" y="163" on="1"/>
        <pt x="154" y="0" on="1"/>
        <pt x="15" y="0" on="1"/>
        <pt x="225" y="700" on="1"/>
        <pt x="711" y="700" on="1"/>
        <pt x="711" y="592" on="1"/>
        <pt x="444" y="592" on="1"/>
        <pt x="470" y="415" on="1"/>
        <pt x="703" y="415" on="1"/>
        <pt x="703" y="308" on="1"/>
        <pt x="486" y="308" on="1"/>
        <pt x="516" y="108" on="1"/>
        <pt x="731" y="108" on="1"/>
        <pt x="731" y="0" on="1"/>
      </contour>
      <contour>
        <pt x="232" y="281" on="1"/>
        <pt x="350" y="281" on="1"/>
        <pt x="315" y="580" on="1"/>
      </contour>
    </TTGlyph>
    <TTGlyph name="Aacute" xMin="15" yMin="0" xMax="530" yMax="841">
      <contour>
        <pt x="164" y="726" on="1"/>
        <pt x="268" y="841" on="1"/>
        <pt x="429" y="841" on="1"/>
        <pt x="277" y="726" on="1"/>
      </contour>
      <contour>
        <pt x="273" y="612" on="1"/>
        <pt x="213" y="281" on="1"/>
        <pt x="335" y="281" on="1"/>
      </contour>
      <contour>
        <pt x="389" y="0" on="1"/>
        <pt x="357" y="163" on="1"/>
        <pt x="190" y="163" on="1"/>
        <pt x="158" y="0" on="1"/>
        <pt x="15" y="0" on="1"/>
        <pt x="175" y="700" on="1"/>
        <pt x="377" y="700" on="1"/>
        <pt x="530" y="0" on="1"/>
      </contour>
    </TTGlyph>
    <TTGlyph name="Acircumflex" xMin="15" yMin="0" xMax="530" yMax="845">
      <contour>
        <pt x="319" y="730" on="1"/>
        <pt x="279" y="791" on="1"/>
        <pt x="239" y="730" on="1"/>
        <pt x="93" y="730" on="1"/>
        <pt x="203" y="845" on="1"/>
        <pt x="355" y="845" on="1"/>
        <pt x="466" y="730" on="1"/>
      </contour>
      <contour>
        <pt x="273" y="612" on="1"/>
        <pt x="213" y="281" on="1"/>
        <pt x="335" y="281" on="1"/>
      </contour>
      <contour>
        <pt x="389" y="0" on="1"/>
        <pt x="357" y="163" on="1"/>
        <pt x="190" y="163" on="1"/>
        <pt x="158" y="0" on="1"/>
        <pt x="15" y="0" on="1"/>
        <pt x="175" y="700" on="1"/>
        <pt x="377" y="700" on="1"/>
        <pt x="530" y="0" on="1"/>
      </contour>
    </TTGlyph>
    <TTGlyph name="Adieresis" xMin="15" yMin="0" xMax="530" yMax="845">
      <contour>
        <pt x="273" y="612" on="1"/>
        <pt x="213" y="281" on="1"/>
        <pt x="335" y="281" on="1"/>
      </contour>
      <contour>
        <pt x="389" y="0" on="1"/>
        <pt x="357" y="163" on="1"/>
        <pt x="190" y="163" on="1"/>
        <pt x="158" y="0" on="1"/>
        <pt x="15" y="0" on="1"/>
        <pt x="175" y="700" on="1"/>
        <pt x="377" y="700" on="1"/>
        <pt x="530" y="0" on="1"/>
      </contour>
      <contour>
        <pt x="311" y="730" on="1"/>
        <pt x="311" y="845" on="1"/>
        <pt x="441" y="845" on="1"/>
        <pt x="441" y="730" on="1"/>
      </contour>
      <contour>
        <pt x="111" y="730" on="1"/>
        <pt x="111" y="845" on="1"/>
        <pt x="241" y="845" on="1"/>
        <pt x="241" y="730" on="1"/>
      </contour>
    </TTGlyph>
    <TTGlyph name="Agrave" xMin="15" yMin="0" xMax="530" yMax="841">
      <contour>
        <pt x="247" y="726" on="1"/>
        <pt x="95" y="841" on="1"/>
        <pt x="256" y="841" on="1"/>
        <pt x="360" y="726" on="1"/>
      </contour>
      <contour>
        <pt x="273" y="612" on="1"/>
        <pt x="213" y="281" on="1"/>
        <pt x="335" y="281" on="1"/>
      </contour>
      <contour>
        <pt x="389" y="0" on="1"/>
        <pt x="357" y="163" on="1"/>
        <pt x="190" y="163" on="1"/>
        <pt x="158" y="0" on="1"/>
        <pt x="15" y="0" on="1"/>
        <pt x="175" y="700" on="1"/>
        <pt x="377" y="700" on="1"/>
        <pt x="530" y="0" on="1"/>
      </contour>
    </TTGlyph>
    <TTGlyph name="Aring" xMin="15" yMin="0" xMax="530" yMax="885">
      <contour>
        <pt x="392" y="763" on="1"/>
        <pt x="392" y="722" on="0"/>
        <pt x="378" y="694" on="1"/>
        <pt x="530" y="0" on="1"/>
        <pt x="389" y="0" on="1"/>
        <pt x="357" y="163" on="1"/>
        <pt x="190" y="163" on="1"/>
        <pt x="158" y="0" on="1"/>
        <pt x="15" y="0" on="1"/>
        <pt x="173" y="694" on="1"/>
        <pt x="160" y="720" on="0"/>
        <pt x="160" y="763" on="1"/>
        <pt x="160" y="821" on="0"/>
        <pt x="216" y="885" on="0"/>
        <pt x="276" y="885" on="1"/>
        <pt x="336" y="885" on="0"/>
        <pt x="392" y="821" on="0"/>
      </contour>
      <contour>
        <pt x="273" y="612" on="1"/>
        <pt x="213" y="281" on="1"/>
        <pt x="335" y="281" on="1"/>
      </contour>
      <contour>
        <pt x="304" y="764" on="1"/>
        <pt x="304" y="789" on="0"/>
        <pt x="294" y="813" on="0"/>
        <pt x="276" y="813" on="1"/>
        <pt x="258" y="813" on="0"/>
        <pt x="248" y="789" on="0"/>
        <pt x="248" y="764" on="1"/>
        <pt x="248" y="739" on="0"/>
        <pt x="258" y="715" on="0"/>
        <pt x="276" y="715" on="1"/>
        <pt x="293" y="715" on="0"/>
        <pt x="304" y="739" on="0"/>
      </contour>
    </TTGlyph>
    <TTGlyph name="Atilde" xMin="15" yMin="0" xMax="530" yMax="860">
      <contour>
        <pt x="273" y="612" on="1"/>
        <pt x="213" y="281" on="1"/>
        <pt x="335" y="281" on="1"/>
      </contour>
      <contour>
        <pt x="389" y="0" on="1"/>
        <pt x="357" y="163" on="1"/>
        <pt x="190" y="163" on="1"/>
        <pt x="158" y="0" on="1"/>
        <pt x="15" y="0" on="1"/>
        <pt x="175" y="700" on="1"/>
        <pt x="377" y="700" on="1"/>
        <pt x="530" y="0" on="1"/>
      </contour>
      <contour>
        <pt x="116" y="827" on="1"/>
        <pt x="139" y="846" on="0"/>
        <pt x="192" y="860" on="0"/>
        <pt x="212" y="860" on="1"/>
        <pt x="230" y="860" on="0"/>
        <pt x="268" y="848" on="0"/>
        <pt x="306" y="833" on="0"/>
        <pt x="341" y="821" on="0"/>
        <pt x="356" y="821" on="1"/>
        <pt x="382" y="821" on="0"/>
        <pt x="426" y="840" on="0"/>
        <pt x="446" y="857" on="1"/>
        <pt x="446" y="753" on="1"/>
        <pt x="426" y="734" on="0"/>
        <pt x="376" y="720" on="0"/>
        <pt x="350" y="720" on="1"/>
        <pt x="331" y="720" on="0"/>
        <pt x="294" y="732" on="0"/>
        <pt x="257" y="747" on="0"/>
        <pt x="222" y="759" on="0"/>
        <pt x="206" y="759" on="1"/>
        <pt x="180" y="759" on="0"/>
        <pt x="132" y="737" on="0"/>
        <pt x="116" y="723" on="1"/>
      </contour>
    </TTGlyph>
    <TTGlyph name="B" xMin="70" yMin="-9" xMax="492" yMax="709">
      <contour>
        <pt x="353" y="214" on="1"/>
        <pt x="353" y="243" on="0"/>
        <pt x="339" y="280" on="0"/>
        <pt x="315" y="303" on="0"/>
        <pt x="284" y="312" on="0"/>
        <pt x="267" y="312" on="1"/>
        <pt x="207" y="312" on="1"/>
        <pt x="207" y="114" on="1"/>
        <pt x="218" y="114" on="0"/>
        <pt x="229" y="113" on="1"/>
        <pt x="239" y="112" on="0"/>
        <pt x="265" y="111" on="0"/>
        <pt x="279" y="111" on="1"/>
        <pt x="321" y="111" on="0"/>
        <pt x="353" y="166" on="0"/>
      </contour>
      <contour>
        <pt x="338" y="510" on="1"/>
        <pt x="338" y="548" on="0"/>
        <pt x="304" y="590" on="0"/>
        <pt x="274" y="590" on="1"/>
        <pt x="262" y="590" on="0"/>
        <pt x="238" y="589" on="0"/>
        <pt x="228" y="588" on="1"/>
        <pt x="217" y="587" on="0"/>
        <pt x="207" y="586" on="1"/>
        <pt x="207" y="424" on="1"/>
        <pt x="260" y="424" on="1"/>
        <pt x="302" y="424" on="0"/>
        <pt x="338" y="464" on="0"/>
      </contour>
      <contour>
        <pt x="492" y="215" on="1"/>
        <pt x="492" y="145" on="0"/>
        <pt x="458" y="58" on="0"/>
        <pt x="398" y="9" on="0"/>
        <pt x="316" y="-9" on="0"/>
        <pt x="268" y="-9" on="1"/>
        <pt x="236" y="-9" on="0"/>
        <pt x="167" y="-7" on="0"/>
        <pt x="138" y="-5" on="1"/>
        <pt x="104" y="-3" on="0"/>
        <pt x="70" y="0" on="1"/>
        <pt x="70" y="700" on="1"/>
        <pt x="103" y="703" on="0"/>
        <pt x="136" y="705" on="1"/>
        <pt x="164" y="707" on="0"/>
        <pt x="227" y="709" on="0"/>
        <pt x="252" y="709" on="1"/>
        <pt x="313" y="709" on="0"/>
        <pt x="397" y="687" on="0"/>
        <pt x="450" y="641" on="0"/>
        <pt x="473" y="569" on="0"/>
        <pt x="473" y="519" on="1"/>
        <pt x="473" y="483" on="0"/>
        <pt x="457" y="433" on="0"/>
        <pt x="432" y="400" on="0"/>
        <pt x="400" y="382" on="0"/>
        <pt x="384" y="377" on="1"/>
        <pt x="404" y="375" on="0"/>
        <pt x="443" y="354" on="0"/>
        <pt x="473" y="315" on="0"/>
        <pt x="492" y="256" on="0"/>
      </contour>
    </TTGlyph>
    <TTGlyph name="C" xMin="50" yMin="-7" xMax="393" yMax="707">
      <contour>
        <pt x="393" y="8" on="1"/>
        <pt x="385" y="6" on="0"/>
        <pt x="354" y="1" on="0"/>
        <pt x="319" y="-4" on="0"/>
        <pt x="284" y="-7" on="0"/>
        <pt x="272" y="-7" on="1"/>
        <pt x="215" y="-7" on="0"/>
        <pt x="131" y="23" on="0"/>
        <pt x="76" y="104" on="0"/>
        <pt x="50" y="247" on="0"/>
        <pt x="50" y="361" on="1"/>
        <pt x="50" y="475" on="0"/>
        <pt x="80" y="612" on="0"/>
        <pt x="140" y="684" on="0"/>
        <pt x="228" y="707" on="0"/>
        <pt x="285" y="707" on="1"/>
        <pt x="295" y="707" on="0"/>
        <pt x="327" y="704" on="0"/>
        <pt x="360" y="700" on="0"/>
        <pt x="387" y="695" on="0"/>
        <pt x="393" y="693" on="1"/>
        <pt x="393" y="572" on="1"/>
        <pt x="368" y="578" on="0"/>
        <pt x="299" y="587" on="0"/>
        <pt x="272" y="587" on="1"/>
        <pt x="250" y="587" on="0"/>
        <pt x="219" y="572" on="0"/>
        <pt x="199" y="524" on="0"/>
        <pt x="189" y="432" on="0"/>
        <pt x="189" y="354" on="1"/>
        <pt x="189" y="276" on="0"/>
        <pt x="198" y="182" on="0"/>
        <pt x="217" y="130" on="0"/>
        <pt x="249" y="113" on="0"/>
        <pt x="272" y="113" on="1"/>
        <pt x="303" y="113" on="0"/>
        <pt x="374" y="123" on="0"/>
        <pt x="393" y="128" on="1"/>
      </contour>
    </TTGlyph>
    <TTGlyph name="Ccedilla" xMin="50" yMin="-222" xMax="393" yMax="707">
      <contour>
        <pt x="181" y="-127" on="1"/>
        <pt x="195" y="-129" on="0"/>
        <pt x="224" y="-132" on="0"/>
        <pt x="235" y="-132" on="1"/>
        <pt x="258" y="-132" on="0"/>
        <pt x="275" y="-123" on="0"/>
        <pt x="275" y="-109" on="1"/>
        <pt x="275" y="-96" on="0"/>
        <pt x="241" y="-86" on="0"/>
        <pt x="192" y="-86" on="1"/>
        <pt x="205" y="-1" on="1"/>
        <pt x="165" y="7" on="0"/>
        <pt x="107" y="50" on="0"/>
        <pt x="69" y="134" on="0"/>
        <pt x="50" y="265" on="0"/>
        <pt x="50" y="361" on="1"/>
        <pt x="50" y="475" on="0"/>
        <pt x="80" y="612" on="0"/>
        <pt x="140" y="684" on="0"/>
        <pt x="228" y="707" on="0"/>
        <pt x="285" y="707" on="1"/>
        <pt x="295" y="707" on="0"/>
        <pt x="327" y="704" on="0"/>
        <pt x="360" y="700" on="0"/>
        <pt x="387" y="695" on="0"/>
        <pt x="393" y="693" on="1"/>
        <pt x="393" y="572" on="1"/>
        <pt x="368" y="578" on="0"/>
        <pt x="299" y="587" on="0"/>
        <pt x="272" y="587" on="1"/>
        <pt x="250" y="587" on="0"/>
        <pt x="219" y="572" on="0"/>
        <pt x="199" y="524" on="0"/>
        <pt x="189" y="432" on="0"/>
        <pt x="189" y="354" on="1"/>
        <pt x="189" y="276" on="0"/>
        <pt x="198" y="182" on="0"/>
        <pt x="217" y="130" on="0"/>
        <pt x="249" y="113" on="0"/>
        <pt x="272" y="113" on="1"/>
        <pt x="303" y="113" on="0"/>
        <pt x="374" y="123" on="0"/>
        <pt x="393" y="128" on="1"/>
        <pt x="393" y="8" on="1"/>
        <pt x="380" y="4" on="0"/>
        <pt x="326" y="-3" on="0"/>
        <pt x="301" y="-5" on="1"/>
        <pt x="299" y="-19" on="1"/>
        <pt x="344" y="-24" on="0"/>
        <pt x="385" y="-76" on="0"/>
        <pt x="385" y="-113" on="1"/>
        <pt x="385" y="-137" on="0"/>
        <pt x="372" y="-177" on="0"/>
        <pt x="342" y="-206" on="0"/>
        <pt x="293" y="-222" on="0"/>
        <pt x="257" y="-222" on="1"/>
        <pt x="240" y="-222" on="0"/>
        <pt x="195" y="-217" on="0"/>
        <pt x="181" y="-214" on="1"/>
      </contour>
    </TTGlyph>
    <TTGlyph name="D" xMin="70" yMin="-10" xMax="496" yMax="710">
      <contour>
        <pt x="357" y="354" on="1"/>
        <pt x="357" y="435" on="0"/>
        <pt x="346" y="528" on="0"/>
        <pt x="325" y="576" on="0"/>
        <pt x="292" y="589" on="0"/>
        <pt x="269" y="589" on="1"/>
        <pt x="255" y="589" on="0"/>
        <pt x="232" y="588" on="0"/>
        <pt x="224" y="587" on="1"/>
        <pt x="214" y="586" on="0"/>
        <pt x="207" y="585" on="1"/>
        <pt x="207" y="115" on="1"/>
        <pt x="213" y="114" on="0"/>
        <pt x="222" y="113" on="1"/>
        <pt x="230" y="112" on="0"/>
        <pt x="252" y="111" on="0"/>
        <pt x="268" y="111" on="1"/>
        <pt x="291" y="111" on="0"/>
        <pt x="325" y="133" on="0"/>
        <pt x="347" y="188" on="0"/>
        <pt x="357" y="282" on="0"/>
      </contour>
      <contour>
        <pt x="496" y="361" on="1"/>
        <pt x="496" y="249" on="0"/>
        <pt x="466" y="105" on="0"/>
        <pt x="406" y="22" on="0"/>
        <pt x="317" y="-10" on="0"/>
        <pt x="259" y="-10" on="1"/>
        <pt x="233" y="-10" on="0"/>
        <pt x="167" y="-7" on="0"/>
        <pt x="138" y="-5" on="1"/>
        <pt x="105" y="-2" on="0"/>
        <pt x="70" y="0" on="1"/>
        <pt x="70" y="700" on="1"/>
        <pt x="105" y="702" on="0"/>
        <pt x="138" y="705" on="1"/>
        <pt x="166" y="707" on="0"/>
        <pt x="226" y="710" on="0"/>
        <pt x="247" y="710" on="1"/>
        <pt x="307" y="710" on="0"/>
        <pt x="400" y="684" on="0"/>
        <pt x="463" y="608" on="0"/>
        <pt x="496" y="472" on="0"/>
      </contour>
    </TTGlyph>
    <TTGlyph name="Delta" xMin="15" yMin="0" xMax="525" yMax="700">
      <contour>
        <pt x="15" y="0" on="1"/>
        <pt x="176" y="700" on="1"/>
        <pt x="371" y="700" on="1"/>
        <pt x="525" y="0" on="1"/>
      </contour>
      <contour>
        <pt x="273" y="594" on="1"/>
        <pt x="176" y="113" on="1"/>
        <pt x="364" y="113" on="1"/>
      </contour>
    </TTGlyph>
    <TTGlyph name="E" xMin="70" yMin="0" xMax="428" yMax="700">
      <contour>
        <pt x="70" y="0" on="1"/>
        <pt x="70" y="700" on="1"/>
        <pt x="428" y="700" on="1"/>
        <pt x="428" y="592" on="1"/>
        <pt x="207" y="592" on="1"/>
        <pt x="207" y="415" on="1"/>
        <pt x="403" y="415" on="1"/>
        <pt x="403" y="308" on="1"/>
        <pt x="207" y="308" on="1"/>
        <pt x="207" y="108" on="1"/>
        <pt x="428" y="108" on="1"/>
        <pt x="428" y="0" on="1"/>
      </contour>
    </TTGlyph>
    <TTGlyph name="Eacute" xMin="70" yMin="0" xMax="428" yMax="841">
      <contour>
        <pt x="149" y="726" on="1"/>
        <pt x="253" y="841" on="1"/>
        <pt x="414" y="841" on="1"/>
        <pt x="262" y="726" on="1"/>
      </contour>
      <contour>
        <pt x="70" y="0" on="1"/>
        <pt x="70" y="700" on="1"/>
        <pt x="428" y="700" on="1"/>
        <pt x="428" y="592" on="1"/>
        <pt x="207" y="592" on="1"/>
        <pt x="207" y="415" on="1"/>
        <pt x="403" y="415" on="1"/>
        <pt x="403" y="308" on="1"/>
        <pt x="207" y="308" on="1"/>
        <pt x="207" y="108" on="1"/>
        <pt x="428" y="108" on="1"/>
        <pt x="428" y="0" on="1"/>
      </contour>
    </TTGlyph>
    <TTGlyph name="Ecircumflex" xMin="63" yMin="0" xMax="436" yMax="845">
      <contour>
        <pt x="289" y="730" on="1"/>
        <pt x="249" y="791" on="1"/>
        <pt x="209" y="730" on="1"/>
        <pt x="63" y="730" on="1"/>
        <pt x="173" y="845" on="1"/>
        <pt x="325" y="845" on="1"/>
        <pt x="436" y="730" on="1"/>
      </contour>
      <contour>
        <pt x="70" y="0" on="1"/>
        <pt x="70" y="700" on="1"/>
        <pt x="428" y="700" on="1"/>
        <pt x="428" y="592" on="1"/>
        <pt x="207" y="592" on="1"/>
        <pt x="207" y="415" on="1"/>
        <pt x="403" y="415" on="1"/>
        <pt x="403" y="308" on="1"/>
        <pt x="207" y="308" on="1"/>
        <pt x="207" y="108" on="1"/>
        <pt x="428" y="108" on="1"/>
        <pt x="428" y="0" on="1"/>
      </contour>
    </TTGlyph>
    <TTGlyph name="Edieresis" xMin="70" yMin="0" xMax="428" yMax="835">
      <contour>
        <pt x="70" y="0" on="1"/>
        <pt x="70" y="700" on="1"/>
        <pt x="428" y="700" on="1"/>
        <pt x="428" y="592" on="1"/>
        <pt x="207" y="592" on="1"/>
        <pt x="207" y="415" on="1"/>
        <pt x="403" y="415" on="1"/>
        <pt x="403" y="308" on="1"/>
        <pt x="207" y="308" on="1"/>
        <pt x="207" y="108" on="1"/>
        <pt x="428" y="108" on="1"/>
        <pt x="428" y="0" on="1"/>
      </contour>
      <contour>
        <pt x="285" y="720" on="1"/>
        <pt x="285" y="835" on="1"/>
        <pt x="415" y="835" on="1"/>
        <pt x="415" y="720" on="1"/>
      </contour>
      <contour>
        <pt x="85" y="720" on="1"/>
        <pt x="85" y="835" on="1"/>
        <pt x="215" y="835" on="1"/>
        <pt x="215" y="720" on="1"/>
      </contour>
    </TTGlyph>
    <TTGlyph name="Egrave" xMin="70" yMin="0" xMax="428" yMax="841">
      <contour>
        <pt x="249" y="726" on="1"/>
        <pt x="97" y="841" on="1"/>
        <pt x="258" y="841" on="1"/>
        <pt x="362" y="726" on="1"/>
      </contour>
      <contour>
        <pt x="70" y="0" on="1"/>
        <pt x="70" y="700" on="1"/>
        <pt x="428" y="700" on="1"/>
        <pt x="428" y="592" on="1"/>
        <pt x="207" y="592" on="1"/>
        <pt x="207" y="415" on="1"/>
        <pt x="403" y="415" on="1"/>
        <pt x="403" y="308" on="1"/>
        <pt x="207" y="308" on="1"/>
        <pt x="207" y="108" on="1"/>
        <pt x="428" y="108" on="1"/>
        <pt x="428" y="0" on="1"/>
      </contour>
    </TTGlyph>
    <TTGlyph name="Eth" xMin="30" yMin="-10" xMax="511" yMax="710">
      <contour>
        <pt x="511" y="361" on="1"/>
        <pt x="511" y="249" on="0"/>
        <pt x="481" y="105" on="0"/>
        <pt x="421" y="22" on="0"/>
        <pt x="332" y="-10" on="0"/>
        <pt x="274" y="-10" on="1"/>
        <pt x="248" y="-10" on="0"/>
        <pt x="182" y="-7" on="0"/>
        <pt x="153" y="-5" on="1"/>
        <pt x="120" y="-2" on="0"/>
        <pt x="85" y="0" on="1"/>
        <pt x="85" y="325" on="1"/>
        <pt x="30" y="325" on="1"/>
        <pt x="30" y="440" on="1"/>
        <pt x="85" y="440" on="1"/>
        <pt x="85" y="700" on="1"/>
        <pt x="120" y="702" on="0"/>
        <pt x="153" y="705" on="1"/>
        <pt x="181" y="707" on="0"/>
        <pt x="241" y="710" on="0"/>
        <pt x="262" y="710" on="1"/>
        <pt x="322" y="710" on="0"/>
        <pt x="415" y="684" on="0"/>
        <pt x="478" y="608" on="0"/>
        <pt x="511" y="472" on="0"/>
      </contour>
      <contour>
        <pt x="372" y="354" on="1"/>
        <pt x="372" y="435" on="0"/>
        <pt x="361" y="528" on="0"/>
        <pt x="340" y="576" on="0"/>
        <pt x="307" y="589" on="0"/>
        <pt x="284" y="589" on="1"/>
        <pt x="270" y="589" on="0"/>
        <pt x="247" y="588" on="0"/>
        <pt x="239" y="587" on="1"/>
        <pt x="229" y="586" on="0"/>
        <pt x="222" y="585" on="1"/>
        <pt x="222" y="440" on="1"/>
        <pt x="305" y="440" on="1"/>
        <pt x="305" y="325" on="1"/>
        <pt x="222" y="325" on="1"/>
        <pt x="222" y="115" on="1"/>
        <pt x="228" y="114" on="0"/>
        <pt x="237" y="113" on="1"/>
        <pt x="245" y="112" on="0"/>
        <pt x="267" y="111" on="0"/>
        <pt x="283" y="111" on="1"/>
        <pt x="306" y="111" on="0"/>
        <pt x="340" y="133" on="0"/>
        <pt x="362" y="188" on="0"/>
        <pt x="372" y="282" on="0"/>
      </contour>
    </TTGlyph>
    <TTGlyph name="Euro" xMin="25" yMin="-9" xMax="427" yMax="709">
      <contour>
        <pt x="427" y="6" on="1"/>
        <pt x="419" y="4" on="0"/>
        <pt x="391" y="-2" on="0"/>
        <pt x="359" y="-6" on="0"/>
        <pt x="326" y="-9" on="0"/>
        <pt x="314" y="-9" on="1"/>
        <pt x="266" y="-9" on="0"/>
        <pt x="192" y="11" on="0"/>
        <pt x="141" y="65" on="0"/>
        <pt x="109" y="159" on="0"/>
        <pt x="103" y="232" on="1"/>
        <pt x="25" y="232" on="1"/>
        <pt x="45" y="325" on="1"/>
        <pt x="98" y="325" on="1"/>
        <pt x="98" y="392" on="1"/>
        <pt x="25" y="392" on="1"/>
        <pt x="45" y="485" on="1"/>
        <pt x="103" y="485" on="1"/>
        <pt x="110" y="557" on="0"/>
        <pt x="142" y="645" on="0"/>
        <pt x="195" y="693" on="0"/>
        <pt x="269" y="709" on="0"/>
        <pt x="317" y="709" on="1"/>
        <pt x="327" y="709" on="0"/>
        <pt x="360" y="706" on="0"/>
        <pt x="393" y="702" on="0"/>
        <pt x="421" y="697" on="0"/>
        <pt x="427" y="695" on="1"/>
        <pt x="403" y="579" on="1"/>
        <pt x="380" y="584" on="0"/>
        <pt x="336" y="589" on="0"/>
        <pt x="304" y="589" on="1"/>
        <pt x="289" y="589" on="0"/>
        <pt x="267" y="582" on="0"/>
        <pt x="252" y="559" on="0"/>
        <pt x="242" y="518" on="0"/>
        <pt x="239" y="485" on="1"/>
        <pt x="387" y="485" on="1"/>
        <pt x="368" y="392" on="1"/>
        <pt x="235" y="392" on="1"/>
        <pt x="235" y="325" on="1"/>
        <pt x="355" y="325" on="1"/>
        <pt x="337" y="232" on="1"/>
        <pt x="239" y="232" on="1"/>
        <pt x="242" y="194" on="0"/>
        <pt x="255" y="147" on="0"/>
        <pt x="273" y="120" on="0"/>
        <pt x="298" y="111" on="0"/>
        <pt x="314" y="111" on="1"/>
        <pt x="345" y="111" on="0"/>
        <pt x="408" y="121" on="0"/>
        <pt x="427" y="126" on="1"/>
      </contour>
    </TTGlyph>
    <TTGlyph name="F" xMin="85" yMin="0" xMax="443" yMax="700">
      <contour>
        <pt x="222" y="592" on="1"/>
        <pt x="222" y="405" on="1"/>
        <pt x="418" y="405" on="1"/>
        <pt x="418" y="297" on="1"/>
        <pt x="222" y="297" on="1"/>
        <pt x="222" y="0" on="1"/>
        <pt x="85" y="0" on="1"/>
        <pt x="85" y="700" on="1"/>
        <pt x="443" y="700" on="1"/>
        <pt x="443" y="592" on="1"/>
      </contour>
    </TTGlyph>
    <TTGlyph name="G" xMin="50" yMin="-9" xMax="455" yMax="709">
      <contour>
        <pt x="455" y="9" on="1"/>
        <pt x="415" y="1" on="0"/>
        <pt x="324" y="-9" on="0"/>
        <pt x="283" y="-9" on="1"/>
        <pt x="220" y="-9" on="0"/>
        <pt x="131" y="23" on="0"/>
        <pt x="75" y="106" on="0"/>
        <pt x="50" y="249" on="0"/>
        <pt x="50" y="361" on="1"/>
        <pt x="50" y="472" on="0"/>
        <pt x="84" y="608" on="0"/>
        <pt x="149" y="683" on="0"/>
        <pt x="245" y="709" on="0"/>
        <pt x="307" y="709" on="1"/>
        <pt x="332" y="709" on="0"/>
        <pt x="403" y="699" on="0"/>
        <pt x="434" y="692" on="1"/>
        <pt x="434" y="574" on="1"/>
        <pt x="402" y="580" on="0"/>
        <pt x="329" y="589" on="0"/>
        <pt x="297" y="589" on="1"/>
        <pt x="266" y="589" on="0"/>
        <pt x="224" y="571" on="0"/>
        <pt x="199" y="520" on="0"/>
        <pt x="189" y="428" on="0"/>
        <pt x="189" y="354" on="1"/>
        <pt x="189" y="279" on="0"/>
        <pt x="198" y="184" on="0"/>
        <pt x="219" y="130" on="0"/>
        <pt x="254" y="111" on="0"/>
        <pt x="280" y="111" on="1"/>
        <pt x="291" y="111" on="0"/>
        <pt x="312" y="111" on="0"/>
        <pt x="322" y="112" on="1"/>
        <pt x="322" y="270" on="1"/>
        <pt x="258" y="270" on="1"/>
        <pt x="258" y="388" on="1"/>
        <pt x="455" y="388" on="1"/>
      </contour>
    </TTGlyph>
    <TTGlyph name="H" xMin="70" yMin="0" xMax="500" yMax="700">
      <contour>
        <pt x="363" y="0" on="1"/>
        <pt x="363" y="297" on="1"/>
        <pt x="207" y="297" on="1"/>
        <pt x="207" y="0" on="1"/>
        <pt x="70" y="0" on="1"/>
        <pt x="70" y="700" on="1"/>
        <pt x="207" y="700" on="1"/>
        <pt x="207" y="411" on="1"/>
        <pt x="363" y="411" on="1"/>
        <pt x="363" y="700" on="1"/>
        <pt x="500" y="700" on="1"/>
        <pt x="500" y="0" on="1"/>
      </contour>
    </TTGlyph>
    <TTGlyph name="I" xMin="35" yMin="0" xMax="312" yMax="700">
      <contour>
        <pt x="35" y="0" on="1"/>
        <pt x="35" y="106" on="1"/>
        <pt x="105" y="106" on="1"/>
        <pt x="105" y="594" on="1"/>
        <pt x="35" y="594" on="1"/>
        <pt x="35" y="700" on="1"/>
        <pt x="312" y="700" on="1"/>
        <pt x="312" y="594" on="1"/>
        <pt x="242" y="594" on="1"/>
        <pt x="242" y="106" on="1"/>
        <pt x="312" y="106" on="1"/>
        <pt x="312" y="0" on="1"/>
      </contour>
    </TTGlyph>
    <TTGlyph name="Iacute" xMin="35" yMin="0" xMax="320" yMax="841">
      <contour>
        <pt x="55" y="726" on="1"/>
        <pt x="159" y="841" on="1"/>
        <pt x="320" y="841" on="1"/>
        <pt x="168" y="726" on="1"/>
      </contour>
      <contour>
        <pt x="35" y="0" on="1"/>
        <pt x="35" y="106" on="1"/>
        <pt x="105" y="106" on="1"/>
        <pt x="105" y="594" on="1"/>
        <pt x="35" y="594" on="1"/>
        <pt x="35" y="700" on="1"/>
        <pt x="312" y="700" on="1"/>
        <pt x="312" y="594" on="1"/>
        <pt x="242" y="594" on="1"/>
        <pt x="242" y="106" on="1"/>
        <pt x="312" y="106" on="1"/>
        <pt x="312" y="0" on="1"/>
      </contour>
    </TTGlyph>
    <TTGlyph name="Icircumflex" xMin="-13" yMin="0" xMax="360" yMax="845">
      <contour>
        <pt x="213" y="730" on="1"/>
        <pt x="173" y="791" on="1"/>
        <pt x="133" y="730" on="1"/>
        <pt x="-13" y="730" on="1"/>
        <pt x="97" y="845" on="1"/>
        <pt x="249" y="845" on="1"/>
        <pt x="360" y="730" on="1"/>
      </contour>
      <contour>
        <pt x="35" y="0" on="1"/>
        <pt x="35" y="106" on="1"/>
        <pt x="105" y="106" on="1"/>
        <pt x="105" y="594" on="1"/>
        <pt x="35" y="594" on="1"/>
        <pt x="35" y="700" on="1"/>
        <pt x="312" y="700" on="1"/>
        <pt x="312" y="594" on="1"/>
        <pt x="242" y="594" on="1"/>
        <pt x="242" y="106" on="1"/>
        <pt x="312" y="106" on="1"/>
        <pt x="312" y="0" on="1"/>
      </contour>
    </TTGlyph>
    <TTGlyph name="Idieresis" xMin="9" yMin="0" xMax="339" yMax="835">
      <contour>
        <pt x="35" y="0" on="1"/>
        <pt x="35" y="106" on="1"/>
        <pt x="105" y="106" on="1"/>
        <pt x="105" y="594" on="1"/>
        <pt x="35" y="594" on="1"/>
        <pt x="35" y="700" on="1"/>
        <pt x="312" y="700" on="1"/>
        <pt x="312" y="594" on="1"/>
        <pt x="242" y="594" on="1"/>
        <pt x="242" y="106" on="1"/>
        <pt x="312" y="106" on="1"/>
        <pt x="312" y="0" on="1"/>
      </contour>
      <contour>
        <pt x="209" y="720" on="1"/>
        <pt x="209" y="835" on="1"/>
        <pt x="339" y="835" on="1"/>
        <pt x="339" y="720" on="1"/>
      </contour>
      <contour>
        <pt x="9" y="720" on="1"/>
        <pt x="9" y="835" on="1"/>
        <pt x="139" y="835" on="1"/>
        <pt x="139" y="720" on="1"/>
      </contour>
    </TTGlyph>
    <TTGlyph name="Igrave" xMin="24" yMin="0" xMax="312" yMax="841">
      <contour>
        <pt x="176" y="726" on="1"/>
        <pt x="24" y="841" on="1"/>
        <pt x="185" y="841" on="1"/>
        <pt x="289" y="726" on="1"/>
      </contour>
      <contour>
        <pt x="35" y="0" on="1"/>
        <pt x="35" y="106" on="1"/>
        <pt x="105" y="106" on="1"/>
        <pt x="105" y="594" on="1"/>
        <pt x="35" y="594" on="1"/>
        <pt x="35" y="700" on="1"/>
        <pt x="312" y="700" on="1"/>
        <pt x="312" y="594" on="1"/>
        <pt x="242" y="594" on="1"/>
        <pt x="242" y="106" on="1"/>
        <pt x="312" y="106" on="1"/>
        <pt x="312" y="0" on="1"/>
      </contour>
    </TTGlyph>
    <TTGlyph name="J" xMin="30" yMin="-10" xMax="351" yMax="700">
      <contour>
        <pt x="351" y="261" on="1"/>
        <pt x="351" y="183" on="0"/>
        <pt x="333" y="79" on="0"/>
        <pt x="287" y="16" on="0"/>
        <pt x="211" y="-10" on="0"/>
        <pt x="152" y="-10" on="1"/>
        <pt x="140" y="-10" on="0"/>
        <pt x="107" y="-8" on="0"/>
        <pt x="74" y="-4" on="0"/>
        <pt x="42" y="1" on="0"/>
        <pt x="30" y="4" on="1"/>
        <pt x="30" y="123" on="1"/>
        <pt x="51" y="119" on="0"/>
        <pt x="112" y="113" on="0"/>
        <pt x="136" y="113" on="1"/>
        <pt x="160" y="113" on="0"/>
        <pt x="190" y="128" on="0"/>
        <pt x="207" y="161" on="0"/>
        <pt x="214" y="215" on="0"/>
        <pt x="214" y="254" on="1"/>
        <pt x="214" y="582" on="1"/>
        <pt x="72" y="582" on="1"/>
        <pt x="72" y="700" on="1"/>
        <pt x="351" y="700" on="1"/>
        <pt x="351" y="261" on="1"/>
      </contour>
    </TTGlyph>
    <TTGlyph name="K" xMin="70" yMin="0" xMax="527" yMax="700">
      <contour>
        <pt x="369" y="0" on="1"/>
        <pt x="227" y="275" on="1"/>
        <pt x="207" y="244" on="1"/>
        <pt x="207" y="0" on="1"/>
        <pt x="70" y="0" on="1"/>
        <pt x="70" y="700" on="1"/>
        <pt x="207" y="700" on="1"/>
        <pt x="207" y="458" on="1"/>
        <pt x="368" y="700" on="1"/>
        <pt x="522" y="700" on="1"/>
        <pt x="313" y="396" on="1"/>
        <pt x="527" y="0" on="1"/>
      </contour>
    </TTGlyph>
    <TTGlyph name="L" xMin="70" yMin="0" xMax="410" yMax="700">
      <contour>
        <pt x="70" y="0" on="1"/>
        <pt x="70" y="700" on="1"/>
        <pt x="207" y="700" on="1"/>
        <pt x="207" y="116" on="1"/>
        <pt x="410" y="116" on="1"/>
        <pt x="410" y="0" on="1"/>
      </contour>
    </TTGlyph>
    <TTGlyph name="Lslash" xMin="20" yMin="0" xMax="420" yMax="700">
      <contour>
        <pt x="80" y="0" on="1"/>
        <pt x="80" y="320" on="1"/>
        <pt x="20" y="290" on="1"/>
        <pt x="20" y="408" on="1"/>
        <pt x="80" y="439" on="1"/>
        <pt x="80" y="700" on="1"/>
        <pt x="217" y="700" on="1"/>
        <pt x="217" y="509" on="1"/>
        <pt x="305" y="555" on="1"/>
        <pt x="305" y="435" on="1"/>
        <pt x="217" y="390" on="1"/>
        <pt x="217" y="116" on="1"/>
        <pt x="420" y="116" on="1"/>
        <pt x="420" y="0" on="1"/>
      </contour>
    </TTGlyph>
    <TTGlyph name="M" xMin="70" yMin="0" xMax="596" yMax="700">
      <contour>
        <pt x="472" y="0" on="1"/>
        <pt x="472" y="599" on="1"/>
        <pt x="386" y="235" on="1"/>
        <pt x="282" y="235" on="1"/>
        <pt x="192" y="599" on="1"/>
        <pt x="192" y="0" on="1"/>
        <pt x="70" y="0" on="1"/>
        <pt x="70" y="700" on="1"/>
        <pt x="278" y="700" on="1"/>
        <pt x="337" y="431" on="1"/>
        <pt x="397" y="700" on="1"/>
        <pt x="596" y="700" on="1"/>
        <pt x="596" y="0" on="1"/>
      </contour>
    </TTGlyph>
    <TTGlyph name="N" xMin="70" yMin="0" xMax="522" yMax="700">
      <contour>
        <pt x="323" y="0" on="1"/>
        <pt x="191" y="562" on="1"/>
        <pt x="191" y="0" on="1"/>
        <pt x="70" y="0" on="1"/>
        <pt x="70" y="700" on="1"/>
        <pt x="269" y="700" on="1"/>
        <pt x="403" y="127" on="1"/>
        <pt x="403" y="700" on="1"/>
        <pt x="522" y="700" on="1"/>
        <pt x="522" y="0" on="1"/>
      </contour>
    </TTGlyph>
    <TTGlyph name="Ntilde" xMin="70" yMin="0" xMax="522" yMax="860">
      <contour>
        <pt x="323" y="0" on="1"/>
        <pt x="191" y="562" on="1"/>
        <pt x="191" y="0" on="1"/>
        <pt x="70" y="0" on="1"/>
        <pt x="70" y="700" on="1"/>
        <pt x="269" y="700" on="1"/>
        <pt x="403" y="127" on="1"/>
        <pt x="403" y="700" on="1"/>
        <pt x="522" y="700" on="1"/>
        <pt x="522" y="0" on="1"/>
      </contour>
      <contour>
        <pt x="134" y="827" on="1"/>
        <pt x="157" y="846" on="0"/>
        <pt x="210" y="860" on="0"/>
        <pt x="230" y="860" on="1"/>
        <pt x="248" y="860" on="0"/>
        <pt x="286" y="848" on="0"/>
        <pt x="324" y="833" on="0"/>
        <pt x="359" y="821" on="0"/>
        <pt x="374" y="821" on="1"/>
        <pt x="400" y="821" on="0"/>
        <pt x="444" y="840" on="0"/>
        <pt x="464" y="857" on="1"/>
        <pt x="464" y="753" on="1"/>
        <pt x="444" y="734" on="0"/>
        <pt x="394" y="720" on="0"/>
        <pt x="368" y="720" on="1"/>
        <pt x="349" y="720" on="0"/>
        <pt x="312" y="732" on="0"/>
        <pt x="275" y="747" on="0"/>
        <pt x="240" y="759" on="0"/>
        <pt x="224" y="759" on="1"/>
        <pt x="198" y="759" on="0"/>
        <pt x="150" y="737" on="0"/>
        <pt x="134" y="723" on="1"/>
      </contour>
    </TTGlyph>
    <TTGlyph name="O" xMin="50" yMin="-10" xMax="518" yMax="710">
      <contour>
        <pt x="379" y="353" on="1"/>
        <pt x="379" y="430" on="0"/>
        <pt x="369" y="527" on="0"/>
        <pt x="347" y="582" on="0"/>
        <pt x="311" y="602" on="0"/>
        <pt x="284" y="602" on="1"/>
        <pt x="257" y="602" on="0"/>
        <pt x="221" y="582" on="0"/>
        <pt x="199" y="527" on="0"/>
        <pt x="189" y="430" on="0"/>
        <pt x="189" y="353" on="1"/>
        <pt x="189" y="277" on="0"/>
        <pt x="199" y="179" on="0"/>
        <pt x="221" y="121" on="0"/>
        <pt x="257" y="98" on="0"/>
        <pt x="284" y="98" on="1"/>
        <pt x="311" y="98" on="0"/>
        <pt x="347" y="121" on="0"/>
        <pt x="369" y="179" on="0"/>
        <pt x="379" y="277" on="0"/>
      </contour>
      <contour>
        <pt x="518" y="358" on="1"/>
        <pt x="518" y="266" on="0"/>
        <pt x="501" y="128" on="0"/>
        <pt x="450" y="36" on="0"/>
        <pt x="358" y="-10" on="0"/>
        <pt x="284" y="-10" on="1"/>
        <pt x="210" y="-10" on="0"/>
        <pt x="118" y="36" on="0"/>
        <pt x="67" y="128" on="0"/>
        <pt x="50" y="266" on="0"/>
        <pt x="50" y="358" on="1"/>
        <pt x="50" y="446" on="0"/>
        <pt x="69" y="578" on="0"/>
        <pt x="121" y="666" on="0"/>
        <pt x="212" y="710" on="0"/>
        <pt x="284" y="710" on="1"/>
        <pt x="356" y="710" on="0"/>
        <pt x="447" y="666" on="0"/>
        <pt x="499" y="578" on="0"/>
        <pt x="518" y="446" on="0"/>
      </contour>
    </TTGlyph>
    <TTGlyph name="OE" xMin="50" yMin="-10" xMax="745" yMax="710">
      <contour>
        <pt x="368" y="0" on="1"/>
        <pt x="350" y="-5" on="0"/>
        <pt x="308" y="-10" on="0"/>
        <pt x="284" y="-10" on="1"/>
        <pt x="210" y="-10" on="0"/>
        <pt x="118" y="36" on="0"/>
        <pt x="67" y="128" on="0"/>
        <pt x="50" y="266" on="0"/>
        <pt x="50" y="358" on="1"/>
        <pt x="50" y="446" on="0"/>
        <pt x="69" y="578" on="0"/>
        <pt x="121" y="666" on="0"/>
        <pt x="212" y="710" on="0"/>
        <pt x="284" y="710" on="1"/>
        <pt x="308" y="710" on="0"/>
        <pt x="350" y="705" on="0"/>
        <pt x="368" y="700" on="1"/>
        <pt x="745" y="700" on="1"/>
        <pt x="745" y="592" on="1"/>
        <pt x="488" y="592" on="1"/>
        <pt x="502" y="557" on="0"/>
        <pt x="515" y="469" on="0"/>
        <pt x="517" y="415" on="1"/>
        <pt x="720" y="415" on="1"/>
        <pt x="720" y="308" on="1"/>
        <pt x="517" y="308" on="1"/>
        <pt x="515" y="245" on="0"/>
        <pt x="502" y="146" on="0"/>
        <pt x="487" y="108" on="1"/>
        <pt x="745" y="108" on="1"/>
        <pt x="745" y="0" on="1"/>
      </contour>
      <contour>
        <pt x="379" y="353" on="1"/>
        <pt x="379" y="430" on="0"/>
        <pt x="369" y="527" on="0"/>
        <pt x="347" y="582" on="0"/>
        <pt x="311" y="602" on="0"/>
        <pt x="284" y="602" on="1"/>
        <pt x="257" y="602" on="0"/>
        <pt x="221" y="582" on="0"/>
        <pt x="199" y="527" on="0"/>
        <pt x="189" y="430" on="0"/>
        <pt x="189" y="353" on="1"/>
        <pt x="189" y="277" on="0"/>
        <pt x="199" y="179" on="0"/>
        <pt x="221" y="121" on="0"/>
        <pt x="257" y="98" on="0"/>
        <pt x="284" y="98" on="1"/>
        <pt x="311" y="98" on="0"/>
        <pt x="347" y="121" on="0"/>
        <pt x="369" y="179" on="0"/>
        <pt x="379" y="277" on="0"/>
      </contour>
    </TTGlyph>
    <TTGlyph name="Oacute" xMin="50" yMin="-10" xMax="518" yMax="841">
      <contour>
        <pt x="196" y="726" on="1"/>
        <pt x="300" y="841" on="1"/>
        <pt x="461" y="841" on="1"/>
        <pt x="309" y="726" on="1"/>
      </contour>
      <contour>
        <pt x="379" y="353" on="1"/>
        <pt x="379" y="430" on="0"/>
        <pt x="369" y="527" on="0"/>
        <pt x="347" y="582" on="0"/>
        <pt x="311" y="602" on="0"/>
        <pt x="284" y="602" on="1"/>
        <pt x="257" y="602" on="0"/>
        <pt x="221" y="582" on="0"/>
        <pt x="199" y="527" on="0"/>
        <pt x="189" y="430" on="0"/>
        <pt x="189" y="353" on="1"/>
        <pt x="189" y="277" on="0"/>
        <pt x="199" y="179" on="0"/>
        <pt x="221" y="121" on="0"/>
        <pt x="257" y="98" on="0"/>
        <pt x="284" y="98" on="1"/>
        <pt x="311" y="98" on="0"/>
        <pt x="347" y="121" on="0"/>
        <pt x="369" y="179" on="0"/>
        <pt x="379" y="277" on="0"/>
      </contour>
      <contour>
        <pt x="518" y="358" on="1"/>
        <pt x="518" y="266" on="0"/>
        <pt x="501" y="128" on="0"/>
        <pt x="450" y="36" on="0"/>
        <pt x="358" y="-10" on="0"/>
        <pt x="284" y="-10" on="1"/>
        <pt x="210" y="-10" on="0"/>
        <pt x="118" y="36" on="0"/>
        <pt x="67" y="128" on="0"/>
        <pt x="50" y="266" on="0"/>
        <pt x="50" y="358" on="1"/>
        <pt x="50" y="446" on="0"/>
        <pt x="69" y="578" on="0"/>
        <pt x="121" y="666" on="0"/>
        <pt x="212" y="710" on="0"/>
        <pt x="284" y="710" on="1"/>
        <pt x="356" y="710" on="0"/>
        <pt x="447" y="666" on="0"/>
        <pt x="499" y="578" on="0"/>
        <pt x="518" y="446" on="0"/>
      </contour>
    </TTGlyph>
    <TTGlyph name="Ocircumflex" xMin="50" yMin="-10" xMax="518" yMax="845">
      <contour>
        <pt x="324" y="730" on="1"/>
        <pt x="284" y="791" on="1"/>
        <pt x="244" y="730" on="1"/>
        <pt x="98" y="730" on="1"/>
        <pt x="208" y="845" on="1"/>
        <pt x="360" y="845" on="1"/>
        <pt x="471" y="730" on="1"/>
      </contour>
      <contour>
        <pt x="379" y="353" on="1"/>
        <pt x="379" y="430" on="0"/>
        <pt x="369" y="527" on="0"/>
        <pt x="347" y="582" on="0"/>
        <pt x="311" y="602" on="0"/>
        <pt x="284" y="602" on="1"/>
        <pt x="257" y="602" on="0"/>
        <pt x="221" y="582" on="0"/>
        <pt x="199" y="527" on="0"/>
        <pt x="189" y="430" on="0"/>
        <pt x="189" y="353" on="1"/>
        <pt x="189" y="277" on="0"/>
        <pt x="199" y="179" on="0"/>
        <pt x="221" y="121" on="0"/>
        <pt x="257" y="98" on="0"/>
        <pt x="284" y="98" on="1"/>
        <pt x="311" y="98" on="0"/>
        <pt x="347" y="121" on="0"/>
        <pt x="369" y="179" on="0"/>
        <pt x="379" y="277" on="0"/>
      </contour>
      <contour>
        <pt x="518" y="358" on="1"/>
        <pt x="518" y="266" on="0"/>
        <pt x="501" y="128" on="0"/>
        <pt x="450" y="36" on="0"/>
        <pt x="358" y="-10" on="0"/>
        <pt x="284" y="-10" on="1"/>
        <pt x="210" y="-10" on="0"/>
        <pt x="118" y="36" on="0"/>
        <pt x="67" y="128" on="0"/>
        <pt x="50" y="266" on="0"/>
        <pt x="50" y="358" on="1"/>
        <pt x="50" y="446" on="0"/>
        <pt x="69" y="578" on="0"/>
        <pt x="121" y="666" on="0"/>
        <pt x="212" y="710" on="0"/>
        <pt x="284" y="710" on="1"/>
        <pt x="356" y="710" on="0"/>
        <pt x="447" y="666" on="0"/>
        <pt x="499" y="578" on="0"/>
        <pt x="518" y="446" on="0"/>
      </contour>
    </TTGlyph>
    <TTGlyph name="Odieresis" xMin="50" yMin="-10" xMax="518" yMax="845">
      <contour>
        <pt x="319" y="730" on="1"/>
        <pt x="319" y="845" on="1"/>
        <pt x="449" y="845" on="1"/>
        <pt x="449" y="730" on="1"/>
      </contour>
      <contour>
        <pt x="119" y="730" on="1"/>
        <pt x="119" y="845" on="1"/>
        <pt x="249" y="845" on="1"/>
        <pt x="249" y="730" on="1"/>
      </contour>
      <contour>
        <pt x="379" y="353" on="1"/>
        <pt x="379" y="430" on="0"/>
        <pt x="369" y="527" on="0"/>
        <pt x="347" y="582" on="0"/>
        <pt x="311" y="602" on="0"/>
        <pt x="284" y="602" on="1"/>
        <pt x="257" y="602" on="0"/>
        <pt x="221" y="582" on="0"/>
        <pt x="199" y="527" on="0"/>
        <pt x="189" y="430" on="0"/>
        <pt x="189" y="353" on="1"/>
        <pt x="189" y="277" on="0"/>
        <pt x="199" y="179" on="0"/>
        <pt x="221" y="121" on="0"/>
        <pt x="257" y="98" on="0"/>
        <pt x="284" y="98" on="1"/>
        <pt x="311" y="98" on="0"/>
        <pt x="347" y="121" on="0"/>
        <pt x="369" y="179" on="0"/>
        <pt x="379" y="277" on="0"/>
      </contour>
      <contour>
        <pt x="518" y="358" on="1"/>
        <pt x="518" y="266" on="0"/>
        <pt x="501" y="128" on="0"/>
        <pt x="450" y="36" on="0"/>
        <pt x="358" y="-10" on="0"/>
        <pt x="284" y="-10" on="1"/>
        <pt x="210" y="-10" on="0"/>
        <pt x="118" y="36" on="0"/>
        <pt x="67" y="128" on="0"/>
        <pt x="50" y="266" on="0"/>
        <pt x="50" y="358" on="1"/>
        <pt x="50" y="446" on="0"/>
        <pt x="69" y="578" on="0"/>
        <pt x="121" y="666" on="0"/>
        <pt x="212" y="710" on="0"/>
        <pt x="284" y="710" on="1"/>
        <pt x="356" y="710" on="0"/>
        <pt x="447" y="666" on="0"/>
        <pt x="499" y="578" on="0"/>
        <pt x="518" y="446" on="0"/>
      </contour>
    </TTGlyph>
    <TTGlyph name="Ograve" xMin="50" yMin="-10" xMax="518" yMax="841">
      <contour>
        <pt x="253" y="726" on="1"/>
        <pt x="101" y="841" on="1"/>
        <pt x="262" y="841" on="1"/>
        <pt x="366" y="726" on="1"/>
      </contour>
      <contour>
        <pt x="379" y="353" on="1"/>
        <pt x="379" y="430" on="0"/>
        <pt x="369" y="527" on="0"/>
        <pt x="347" y="582" on="0"/>
        <pt x="311" y="602" on="0"/>
        <pt x="284" y="602" on="1"/>
        <pt x="257" y="602" on="0"/>
        <pt x="221" y="582" on="0"/>
        <pt x="199" y="527" on="0"/>
        <pt x="189" y="430" on="0"/>
        <pt x="189" y="353" on="1"/>
        <pt x="189" y="277" on="0"/>
        <pt x="199" y="179" on="0"/>
        <pt x="221" y="121" on="0"/>
        <pt x="257" y="98" on="0"/>
        <pt x="284" y="98" on="1"/>
        <pt x="311" y="98" on="0"/>
        <pt x="347" y="121" on="0"/>
        <pt x="369" y="179" on="0"/>
        <pt x="379" y="277" on="0"/>
      </contour>
      <contour>
        <pt x="518" y="358" on="1"/>
        <pt x="518" y="266" on="0"/>
        <pt x="501" y="128" on="0"/>
        <pt x="450" y="36" on="0"/>
        <pt x="358" y="-10" on="0"/>
        <pt x="284" y="-10" on="1"/>
        <pt x="210" y="-10" on="0"/>
        <pt x="118" y="36" on="0"/>
        <pt x="67" y="128" on="0"/>
        <pt x="50" y="266" on="0"/>
        <pt x="50" y="358" on="1"/>
        <pt x="50" y="446" on="0"/>
        <pt x="69" y="578" on="0"/>
        <pt x="121" y="666" on="0"/>
        <pt x="212" y="710" on="0"/>
        <pt x="284" y="710" on="1"/>
        <pt x="356" y="710" on="0"/>
        <pt x="447" y="666" on="0"/>
        <pt x="499" y="578" on="0"/>
        <pt x="518" y="446" on="0"/>
      </contour>
    </TTGlyph>
    <TTGlyph name="Omega" xMin="50" yMin="0" xMax="520" yMax="710">
      <contour>
        <pt x="243" y="0" on="1"/>
        <pt x="50" y="0" on="1"/>
        <pt x="50" y="108" on="1"/>
        <pt x="93" y="108" on="1"/>
        <pt x="50" y="194" on="0"/>
        <pt x="50" y="358" on="1"/>
        <pt x="50" y="446" on="0"/>
        <pt x="69" y="578" on="0"/>
        <pt x="121" y="666" on="0"/>
        <pt x="212" y="710" on="0"/>
        <pt x="284" y="710" on="1"/>
        <pt x="356" y="710" on="0"/>
        <pt x="447" y="666" on="0"/>
        <pt x="499" y="578" on="0"/>
        <pt x="518" y="446" on="0"/>
        <pt x="518" y="358" on="1"/>
        <pt x="518" y="276" on="0"/>
        <pt x="499" y="153" on="0"/>
        <pt x="478" y="108" on="1"/>
        <pt x="520" y="108" on="1"/>
        <pt x="520" y="0" on="1"/>
        <pt x="327" y="0" on="1"/>
        <pt x="327" y="108" on="1"/>
        <pt x="341" y="117" on="0"/>
        <pt x="361" y="153" on="0"/>
        <pt x="373" y="211" on="0"/>
        <pt x="379" y="295" on="0"/>
        <pt x="379" y="353" on="1"/>
        <pt x="379" y="430" on="0"/>
        <pt x="369" y="527" on="0"/>
        <pt x="347" y="582" on="0"/>
        <pt x="311" y="602" on="0"/>
        <pt x="284" y="602" on="1"/>
        <pt x="257" y="602" on="0"/>
        <pt x="221" y="582" on="0"/>
        <pt x="199" y="527" on="0"/>
        <pt x="189" y="430" on="0"/>
        <pt x="189" y="353" on="1"/>
        <pt x="189" y="294" on="0"/>
        <pt x="195" y="209" on="0"/>
        <pt x="207" y="151" on="0"/>
        <pt x="228" y="116" on="0"/>
        <pt x="243" y="108" on="1"/>
      </contour>
    </TTGlyph>
    <TTGlyph name="Oslash" xMin="55" yMin="-91" xMax="523" yMax="791">
      <contour>
        <pt x="523" y="358" on="1"/>
        <pt x="523" y="266" on="0"/>
        <pt x="506" y="128" on="0"/>
        <pt x="455" y="36" on="0"/>
        <pt x="363" y="-10" on="0"/>
        <pt x="289" y="-10" on="1"/>
        <pt x="269" y="-10" on="0"/>
        <pt x="235" y="-6" on="0"/>
        <pt x="219" y="-3" on="1"/>
        <pt x="191" y="-91" on="1"/>
        <pt x="91" y="-91" on="1"/>
        <pt x="132" y="37" on="1"/>
        <pt x="85" y="80" on="0"/>
        <pt x="55" y="240" on="0"/>
        <pt x="55" y="358" on="1"/>
        <pt x="55" y="446" on="0"/>
        <pt x="74" y="578" on="0"/>
        <pt x="126" y="666" on="0"/>
        <pt x="217" y="710" on="0"/>
        <pt x="289" y="710" on="1"/>
        <pt x="305" y="710" on="0"/>
        <pt x="333" y="707" on="0"/>
        <pt x="347" y="705" on="1"/>
        <pt x="375" y="791" on="1"/>
        <pt x="475" y="791" on="1"/>
        <pt x="436" y="670" on="1"/>
        <pt x="487" y="630" on="0"/>
        <pt x="523" y="476" on="0"/>
      </contour>
      <contour>
        <pt x="384" y="353" on="1"/>
        <pt x="384" y="437" on="0"/>
        <pt x="378" y="489" on="1"/>
        <pt x="254" y="104" on="1"/>
        <pt x="262" y="100" on="0"/>
        <pt x="278" y="98" on="0"/>
        <pt x="289" y="98" on="1"/>
        <pt x="316" y="98" on="0"/>
        <pt x="352" y="121" on="0"/>
        <pt x="374" y="179" on="0"/>
        <pt x="384" y="277" on="0"/>
      </contour>
      <contour>
        <pt x="194" y="353" on="1"/>
        <pt x="194" y="319" on="0"/>
        <pt x="196" y="263" on="0"/>
        <pt x="198" y="240" on="1"/>
        <pt x="313" y="599" on="1"/>
        <pt x="301" y="602" on="0"/>
        <pt x="289" y="602" on="1"/>
        <pt x="262" y="602" on="0"/>
        <pt x="226" y="582" on="0"/>
        <pt x="204" y="527" on="0"/>
        <pt x="194" y="430" on="0"/>
      </contour>
    </TTGlyph>
    <TTGlyph name="Otilde" xMin="50" yMin="-10" xMax="518" yMax="860">
      <contour>
        <pt x="379" y="353" on="1"/>
        <pt x="379" y="430" on="0"/>
        <pt x="369" y="527" on="0"/>
        <pt x="347" y="582" on="0"/>
        <pt x="311" y="602" on="0"/>
        <pt x="284" y="602" on="1"/>
        <pt x="257" y="602" on="0"/>
        <pt x="221" y="582" on="0"/>
        <pt x="199" y="527" on="0"/>
        <pt x="189" y="430" on="0"/>
        <pt x="189" y="353" on="1"/>
        <pt x="189" y="277" on="0"/>
        <pt x="199" y="179" on="0"/>
        <pt x="221" y="121" on="0"/>
        <pt x="257" y="98" on="0"/>
        <pt x="284" y="98" on="1"/>
        <pt x="311" y="98" on="0"/>
        <pt x="347" y="121" on="0"/>
        <pt x="369" y="179" on="0"/>
        <pt x="379" y="277" on="0"/>
      </contour>
      <contour>
        <pt x="518" y="358" on="1"/>
        <pt x="518" y="266" on="0"/>
        <pt x="501" y="128" on="0"/>
        <pt x="450" y="36" on="0"/>
        <pt x="358" y="-10" on="0"/>
        <pt x="284" y="-10" on="1"/>
        <pt x="210" y="-10" on="0"/>
        <pt x="118" y="36" on="0"/>
        <pt x="67" y="128" on="0"/>
        <pt x="50" y="266" on="0"/>
        <pt x="50" y="358" on="1"/>
        <pt x="50" y="446" on="0"/>
        <pt x="69" y="578" on="0"/>
        <pt x="121" y="666" on="0"/>
        <pt x="212" y="710" on="0"/>
        <pt x="284" y="710" on="1"/>
        <pt x="356" y="710" on="0"/>
        <pt x="447" y="666" on="0"/>
        <pt x="499" y="578" on="0"/>
        <pt x="518" y="446" on="0"/>
      </contour>
      <contour>
        <pt x="118" y="827" on="1"/>
        <pt x="141" y="846" on="0"/>
        <pt x="194" y="860" on="0"/>
        <pt x="214" y="860" on="1"/>
        <pt x="232" y="860" on="0"/>
        <pt x="270" y="848" on="0"/>
        <pt x="308" y="833" on="0"/>
        <pt x="343" y="821" on="0"/>
        <pt x="358" y="821" on="1"/>
        <pt x="384" y="821" on="0"/>
        <pt x="428" y="840" on="0"/>
        <pt x="448" y="857" on="1"/>
        <pt x="448" y="753" on="1"/>
        <pt x="428" y="734" on="0"/>
        <pt x="378" y="720" on="0"/>
        <pt x="352" y="720" on="1"/>
        <pt x="333" y="720" on="0"/>
        <pt x="296" y="732" on="0"/>
        <pt x="259" y="747" on="0"/>
        <pt x="224" y="759" on="0"/>
        <pt x="208" y="759" on="1"/>
        <pt x="182" y="759" on="0"/>
        <pt x="134" y="737" on="0"/>
        <pt x="118" y="723" on="1"/>
      </contour>
    </TTGlyph>
    <TTGlyph name="P" xMin="70" yMin="0" xMax="485" yMax="710">
      <contour>
        <pt x="346" y="470" on="1"/>
        <pt x="346" y="529" on="0"/>
        <pt x="315" y="590" on="0"/>
        <pt x="272" y="590" on="1"/>
        <pt x="240" y="590" on="0"/>
        <pt x="223" y="587" on="1"/>
        <pt x="213" y="585" on="0"/>
        <pt x="207" y="584" on="1"/>
        <pt x="207" y="359" on="1"/>
        <pt x="270" y="359" on="1"/>
        <pt x="305" y="359" on="0"/>
        <pt x="346" y="419" on="0"/>
      </contour>
      <contour>
        <pt x="485" y="477" on="1"/>
        <pt x="485" y="411" on="0"/>
        <pt x="457" y="321" on="0"/>
        <pt x="401" y="265" on="0"/>
        <pt x="318" y="241" on="0"/>
        <pt x="264" y="241" on="1"/>
        <pt x="207" y="241" on="1"/>
        <pt x="207" y="0" on="1"/>
        <pt x="70" y="0" on="1"/>
        <pt x="70" y="700" on="1"/>
        <pt x="99" y="702" on="0"/>
        <pt x="131" y="705" on="1"/>
        <pt x="158" y="707" on="0"/>
        <pt x="223" y="710" on="0"/>
        <pt x="254" y="710" on="1"/>
        <pt x="322" y="710" on="0"/>
        <pt x="411" y="679" on="0"/>
        <pt x="464" y="620" on="0"/>
        <pt x="485" y="533" on="0"/>
      </contour>
    </TTGlyph>
    <TTGlyph name="Q" xMin="50" yMin="-124" xMax="518" yMax="710">
      <contour>
        <pt x="248" y="-8" on="1"/>
        <pt x="185" y="-3" on="0"/>
        <pt x="108" y="48" on="0"/>
        <pt x="65" y="140" on="0"/>
        <pt x="50" y="272" on="0"/>
        <pt x="50" y="358" on="1"/>
        <pt x="50" y="446" on="0"/>
        <pt x="69" y="578" on="0"/>
        <pt x="121" y="666" on="0"/>
        <pt x="212" y="710" on="0"/>
        <pt x="284" y="710" on="1"/>
        <pt x="356" y="710" on="0"/>
        <pt x="447" y="666" on="0"/>
        <pt x="499" y="578" on="0"/>
        <pt x="518" y="446" on="0"/>
        <pt x="518" y="358" on="1"/>
        <pt x="518" y="229" on="0"/>
        <pt x="477" y="62" on="0"/>
        <pt x="419" y="23" on="1"/>
        <pt x="518" y="0" on="1"/>
        <pt x="518" y="-124" on="1"/>
      </contour>
      <contour>
        <pt x="379" y="353" on="1"/>
        <pt x="379" y="430" on="0"/>
        <pt x="369" y="527" on="0"/>
        <pt x="347" y="582" on="0"/>
        <pt x="311" y="602" on="0"/>
        <pt x="284" y="602" on="1"/>
        <pt x="257" y="602" on="0"/>
        <pt x="221" y="582" on="0"/>
        <pt x="199" y="527" on="0"/>
        <pt x="189" y="430" on="0"/>
        <pt x="189" y="353" on="1"/>
        <pt x="189" y="277" on="0"/>
        <pt x="199" y="179" on="0"/>
        <pt x="221" y="121" on="0"/>
        <pt x="257" y="98" on="0"/>
        <pt x="284" y="98" on="1"/>
        <pt x="311" y="98" on="0"/>
        <pt x="347" y="121" on="0"/>
        <pt x="369" y="179" on="0"/>
        <pt x="379" y="277" on="0"/>
      </contour>
    </TTGlyph>
    <TTGlyph name="R" xMin="70" yMin="0" xMax="508" yMax="710">
      <contour>
        <pt x="478" y="488" on="1"/>
        <pt x="478" y="405" on="0"/>
        <pt x="428" y="310" on="0"/>
        <pt x="383" y="287" on="1"/>
        <pt x="508" y="0" on="1"/>
        <pt x="353" y="0" on="1"/>
        <pt x="247" y="264" on="1"/>
        <pt x="207" y="264" on="1"/>
        <pt x="207" y="0" on="1"/>
        <pt x="70" y="0" on="1"/>
        <pt x="70" y="700" on="1"/>
        <pt x="99" y="702" on="0"/>
        <pt x="131" y="705" on="1"/>
        <pt x="158" y="707" on="0"/>
        <pt x="223" y="710" on="0"/>
        <pt x="254" y="710" on="1"/>
        <pt x="319" y="710" on="0"/>
        <pt x="405" y="683" on="0"/>
        <pt x="457" y="627" on="0"/>
        <pt x="478" y="544" on="0"/>
      </contour>
      <contour>
        <pt x="339" y="481" on="1"/>
        <pt x="339" y="540" on="0"/>
        <pt x="311" y="590" on="0"/>
        <pt x="268" y="590" on="1"/>
        <pt x="244" y="590" on="0"/>
        <pt x="226" y="587" on="1"/>
        <pt x="215" y="585" on="0"/>
        <pt x="207" y="584" on="1"/>
        <pt x="207" y="382" on="1"/>
        <pt x="270" y="382" on="1"/>
        <pt x="301" y="382" on="0"/>
        <pt x="339" y="432" on="0"/>
      </contour>
    </TTGlyph>
    <TTGlyph name="S" xMin="25" yMin="-7" xMax="404" yMax="707">
      <contour>
        <pt x="404" y="208" on="1"/>
        <pt x="404" y="138" on="0"/>
        <pt x="369" y="53" on="0"/>
        <pt x="308" y="7" on="0"/>
        <pt x="223" y="-7" on="0"/>
        <pt x="173" y="-7" on="1"/>
        <pt x="157" y="-7" on="0"/>
        <pt x="118" y="-5" on="0"/>
        <pt x="79" y="-1" on="0"/>
        <pt x="44" y="5" on="0"/>
        <pt x="31" y="8" on="1"/>
        <pt x="31" y="127" on="1"/>
        <pt x="43" y="124" on="0"/>
        <pt x="76" y="118" on="0"/>
        <pt x="112" y="114" on="0"/>
        <pt x="148" y="111" on="0"/>
        <pt x="163" y="111" on="1"/>
        <pt x="210" y="111" on="0"/>
        <pt x="265" y="150" on="0"/>
        <pt x="265" y="198" on="1"/>
        <pt x="265" y="225" on="0"/>
        <pt x="254" y="263" on="0"/>
        <pt x="232" y="287" on="0"/>
        <pt x="200" y="301" on="0"/>
        <pt x="180" y="305" on="1"/>
        <pt x="96" y="322" on="0"/>
        <pt x="25" y="418" on="0"/>
        <pt x="25" y="506" on="1"/>
        <pt x="25" y="562" on="0"/>
        <pt x="56" y="638" on="0"/>
        <pt x="117" y="686" on="0"/>
        <pt x="206" y="707" on="0"/>
        <pt x="263" y="707" on="1"/>
        <pt x="277" y="707" on="0"/>
        <pt x="311" y="705" on="0"/>
        <pt x="345" y="700" on="0"/>
        <pt x="376" y="695" on="0"/>
        <pt x="387" y="692" on="1"/>
        <pt x="387" y="574" on="1"/>
        <pt x="374" y="577" on="0"/>
        <pt x="339" y="582" on="0"/>
        <pt x="302" y="587" on="0"/>
        <pt x="266" y="589" on="0"/>
        <pt x="253" y="589" on="1"/>
        <pt x="210" y="589" on="0"/>
        <pt x="164" y="555" on="0"/>
        <pt x="164" y="517" on="1"/>
        <pt x="164" y="493" on="0"/>
        <pt x="171" y="462" on="0"/>
        <pt x="189" y="443" on="0"/>
        <pt x="219" y="431" on="0"/>
        <pt x="243" y="426" on="1"/>
        <pt x="279" y="419" on="0"/>
        <pt x="338" y="390" on="0"/>
        <pt x="381" y="340" on="0"/>
        <pt x="404" y="264" on="0"/>
      </contour>
    </TTGlyph>
    <TTGlyph name="Scaron" xMin="25" yMin="-7" xMax="410" yMax="845">
      <contour>
        <pt x="184" y="845" on="1"/>
        <pt x="224" y="784" on="1"/>
        <pt x="264" y="845" on="1"/>
        <pt x="410" y="845" on="1"/>
        <pt x="300" y="730" on="1"/>
        <pt x="148" y="730" on="1"/>
        <pt x="37" y="845" on="1"/>
      </contour>
      <contour>
        <pt x="404" y="208" on="1"/>
        <pt x="404" y="138" on="0"/>
        <pt x="369" y="53" on="0"/>
        <pt x="308" y="7" on="0"/>
        <pt x="223" y="-7" on="0"/>
        <pt x="173" y="-7" on="1"/>
        <pt x="157" y="-7" on="0"/>
        <pt x="118" y="-5" on="0"/>
        <pt x="79" y="-1" on="0"/>
        <pt x="44" y="5" on="0"/>
        <pt x="31" y="8" on="1"/>
        <pt x="31" y="127" on="1"/>
        <pt x="43" y="124" on="0"/>
        <pt x="76" y="118" on="0"/>
        <pt x="112" y="114" on="0"/>
        <pt x="148" y="111" on="0"/>
        <pt x="163" y="111" on="1"/>
        <pt x="210" y="111" on="0"/>
        <pt x="265" y="150" on="0"/>
        <pt x="265" y="198" on="1"/>
        <pt x="265" y="225" on="0"/>
        <pt x="254" y="263" on="0"/>
        <pt x="232" y="287" on="0"/>
        <pt x="200" y="301" on="0"/>
        <pt x="180" y="305" on="1"/>
        <pt x="96" y="322" on="0"/>
        <pt x="25" y="418" on="0"/>
        <pt x="25" y="506" on="1"/>
        <pt x="25" y="562" on="0"/>
        <pt x="56" y="638" on="0"/>
        <pt x="117" y="686" on="0"/>
        <pt x="206" y="707" on="0"/>
        <pt x="263" y="707" on="1"/>
        <pt x="277" y="707" on="0"/>
        <pt x="311" y="705" on="0"/>
        <pt x="345" y="700" on="0"/>
        <pt x="376" y="695" on="0"/>
        <pt x="387" y="692" on="1"/>
        <pt x="387" y="574" on="1"/>
        <pt x="374" y="577" on="0"/>
        <pt x="339" y="582" on="0"/>
        <pt x="302" y="587" on="0"/>
        <pt x="266" y="589" on="0"/>
        <pt x="253" y="589" on="1"/>
        <pt x="210" y="589" on="0"/>
        <pt x="164" y="555" on="0"/>
        <pt x="164" y="517" on="1"/>
        <pt x="164" y="493" on="0"/>
        <pt x="171" y="462" on="0"/>
        <pt x="189" y="443" on="0"/>
        <pt x="219" y="431" on="0"/>
        <pt x="243" y="426" on="1"/>
        <pt x="279" y="419" on="0"/>
        <pt x="338" y="390" on="0"/>
        <pt x="381" y="340" on="0"/>
        <pt x="404" y="264" on="0"/>
      </contour>
    </TTGlyph>
    <TTGlyph name="T" xMin="10" yMin="0" xMax="435" yMax="700">
      <contour>
        <pt x="291" y="579" on="1"/>
        <pt x="291" y="0" on="1"/>
        <pt x="154" y="0" on="1"/>
        <pt x="154" y="579" on="1"/>
        <pt x="10" y="579" on="1"/>
        <pt x="10" y="700" on="1"/>
        <pt x="435" y="700" on="1"/>
        <pt x="435" y="579" on="1"/>
      </contour>
    </TTGlyph>
    <TTGlyph name="Thorn" xMin="70" yMin="0" xMax="485" yMax="700">
      <contour>
        <pt x="485" y="360" on="1"/>
        <pt x="485" y="294" on="0"/>
        <pt x="457" y="204" on="0"/>
        <pt x="401" y="148" on="0"/>
        <pt x="318" y="124" on="0"/>
        <pt x="264" y="124" on="1"/>
        <pt x="207" y="124" on="1"/>
        <pt x="207" y="0" on="1"/>
        <pt x="70" y="0" on="1"/>
        <pt x="70" y="700" on="1"/>
        <pt x="207" y="700" on="1"/>
        <pt x="207" y="592" on="1"/>
        <pt x="219" y="592" on="0"/>
        <pt x="242" y="593" on="0"/>
        <pt x="254" y="593" on="1"/>
        <pt x="322" y="593" on="0"/>
        <pt x="411" y="562" on="0"/>
        <pt x="464" y="503" on="0"/>
        <pt x="485" y="416" on="0"/>
      </contour>
      <contour>
        <pt x="346" y="353" on="1"/>
        <pt x="346" y="412" on="0"/>
        <pt x="315" y="473" on="0"/>
        <pt x="272" y="473" on="1"/>
        <pt x="240" y="473" on="0"/>
        <pt x="223" y="470" on="1"/>
        <pt x="213" y="468" on="0"/>
        <pt x="207" y="467" on="1"/>
        <pt x="207" y="242" on="1"/>
        <pt x="270" y="242" on="1"/>
        <pt x="305" y="242" on="0"/>
        <pt x="346" y="302" on="0"/>
      </contour>
    </TTGlyph>
    <TTGlyph name="U" xMin="65" yMin="-7" xMax="490" yMax="700">
      <contour>
        <pt x="490" y="215" on="1"/>
        <pt x="490" y="153" on="0"/>
        <pt x="462" y="68" on="0"/>
        <pt x="408" y="16" on="0"/>
        <pt x="329" y="-7" on="0"/>
        <pt x="278" y="-7" on="1"/>
        <pt x="227" y="-7" on="0"/>
        <pt x="148" y="16" on="0"/>
        <pt x="94" y="68" on="0"/>
        <pt x="65" y="153" on="0"/>
        <pt x="65" y="215" on="1"/>
        <pt x="65" y="700" on="1"/>
        <pt x="202" y="700" on="1"/>
        <pt x="202" y="196" on="1"/>
        <pt x="202" y="111" on="0"/>
        <pt x="278" y="111" on="1"/>
        <pt x="317" y="111" on="0"/>
        <pt x="353" y="154" on="0"/>
        <pt x="353" y="196" on="1"/>
        <pt x="353" y="700" on="1"/>
        <pt x="490" y="700" on="1"/>
      </contour>
    </TTGlyph>
    <TTGlyph name="Uacute" xMin="65" yMin="-7" xMax="490" yMax="841">
      <contour>
        <pt x="201" y="726" on="1"/>
        <pt x="305" y="841" on="1"/>
        <pt x="466" y="841" on="1"/>
        <pt x="314" y="726" on="1"/>
      </contour>
      <contour>
        <pt x="490" y="215" on="1"/>
        <pt x="490" y="153" on="0"/>
        <pt x="462" y="68" on="0"/>
        <pt x="408" y="16" on="0"/>
        <pt x="329" y="-7" on="0"/>
        <pt x="278" y="-7" on="1"/>
        <pt x="227" y="-7" on="0"/>
        <pt x="148" y="16" on="0"/>
        <pt x="94" y="68" on="0"/>
        <pt x="65" y="153" on="0"/>
        <pt x="65" y="215" on="1"/>
        <pt x="65" y="700" on="1"/>
        <pt x="202" y="700" on="1"/>
        <pt x="202" y="196" on="1"/>
        <pt x="202" y="111" on="0"/>
        <pt x="278" y="111" on="1"/>
        <pt x="317" y="111" on="0"/>
        <pt x="353" y="154" on="0"/>
        <pt x="353" y="196" on="1"/>
        <pt x="353" y="700" on="1"/>
        <pt x="490" y="700" on="1"/>
      </contour>
    </TTGlyph>
    <TTGlyph name="Ucircumflex" xMin="65" yMin="-7" xMax="490" yMax="845">
      <contour>
        <pt x="316" y="730" on="1"/>
        <pt x="276" y="791" on="1"/>
        <pt x="236" y="730" on="1"/>
        <pt x="90" y="730" on="1"/>
        <pt x="200" y="845" on="1"/>
        <pt x="352" y="845" on="1"/>
        <pt x="463" y="730" on="1"/>
      </contour>
      <contour>
        <pt x="490" y="215" on="1"/>
        <pt x="490" y="153" on="0"/>
        <pt x="462" y="68" on="0"/>
        <pt x="408" y="16" on="0"/>
        <pt x="329" y="-7" on="0"/>
        <pt x="278" y="-7" on="1"/>
        <pt x="227" y="-7" on="0"/>
        <pt x="148" y="16" on="0"/>
        <pt x="94" y="68" on="0"/>
        <pt x="65" y="153" on="0"/>
        <pt x="65" y="215" on="1"/>
        <pt x="65" y="700" on="1"/>
        <pt x="202" y="700" on="1"/>
        <pt x="202" y="196" on="1"/>
        <pt x="202" y="111" on="0"/>
        <pt x="278" y="111" on="1"/>
        <pt x="317" y="111" on="0"/>
        <pt x="353" y="154" on="0"/>
        <pt x="353" y="196" on="1"/>
        <pt x="353" y="700" on="1"/>
        <pt x="490" y="700" on="1"/>
      </contour>
    </TTGlyph>
    <TTGlyph name="Udieresis" xMin="65" yMin="-7" xMax="490" yMax="845">
      <contour>
        <pt x="311" y="730" on="1"/>
        <pt x="311" y="845" on="1"/>
        <pt x="441" y="845" on="1"/>
        <pt x="441" y="730" on="1"/>
      </contour>
      <contour>
        <pt x="111" y="730" on="1"/>
        <pt x="111" y="845" on="1"/>
        <pt x="241" y="845" on="1"/>
        <pt x="241" y="730" on="1"/>
      </contour>
      <contour>
        <pt x="490" y="215" on="1"/>
        <pt x="490" y="153" on="0"/>
        <pt x="462" y="68" on="0"/>
        <pt x="408" y="16" on="0"/>
        <pt x="329" y="-7" on="0"/>
        <pt x="278" y="-7" on="1"/>
        <pt x="227" y="-7" on="0"/>
        <pt x="148" y="16" on="0"/>
        <pt x="94" y="68" on="0"/>
        <pt x="65" y="153" on="0"/>
        <pt x="65" y="215" on="1"/>
        <pt x="65" y="700" on="1"/>
        <pt x="202" y="700" on="1"/>
        <pt x="202" y="196" on="1"/>
        <pt x="202" y="111" on="0"/>
        <pt x="278" y="111" on="1"/>
        <pt x="317" y="111" on="0"/>
        <pt x="353" y="154" on="0"/>
        <pt x="353" y="196" on="1"/>
        <pt x="353" y="700" on="1"/>
        <pt x="490" y="700" on="1"/>
      </contour>
    </TTGlyph>
    <TTGlyph name="Ugrave" xMin="65" yMin="-7" xMax="490" yMax="841">
      <contour>
        <pt x="243" y="726" on="1"/>
        <pt x="91" y="841" on="1"/>
        <pt x="252" y="841" on="1"/>
        <pt x="356" y="726" on="1"/>
      </contour>
      <contour>
        <pt x="490" y="215" on="1"/>
        <pt x="490" y="153" on="0"/>
        <pt x="462" y="68" on="0"/>
        <pt x="408" y="16" on="0"/>
        <pt x="329" y="-7" on="0"/>
        <pt x="278" y="-7" on="1"/>
        <pt x="227" y="-7" on="0"/>
        <pt x="148" y="16" on="0"/>
        <pt x="94" y="68" on="0"/>
        <pt x="65" y="153" on="0"/>
        <pt x="65" y="215" on="1"/>
        <pt x="65" y="700" on="1"/>
        <pt x="202" y="700" on="1"/>
        <pt x="202" y="196" on="1"/>
        <pt x="202" y="111" on="0"/>
        <pt x="278" y="111" on="1"/>
        <pt x="317" y="111" on="0"/>
        <pt x="353" y="154" on="0"/>
        <pt x="353" y="196" on="1"/>
        <pt x="353" y="700" on="1"/>
        <pt x="490" y="700" on="1"/>
      </contour>
    </TTGlyph>
    <TTGlyph name="V" xMin="25" yMin="0" xMax="517" yMax="700">
      <contour>
        <pt x="376" y="0" on="1"/>
        <pt x="165" y="0" on="1"/>
        <pt x="25" y="700" on="1"/>
        <pt x="169" y="700" on="1"/>
        <pt x="274" y="98" on="1"/>
        <pt x="383" y="700" on="1"/>
        <pt x="517" y="700" on="1"/>
      </contour>
    </TTGlyph>
    <TTGlyph name="W" xMin="45" yMin="0" xMax="583" yMax="700">
      <contour>
        <pt x="549" y="0" on="1"/>
        <pt x="356" y="0" on="1"/>
        <pt x="314" y="235" on="1"/>
        <pt x="264" y="0" on="1"/>
        <pt x="79" y="0" on="1"/>
        <pt x="45" y="700" on="1"/>
        <pt x="167" y="700" on="1"/>
        <pt x="194" y="107" on="1"/>
        <pt x="265" y="405" on="1"/>
        <pt x="379" y="405" on="1"/>
        <pt x="442" y="107" on="1"/>
        <pt x="470" y="700" on="1"/>
        <pt x="583" y="700" on="1"/>
      </contour>
    </TTGlyph>
    <TTGlyph name="X" xMin="15" yMin="0" xMax="510" yMax="700">
      <contour>
        <pt x="355" y="0" on="1"/>
        <pt x="263" y="232" on="1"/>
        <pt x="164" y="0" on="1"/>
        <pt x="15" y="0" on="1"/>
        <pt x="195" y="363" on="1"/>
        <pt x="35" y="700" on="1"/>
        <pt x="187" y="700" on="1"/>
        <pt x="269" y="493" on="1"/>
        <pt x="354" y="700" on="1"/>
        <pt x="503" y="700" on="1"/>
        <pt x="336" y="364" on="1"/>
        <pt x="510" y="0" on="1"/>
      </contour>
    </TTGlyph>
    <TTGlyph name="Y" xMin="10" yMin="0" xMax="521" yMax="700">
      <contour>
        <pt x="334" y="308" on="1"/>
        <pt x="334" y="0" on="1"/>
        <pt x="194" y="0" on="1"/>
        <pt x="194" y="308" on="1"/>
        <pt x="10" y="700" on="1"/>
        <pt x="158" y="700" on="1"/>
        <pt x="269" y="430" on="1"/>
        <pt x="380" y="700" on="1"/>
        <pt x="521" y="700" on="1"/>
      </contour>
    </TTGlyph>
    <TTGlyph name="Yacute" xMin="10" yMin="0" xMax="521" yMax="841">
      <contour>
        <pt x="196" y="726" on="1"/>
        <pt x="300" y="841" on="1"/>
        <pt x="461" y="841" on="1"/>
        <pt x="309" y="726" on="1"/>
      </contour>
      <contour>
        <pt x="334" y="308" on="1"/>
        <pt x="334" y="0" on="1"/>
        <pt x="194" y="0" on="1"/>
        <pt x="194" y="308" on="1"/>
        <pt x="10" y="700" on="1"/>
        <pt x="158" y="700" on="1"/>
        <pt x="269" y="430" on="1"/>
        <pt x="380" y="700" on="1"/>
        <pt x="521" y="700" on="1"/>
      </contour>
    </TTGlyph>
    <TTGlyph name="Ydieresis" xMin="10" yMin="0" xMax="521" yMax="835">
      <contour>
        <pt x="334" y="308" on="1"/>
        <pt x="334" y="0" on="1"/>
        <pt x="194" y="0" on="1"/>
        <pt x="194" y="308" on="1"/>
        <pt x="10" y="700" on="1"/>
        <pt x="158" y="700" on="1"/>
        <pt x="269" y="430" on="1"/>
        <pt x="380" y="700" on="1"/>
        <pt x="521" y="700" on="1"/>
      </contour>
      <contour>
        <pt x="304" y="720" on="1"/>
        <pt x="304" y="835" on="1"/>
        <pt x="434" y="835" on="1"/>
        <pt x="434" y="720" on="1"/>
      </contour>
      <contour>
        <pt x="104" y="720" on="1"/>
        <pt x="104" y="835" on="1"/>
        <pt x="234" y="835" on="1"/>
        <pt x="234" y="720" on="1"/>
      </contour>
    </TTGlyph>
    <TTGlyph name="Z" xMin="35" yMin="0" xMax="431" yMax="700">
      <contour>
        <pt x="182" y="119" on="1"/>
        <pt x="421" y="119" on="1"/>
        <pt x="421" y="0" on="1"/>
        <pt x="35" y="0" on="1"/>
        <pt x="35" y="133" on="1"/>
        <pt x="285" y="581" on="1"/>
        <pt x="58" y="581" on="1"/>
        <pt x="58" y="700" on="1"/>
        <pt x="431" y="700" on="1"/>
        <pt x="431" y="567" on="1"/>
      </contour>
    </TTGlyph>
    <TTGlyph name="Zcaron" xMin="35" yMin="0" xMax="433" yMax="845">
      <contour>
        <pt x="207" y="845" on="1"/>
        <pt x="247" y="784" on="1"/>
        <pt x="287" y="845" on="1"/>
        <pt x="433" y="845" on="1"/>
        <pt x="323" y="730" on="1"/>
        <pt x="171" y="730" on="1"/>
        <pt x="60" y="845" on="1"/>
      </contour>
      <contour>
        <pt x="182" y="119" on="1"/>
        <pt x="421" y="119" on="1"/>
        <pt x="421" y="0" on="1"/>
        <pt x="35" y="0" on="1"/>
        <pt x="35" y="133" on="1"/>
        <pt x="285" y="581" on="1"/>
        <pt x="58" y="581" on="1"/>
        <pt x="58" y="700" on="1"/>
        <pt x="431" y="700" on="1"/>
        <pt x="431" y="567" on="1"/>
      </contour>
    </TTGlyph>
    <TTGlyph name="a" xMin="45" yMin="-9" xMax="474" yMax="509">
      <contour>
        <pt x="416" y="0" on="1"/>
        <pt x="396" y="0" on="0"/>
        <pt x="344" y="16" on="0"/>
        <pt x="330" y="41" on="1"/>
        <pt x="311" y="18" on="0"/>
        <pt x="249" y="-9" on="0"/>
        <pt x="198" y="-9" on="1"/>
        <pt x="165" y="-9" on="0"/>
        <pt x="109" y="7" on="0"/>
        <pt x="68" y="44" on="0"/>
        <pt x="45" y="105" on="0"/>
        <pt x="45" y="151" on="1"/>
        <pt x="45" y="242" on="0"/>
        <pt x="154" y="318" on="0"/>
        <pt x="257" y="318" on="1"/>
        <pt x="302" y="318" on="1"/>
        <pt x="302" y="339" on="1"/>
        <pt x="302" y="368" on="0"/>
        <pt x="273" y="399" on="0"/>
        <pt x="235" y="399" on="1"/>
        <pt x="192" y="399" on="0"/>
        <pt x="119" y="386" on="0"/>
        <pt x="81" y="375" on="1"/>
        <pt x="81" y="489" on="1"/>
        <pt x="95" y="493" on="0"/>
        <pt x="133" y="500" on="0"/>
        <pt x="174" y="506" on="0"/>
        <pt x="217" y="509" on="0"/>
        <pt x="235" y="509" on="1"/>
        <pt x="299" y="509" on="0"/>
        <pt x="377" y="488" on="0"/>
        <pt x="420" y="444" on="0"/>
        <pt x="435" y="376" on="0"/>
        <pt x="435" y="330" on="1"/>
        <pt x="435" y="132" on="1"/>
        <pt x="435" y="117" on="0"/>
        <pt x="451" y="100" on="0"/>
        <pt x="474" y="100" on="1"/>
        <pt x="474" y="0" on="1"/>
      </contour>
      <contour>
        <pt x="236" y="103" on="1"/>
        <pt x="257" y="103" on="0"/>
        <pt x="282" y="118" on="0"/>
        <pt x="297" y="140" on="0"/>
        <pt x="302" y="165" on="0"/>
        <pt x="302" y="175" on="1"/>
        <pt x="302" y="220" on="1"/>
        <pt x="252" y="220" on="1"/>
        <pt x="220" y="220" on="0"/>
        <pt x="180" y="192" on="0"/>
        <pt x="180" y="158" on="1"/>
        <pt x="180" y="135" on="0"/>
        <pt x="205" y="103" on="0"/>
      </contour>
    </TTGlyph>
    <TTGlyph name="aacute" xMin="45" yMin="-9" xMax="474" yMax="715">
      <contour>
        <pt x="416" y="0" on="1"/>
        <pt x="396" y="0" on="0"/>
        <pt x="344" y="16" on="0"/>
        <pt x="330" y="41" on="1"/>
        <pt x="311" y="18" on="0"/>
        <pt x="249" y="-9" on="0"/>
        <pt x="198" y="-9" on="1"/>
        <pt x="165" y="-9" on="0"/>
        <pt x="109" y="7" on="0"/>
        <pt x="68" y="44" on="0"/>
        <pt x="45" y="105" on="0"/>
        <pt x="45" y="151" on="1"/>
        <pt x="45" y="242" on="0"/>
        <pt x="154" y="318" on="0"/>
        <pt x="257" y="318" on="1"/>
        <pt x="302" y="318" on="1"/>
        <pt x="302" y="339" on="1"/>
        <pt x="302" y="368" on="0"/>
        <pt x="273" y="399" on="0"/>
        <pt x="235" y="399" on="1"/>
        <pt x="192" y="399" on="0"/>
        <pt x="119" y="386" on="0"/>
        <pt x="81" y="375" on="1"/>
        <pt x="81" y="489" on="1"/>
        <pt x="95" y="493" on="0"/>
        <pt x="133" y="500" on="0"/>
        <pt x="174" y="506" on="0"/>
        <pt x="217" y="509" on="0"/>
        <pt x="235" y="509" on="1"/>
        <pt x="299" y="509" on="0"/>
        <pt x="377" y="488" on="0"/>
        <pt x="420" y="444" on="0"/>
        <pt x="435" y="376" on="0"/>
        <pt x="435" y="330" on="1"/>
        <pt x="435" y="132" on="1"/>
        <pt x="435" y="117" on="0"/>
        <pt x="451" y="100" on="0"/>
        <pt x="474" y="100" on="1"/>
        <pt x="474" y="0" on="1"/>
      </contour>
      <contour>
        <pt x="236" y="103" on="1"/>
        <pt x="257" y="103" on="0"/>
        <pt x="282" y="118" on="0"/>
        <pt x="297" y="140" on="0"/>
        <pt x="302" y="165" on="0"/>
        <pt x="302" y="175" on="1"/>
        <pt x="302" y="220" on="1"/>
        <pt x="252" y="220" on="1"/>
        <pt x="220" y="220" on="0"/>
        <pt x="180" y="192" on="0"/>
        <pt x="180" y="158" on="1"/>
        <pt x="180" y="135" on="0"/>
        <pt x="205" y="103" on="0"/>
      </contour>
      <contour>
        <pt x="181" y="580" on="1"/>
        <pt x="285" y="715" on="1"/>
        <pt x="444" y="715" on="1"/>
        <pt x="292" y="580" on="1"/>
      </contour>
    </TTGlyph>
    <TTGlyph name="acircumflex" xMin="45" yMin="-9" xMax="474" yMax="715">
      <contour>
        <pt x="416" y="0" on="1"/>
        <pt x="396" y="0" on="0"/>
        <pt x="344" y="16" on="0"/>
        <pt x="330" y="41" on="1"/>
        <pt x="311" y="18" on="0"/>
        <pt x="249" y="-9" on="0"/>
        <pt x="198" y="-9" on="1"/>
        <pt x="165" y="-9" on="0"/>
        <pt x="109" y="7" on="0"/>
        <pt x="68" y="44" on="0"/>
        <pt x="45" y="105" on="0"/>
        <pt x="45" y="151" on="1"/>
        <pt x="45" y="242" on="0"/>
        <pt x="154" y="318" on="0"/>
        <pt x="257" y="318" on="1"/>
        <pt x="302" y="318" on="1"/>
        <pt x="302" y="339" on="1"/>
        <pt x="302" y="368" on="0"/>
        <pt x="273" y="399" on="0"/>
        <pt x="235" y="399" on="1"/>
        <pt x="192" y="399" on="0"/>
        <pt x="119" y="386" on="0"/>
        <pt x="81" y="375" on="1"/>
        <pt x="81" y="489" on="1"/>
        <pt x="95" y="493" on="0"/>
        <pt x="133" y="500" on="0"/>
        <pt x="174" y="506" on="0"/>
        <pt x="217" y="509" on="0"/>
        <pt x="235" y="509" on="1"/>
        <pt x="299" y="509" on="0"/>
        <pt x="377" y="488" on="0"/>
        <pt x="420" y="444" on="0"/>
        <pt x="435" y="376" on="0"/>
        <pt x="435" y="330" on="1"/>
        <pt x="435" y="132" on="1"/>
        <pt x="435" y="117" on="0"/>
        <pt x="451" y="100" on="0"/>
        <pt x="474" y="100" on="1"/>
        <pt x="474" y="0" on="1"/>
      </contour>
      <contour>
        <pt x="236" y="103" on="1"/>
        <pt x="257" y="103" on="0"/>
        <pt x="282" y="118" on="0"/>
        <pt x="297" y="140" on="0"/>
        <pt x="302" y="165" on="0"/>
        <pt x="302" y="175" on="1"/>
        <pt x="302" y="220" on="1"/>
        <pt x="252" y="220" on="1"/>
        <pt x="220" y="220" on="0"/>
        <pt x="180" y="192" on="0"/>
        <pt x="180" y="158" on="1"/>
        <pt x="180" y="135" on="0"/>
        <pt x="205" y="103" on="0"/>
      </contour>
      <contour>
        <pt x="305" y="580" on="1"/>
        <pt x="255" y="654" on="1"/>
        <pt x="205" y="580" on="1"/>
        <pt x="59" y="580" on="1"/>
        <pt x="181" y="715" on="1"/>
        <pt x="329" y="715" on="1"/>
        <pt x="452" y="580" on="1"/>
      </contour>
    </TTGlyph>
    <TTGlyph name="acute" xMin="25" yMin="580" xMax="288" yMax="715">
      <contour>
        <pt x="25" y="580" on="1"/>
        <pt x="129" y="715" on="1"/>
        <pt x="288" y="715" on="1"/>
        <pt x="136" y="580" on="1"/>
      </contour>
    </TTGlyph>
    <TTGlyph name="adieresis" xMin="45" yMin="-9" xMax="474" yMax="675">
      <contour>
        <pt x="416" y="0" on="1"/>
        <pt x="396" y="0" on="0"/>
        <pt x="344" y="16" on="0"/>
        <pt x="330" y="41" on="1"/>
        <pt x="311" y="18" on="0"/>
        <pt x="249" y="-9" on="0"/>
        <pt x="198" y="-9" on="1"/>
        <pt x="165" y="-9" on="0"/>
        <pt x="109" y="7" on="0"/>
        <pt x="68" y="44" on="0"/>
        <pt x="45" y="105" on="0"/>
        <pt x="45" y="151" on="1"/>
        <pt x="45" y="242" on="0"/>
        <pt x="154" y="318" on="0"/>
        <pt x="257" y="318" on="1"/>
        <pt x="302" y="318" on="1"/>
        <pt x="302" y="339" on="1"/>
        <pt x="302" y="368" on="0"/>
        <pt x="273" y="399" on="0"/>
        <pt x="235" y="399" on="1"/>
        <pt x="192" y="399" on="0"/>
        <pt x="119" y="386" on="0"/>
        <pt x="81" y="375" on="1"/>
        <pt x="81" y="489" on="1"/>
        <pt x="95" y="493" on="0"/>
        <pt x="133" y="500" on="0"/>
        <pt x="174" y="506" on="0"/>
        <pt x="217" y="509" on="0"/>
        <pt x="235" y="509" on="1"/>
        <pt x="299" y="509" on="0"/>
        <pt x="377" y="488" on="0"/>
        <pt x="420" y="444" on="0"/>
        <pt x="435" y="376" on="0"/>
        <pt x="435" y="330" on="1"/>
        <pt x="435" y="132" on="1"/>
        <pt x="435" y="117" on="0"/>
        <pt x="451" y="100" on="0"/>
        <pt x="474" y="100" on="1"/>
        <pt x="474" y="0" on="1"/>
      </contour>
      <contour>
        <pt x="236" y="103" on="1"/>
        <pt x="257" y="103" on="0"/>
        <pt x="282" y="118" on="0"/>
        <pt x="297" y="140" on="0"/>
        <pt x="302" y="165" on="0"/>
        <pt x="302" y="175" on="1"/>
        <pt x="302" y="220" on="1"/>
        <pt x="252" y="220" on="1"/>
        <pt x="220" y="220" on="0"/>
        <pt x="180" y="192" on="0"/>
        <pt x="180" y="158" on="1"/>
        <pt x="180" y="135" on="0"/>
        <pt x="205" y="103" on="0"/>
      </contour>
      <contour>
        <pt x="293" y="560" on="1"/>
        <pt x="293" y="675" on="1"/>
        <pt x="423" y="675" on="1"/>
        <pt x="423" y="560" on="1"/>
      </contour>
      <contour>
        <pt x="93" y="560" on="1"/>
        <pt x="93" y="675" on="1"/>
        <pt x="223" y="675" on="1"/>
        <pt x="223" y="560" on="1"/>
      </contour>
    </TTGlyph>
    <TTGlyph name="ae" xMin="50" yMin="-9" xMax="701" yMax="509">
      <contour>
        <pt x="441" y="209" on="1"/>
        <pt x="442" y="179" on="0"/>
        <pt x="451" y="139" on="0"/>
        <pt x="471" y="115" on="0"/>
        <pt x="502" y="105" on="0"/>
        <pt x="525" y="105" on="1"/>
        <pt x="567" y="105" on="0"/>
        <pt x="642" y="115" on="0"/>
        <pt x="664" y="120" on="1"/>
        <pt x="664" y="8" on="1"/>
        <pt x="652" y="5" on="0"/>
        <pt x="616" y="-2" on="0"/>
        <pt x="576" y="-6" on="0"/>
        <pt x="539" y="-9" on="0"/>
        <pt x="525" y="-9" on="1"/>
        <pt x="463" y="-9" on="0"/>
        <pt x="379" y="15" on="0"/>
        <pt x="354" y="53" on="1"/>
        <pt x="334" y="24" on="0"/>
        <pt x="260" y="-9" on="0"/>
        <pt x="203" y="-9" on="1"/>
        <pt x="170" y="-9" on="0"/>
        <pt x="114" y="6" on="0"/>
        <pt x="73" y="42" on="0"/>
        <pt x="50" y="102" on="0"/>
        <pt x="50" y="148" on="1"/>
        <pt x="50" y="193" on="0"/>
        <pt x="78" y="254" on="0"/>
        <pt x="132" y="291" on="0"/>
        <pt x="211" y="307" on="0"/>
        <pt x="262" y="307" on="1"/>
        <pt x="307" y="307" on="1"/>
        <pt x="307" y="339" on="1"/>
        <pt x="307" y="368" on="0"/>
        <pt x="278" y="399" on="0"/>
        <pt x="240" y="399" on="1"/>
        <pt x="197" y="399" on="0"/>
        <pt x="124" y="386" on="0"/>
        <pt x="86" y="375" on="1"/>
        <pt x="86" y="489" on="1"/>
        <pt x="100" y="493" on="0"/>
        <pt x="138" y="500" on="0"/>
        <pt x="179" y="506" on="0"/>
        <pt x="222" y="509" on="0"/>
        <pt x="240" y="509" on="1"/>
        <pt x="297" y="509" on="0"/>
        <pt x="369" y="491" on="0"/>
        <pt x="390" y="474" on="1"/>
        <pt x="435" y="509" on="0"/>
        <pt x="512" y="509" on="1"/>
        <pt x="569" y="509" on="0"/>
        <pt x="642" y="479" on="0"/>
        <pt x="684" y="422" on="0"/>
        <pt x="701" y="338" on="0"/>
        <pt x="701" y="285" on="1"/>
        <pt x="701" y="209" on="1"/>
      </contour>
      <contour>
        <pt x="241" y="103" on="1"/>
        <pt x="262" y="103" on="0"/>
        <pt x="287" y="118" on="0"/>
        <pt x="302" y="140" on="0"/>
        <pt x="307" y="165" on="0"/>
        <pt x="307" y="175" on="1"/>
        <pt x="307" y="209" on="1"/>
        <pt x="257" y="209" on="1"/>
        <pt x="225" y="209" on="0"/>
        <pt x="185" y="186" on="0"/>
        <pt x="185" y="155" on="1"/>
        <pt x="185" y="132" on="0"/>
        <pt x="210" y="103" on="0"/>
      </contour>
      <contour>
        <pt x="510" y="399" on="1"/>
        <pt x="480" y="399" on="0"/>
        <pt x="448" y="359" on="0"/>
        <pt x="443" y="307" on="1"/>
        <pt x="573" y="307" on="1"/>
        <pt x="573" y="325" on="1"/>
        <pt x="573" y="362" on="0"/>
        <pt x="543" y="399" on="0"/>
      </contour>
    </TTGlyph>
    <TTGlyph name="agrave" xMin="45" yMin="-9" xMax="474" yMax="715">
      <contour>
        <pt x="416" y="0" on="1"/>
        <pt x="396" y="0" on="0"/>
        <pt x="344" y="16" on="0"/>
        <pt x="330" y="41" on="1"/>
        <pt x="311" y="18" on="0"/>
        <pt x="249" y="-9" on="0"/>
        <pt x="198" y="-9" on="1"/>
        <pt x="165" y="-9" on="0"/>
        <pt x="109" y="7" on="0"/>
        <pt x="68" y="44" on="0"/>
        <pt x="45" y="105" on="0"/>
        <pt x="45" y="151" on="1"/>
        <pt x="45" y="242" on="0"/>
        <pt x="154" y="318" on="0"/>
        <pt x="257" y="318" on="1"/>
        <pt x="302" y="318" on="1"/>
        <pt x="302" y="339" on="1"/>
        <pt x="302" y="368" on="0"/>
        <pt x="273" y="399" on="0"/>
        <pt x="235" y="399" on="1"/>
        <pt x="192" y="399" on="0"/>
        <pt x="119" y="386" on="0"/>
        <pt x="81" y="375" on="1"/>
        <pt x="81" y="489" on="1"/>
        <pt x="95" y="493" on="0"/>
        <pt x="133" y="500" on="0"/>
        <pt x="174" y="506" on="0"/>
        <pt x="217" y="509" on="0"/>
        <pt x="235" y="509" on="1"/>
        <pt x="299" y="509" on="0"/>
        <pt x="377" y="488" on="0"/>
        <pt x="420" y="444" on="0"/>
        <pt x="435" y="376" on="0"/>
        <pt x="435" y="330" on="1"/>
        <pt x="435" y="132" on="1"/>
        <pt x="435" y="117" on="0"/>
        <pt x="451" y="100" on="0"/>
        <pt x="474" y="100" on="1"/>
        <pt x="474" y="0" on="1"/>
      </contour>
      <contour>
        <pt x="236" y="103" on="1"/>
        <pt x="257" y="103" on="0"/>
        <pt x="282" y="118" on="0"/>
        <pt x="297" y="140" on="0"/>
        <pt x="302" y="165" on="0"/>
        <pt x="302" y="175" on="1"/>
        <pt x="302" y="220" on="1"/>
        <pt x="252" y="220" on="1"/>
        <pt x="220" y="220" on="0"/>
        <pt x="180" y="192" on="0"/>
        <pt x="180" y="158" on="1"/>
        <pt x="180" y="135" on="0"/>
        <pt x="205" y="103" on="0"/>
      </contour>
      <contour>
        <pt x="254" y="580" on="1"/>
        <pt x="102" y="715" on="1"/>
        <pt x="261" y="715" on="1"/>
        <pt x="365" y="580" on="1"/>
      </contour>
    </TTGlyph>
    <TTGlyph name="ampersand" xMin="45" yMin="-10" xMax="500" yMax="708">
      <contour>
        <pt x="45" y="214" on="1"/>
        <pt x="45" y="291" on="0"/>
        <pt x="78" y="380" on="0"/>
        <pt x="125" y="399" on="1"/>
        <pt x="89" y="421" on="0"/>
        <pt x="58" y="487" on="0"/>
        <pt x="58" y="524" on="1"/>
        <pt x="58" y="580" on="0"/>
        <pt x="82" y="651" on="0"/>
        <pt x="128" y="692" on="0"/>
        <pt x="196" y="708" on="0"/>
        <pt x="240" y="708" on="1"/>
        <pt x="259" y="708" on="0"/>
        <pt x="304" y="705" on="0"/>
        <pt x="345" y="701" on="0"/>
        <pt x="376" y="697" on="0"/>
        <pt x="380" y="695" on="1"/>
        <pt x="380" y="582" on="1"/>
        <pt x="376" y="583" on="0"/>
        <pt x="348" y="587" on="0"/>
        <pt x="314" y="592" on="0"/>
        <pt x="279" y="595" on="0"/>
        <pt x="268" y="595" on="1"/>
        <pt x="224" y="595" on="0"/>
        <pt x="193" y="568" on="0"/>
        <pt x="193" y="530" on="1"/>
        <pt x="193" y="483" on="0"/>
        <pt x="224" y="449" on="0"/>
        <pt x="272" y="449" on="1"/>
        <pt x="500" y="449" on="1"/>
        <pt x="500" y="336" on="1"/>
        <pt x="427" y="336" on="1"/>
        <pt x="427" y="9" on="1"/>
        <pt x="387" y="1" on="0"/>
        <pt x="284" y="-10" on="0"/>
        <pt x="230" y="-10" on="1"/>
        <pt x="180" y="-10" on="0"/>
        <pt x="109" y="15" on="0"/>
        <pt x="65" y="69" on="0"/>
        <pt x="45" y="154" on="0"/>
      </contour>
      <contour>
        <pt x="257" y="336" on="1"/>
        <pt x="235" y="336" on="0"/>
        <pt x="206" y="325" on="0"/>
        <pt x="188" y="295" on="0"/>
        <pt x="181" y="244" on="0"/>
        <pt x="181" y="204" on="1"/>
        <pt x="181" y="153" on="0"/>
        <pt x="209" y="103" on="0"/>
        <pt x="247" y="103" on="1"/>
        <pt x="264" y="103" on="0"/>
        <pt x="291" y="107" on="0"/>
        <pt x="300" y="110" on="1"/>
        <pt x="300" y="336" on="1"/>
        <pt x="257" y="336" on="1"/>
      </contour>
    </TTGlyph>
    <TTGlyph name="approxequal" xMin="75" yMin="139" xMax="435" yMax="466">
      <contour>
        <pt x="75" y="431" on="1"/>
        <pt x="110" y="452" on="0"/>
        <pt x="157" y="466" on="0"/>
        <pt x="179" y="466" on="1"/>
        <pt x="199" y="466" on="0"/>
        <pt x="240" y="454" on="0"/>
        <pt x="281" y="439" on="0"/>
        <pt x="321" y="427" on="0"/>
        <pt x="340" y="427" on="1"/>
        <pt x="366" y="427" on="0"/>
        <pt x="414" y="447" on="0"/>
        <pt x="435" y="461" on="1"/>
        <pt x="435" y="343" on="1"/>
        <pt x="412" y="328" on="0"/>
        <pt x="359" y="308" on="0"/>
        <pt x="331" y="308" on="1"/>
        <pt x="310" y="308" on="0"/>
        <pt x="271" y="321" on="0"/>
        <pt x="232" y="336" on="0"/>
        <pt x="193" y="349" on="0"/>
        <pt x="172" y="349" on="1"/>
        <pt x="146" y="349" on="0"/>
        <pt x="96" y="327" on="0"/>
        <pt x="75" y="313" on="1"/>
      </contour>
      <contour>
        <pt x="75" y="262" on="1"/>
        <pt x="110" y="283" on="0"/>
        <pt x="157" y="297" on="0"/>
        <pt x="179" y="297" on="1"/>
        <pt x="199" y="297" on="0"/>
        <pt x="240" y="285" on="0"/>
        <pt x="281" y="270" on="0"/>
        <pt x="321" y="258" on="0"/>
        <pt x="340" y="258" on="1"/>
        <pt x="366" y="258" on="0"/>
        <pt x="414" y="278" on="0"/>
        <pt x="435" y="292" on="1"/>
        <pt x="435" y="174" on="1"/>
        <pt x="412" y="159" on="0"/>
        <pt x="359" y="139" on="0"/>
        <pt x="331" y="139" on="1"/>
        <pt x="310" y="139" on="0"/>
        <pt x="271" y="152" on="0"/>
        <pt x="232" y="167" on="0"/>
        <pt x="193" y="180" on="0"/>
        <pt x="172" y="180" on="1"/>
        <pt x="146" y="180" on="0"/>
        <pt x="96" y="158" on="0"/>
        <pt x="75" y="144" on="1"/>
      </contour>
    </TTGlyph>
    <TTGlyph name="aring" xMin="45" yMin="-9" xMax="474" yMax="767">
      <contour>
        <pt x="279" y="646" on="1"/>
        <pt x="279" y="671" on="0"/>
        <pt x="269" y="695" on="0"/>
        <pt x="251" y="695" on="1"/>
        <pt x="233" y="695" on="0"/>
        <pt x="223" y="671" on="0"/>
        <pt x="223" y="646" on="1"/>
        <pt x="223" y="621" on="0"/>
        <pt x="233" y="597" on="0"/>
        <pt x="251" y="597" on="1"/>
        <pt x="268" y="597" on="0"/>
        <pt x="279" y="621" on="0"/>
      </contour>
      <contour>
        <pt x="367" y="645" on="1"/>
        <pt x="367" y="587" on="0"/>
        <pt x="312" y="523" on="0"/>
        <pt x="251" y="523" on="1"/>
        <pt x="190" y="523" on="0"/>
        <pt x="135" y="587" on="0"/>
        <pt x="135" y="645" on="1"/>
        <pt x="135" y="703" on="0"/>
        <pt x="191" y="767" on="0"/>
        <pt x="251" y="767" on="1"/>
        <pt x="311" y="767" on="0"/>
        <pt x="367" y="703" on="0"/>
      </contour>
      <contour>
        <pt x="416" y="0" on="1"/>
        <pt x="396" y="0" on="0"/>
        <pt x="344" y="16" on="0"/>
        <pt x="330" y="41" on="1"/>
        <pt x="311" y="18" on="0"/>
        <pt x="249" y="-9" on="0"/>
        <pt x="198" y="-9" on="1"/>
        <pt x="165" y="-9" on="0"/>
        <pt x="109" y="7" on="0"/>
        <pt x="68" y="44" on="0"/>
        <pt x="45" y="105" on="0"/>
        <pt x="45" y="151" on="1"/>
        <pt x="45" y="242" on="0"/>
        <pt x="154" y="318" on="0"/>
        <pt x="257" y="318" on="1"/>
        <pt x="302" y="318" on="1"/>
        <pt x="302" y="339" on="1"/>
        <pt x="302" y="368" on="0"/>
        <pt x="273" y="399" on="0"/>
        <pt x="235" y="399" on="1"/>
        <pt x="192" y="399" on="0"/>
        <pt x="119" y="386" on="0"/>
        <pt x="81" y="375" on="1"/>
        <pt x="81" y="489" on="1"/>
        <pt x="95" y="493" on="0"/>
        <pt x="133" y="500" on="0"/>
        <pt x="174" y="506" on="0"/>
        <pt x="217" y="509" on="0"/>
        <pt x="235" y="509" on="1"/>
        <pt x="299" y="509" on="0"/>
        <pt x="377" y="488" on="0"/>
        <pt x="420" y="444" on="0"/>
        <pt x="435" y="376" on="0"/>
        <pt x="435" y="330" on="1"/>
        <pt x="435" y="132" on="1"/>
        <pt x="435" y="117" on="0"/>
        <pt x="451" y="100" on="0"/>
        <pt x="474" y="100" on="1"/>
        <pt x="474" y="0" on="1"/>
      </contour>
      <contour>
        <pt x="236" y="103" on="1"/>
        <pt x="257" y="103" on="0"/>
        <pt x="282" y="118" on="0"/>
        <pt x="297" y="140" on="0"/>
        <pt x="302" y="165" on="0"/>
        <pt x="302" y="175" on="1"/>
        <pt x="302" y="220" on="1"/>
        <pt x="252" y="220" on="1"/>
        <pt x="220" y="220" on="0"/>
        <pt x="180" y="192" on="0"/>
        <pt x="180" y="158" on="1"/>
        <pt x="180" y="135" on="0"/>
        <pt x="205" y="103" on="0"/>
      </contour>
    </TTGlyph>
    <TTGlyph name="asciicircum" xMin="30" yMin="420" xMax="467" yMax="760">
      <contour>
        <pt x="316" y="420" on="1"/>
        <pt x="251" y="660" on="1"/>
        <pt x="168" y="420" on="1"/>
        <pt x="30" y="420" on="1"/>
        <pt x="164" y="760" on="1"/>
        <pt x="338" y="760" on="1"/>
        <pt x="467" y="420" on="1"/>
      </contour>
    </TTGlyph>
    <TTGlyph name="asciitilde" xMin="75" yMin="231" xMax="435" yMax="389">
      <contour>
        <pt x="75" y="354" on="1"/>
        <pt x="110" y="375" on="0"/>
        <pt x="157" y="389" on="0"/>
        <pt x="179" y="389" on="1"/>
        <pt x="199" y="389" on="0"/>
        <pt x="240" y="377" on="0"/>
        <pt x="281" y="362" on="0"/>
        <pt x="321" y="350" on="0"/>
        <pt x="340" y="350" on="1"/>
        <pt x="366" y="350" on="0"/>
        <pt x="414" y="370" on="0"/>
        <pt x="435" y="384" on="1"/>
        <pt x="435" y="266" on="1"/>
        <pt x="412" y="251" on="0"/>
        <pt x="359" y="231" on="0"/>
        <pt x="331" y="231" on="1"/>
        <pt x="310" y="231" on="0"/>
        <pt x="271" y="244" on="0"/>
        <pt x="232" y="259" on="0"/>
        <pt x="193" y="272" on="0"/>
        <pt x="172" y="272" on="1"/>
        <pt x="146" y="272" on="0"/>
        <pt x="96" y="250" on="0"/>
        <pt x="75" y="236" on="1"/>
      </contour>
    </TTGlyph>
    <TTGlyph name="asterisk" xMin="40" yMin="302" xMax="485" yMax="730">
      <contour>
        <pt x="351" y="496" on="1"/>
        <pt x="374" y="468" on="0"/>
        <pt x="428" y="402" on="0"/>
        <pt x="448" y="378" on="1"/>
        <pt x="342" y="304" on="1"/>
        <pt x="262" y="441" on="1"/>
        <pt x="252" y="425" on="0"/>
        <pt x="230" y="388" on="0"/>
        <pt x="209" y="351" on="0"/>
        <pt x="189" y="316" on="0"/>
        <pt x="180" y="302" on="1"/>
        <pt x="76" y="380" on="1"/>
        <pt x="175" y="494" on="1"/>
        <pt x="141" y="502" on="0"/>
        <pt x="70" y="514" on="0"/>
        <pt x="40" y="520" on="1"/>
        <pt x="82" y="642" on="1"/>
        <pt x="212" y="585" on="1"/>
        <pt x="209" y="620" on="0"/>
        <pt x="198" y="700" on="0"/>
        <pt x="196" y="730" on="1"/>
        <pt x="330" y="730" on="1"/>
        <pt x="315" y="585" on="1"/>
        <pt x="347" y="597" on="0"/>
        <pt x="418" y="628" on="0"/>
        <pt x="447" y="639" on="1"/>
        <pt x="485" y="518" on="1"/>
      </contour>
    </TTGlyph>
    <TTGlyph name="at" xMin="75" yMin="-9" xMax="768" yMax="709">
      <contour>
        <pt x="462" y="441" on="1"/>
        <pt x="456" y="443" on="0"/>
        <pt x="430" y="446" on="0"/>
        <pt x="415" y="446" on="1"/>
        <pt x="369" y="446" on="0"/>
        <pt x="369" y="345" on="1"/>
        <pt x="369" y="288" on="0"/>
        <pt x="387" y="245" on="0"/>
        <pt x="414" y="245" on="1"/>
        <pt x="431" y="245" on="0"/>
        <pt x="451" y="258" on="0"/>
        <pt x="460" y="277" on="0"/>
        <pt x="462" y="301" on="0"/>
        <pt x="462" y="312" on="1"/>
      </contour>
      <contour>
        <pt x="768" y="401" on="1"/>
        <pt x="768" y="344" on="0"/>
        <pt x="757" y="241" on="0"/>
        <pt x="723" y="162" on="0"/>
        <pt x="658" y="116" on="0"/>
        <pt x="605" y="116" on="1"/>
        <pt x="570" y="116" on="0"/>
        <pt x="507" y="154" on="0"/>
        <pt x="494" y="201" on="1"/>
        <pt x="488" y="192" on="0"/>
        <pt x="471" y="171" on="0"/>
        <pt x="445" y="155" on="0"/>
        <pt x="408" y="144" on="0"/>
        <pt x="383" y="144" on="1"/>
        <pt x="355" y="144" on="0"/>
        <pt x="306" y="158" on="0"/>
        <pt x="270" y="199" on="0"/>
        <pt x="249" y="274" on="0"/>
        <pt x="249" y="335" on="1"/>
        <pt x="249" y="404" on="0"/>
        <pt x="280" y="486" on="0"/>
        <pt x="333" y="530" on="0"/>
        <pt x="406" y="544" on="0"/>
        <pt x="448" y="544" on="1"/>
        <pt x="459" y="544" on="0"/>
        <pt x="494" y="542" on="0"/>
        <pt x="531" y="538" on="0"/>
        <pt x="566" y="533" on="0"/>
        <pt x="577" y="530" on="1"/>
        <pt x="577" y="241" on="1"/>
        <pt x="577" y="226" on="0"/>
        <pt x="592" y="211" on="0"/>
        <pt x="603" y="211" on="1"/>
        <pt x="615" y="211" on="0"/>
        <pt x="629" y="220" on="0"/>
        <pt x="635" y="257" on="0"/>
        <pt x="637" y="334" on="0"/>
        <pt x="637" y="401" on="1"/>
        <pt x="637" y="469" on="0"/>
        <pt x="625" y="547" on="0"/>
        <pt x="581" y="587" on="0"/>
        <pt x="496" y="598" on="0"/>
        <pt x="423" y="598" on="1"/>
        <pt x="355" y="598" on="0"/>
        <pt x="270" y="578" on="0"/>
        <pt x="223" y="523" on="0"/>
        <pt x="206" y="424" on="0"/>
        <pt x="206" y="345" on="1"/>
        <pt x="206" y="267" on="0"/>
        <pt x="222" y="171" on="0"/>
        <pt x="267" y="119" on="0"/>
        <pt x="346" y="102" on="0"/>
        <pt x="409" y="102" on="1"/>
        <pt x="446" y="102" on="0"/>
        <pt x="520" y="107" on="0"/>
        <pt x="541" y="109" on="1"/>
        <pt x="541" y="-1" on="1"/>
        <pt x="528" y="-3" on="0"/>
        <pt x="494" y="-5" on="0"/>
        <pt x="458" y="-8" on="0"/>
        <pt x="423" y="-9" on="0"/>
        <pt x="409" y="-9" on="1"/>
        <pt x="310" y="-9" on="0"/>
        <pt x="181" y="24" on="0"/>
        <pt x="105" y="105" on="0"/>
        <pt x="75" y="242" on="0"/>
        <pt x="75" y="345" on="1"/>
        <pt x="75" y="451" on="0"/>
        <pt x="113" y="591" on="0"/>
        <pt x="196" y="675" on="0"/>
        <pt x="329" y="709" on="0"/>
        <pt x="423" y="709" on="1"/>
        <pt x="517" y="709" on="0"/>
        <pt x="648" y="684" on="0"/>
        <pt x="731" y="617" on="0"/>
        <pt x="768" y="497" on="0"/>
      </contour>
    </TTGlyph>
    <TTGlyph name="atilde" xMin="45" yMin="-9" xMax="474" yMax="720">
      <contour>
        <pt x="416" y="0" on="1"/>
        <pt x="396" y="0" on="0"/>
        <pt x="344" y="16" on="0"/>
        <pt x="330" y="41" on="1"/>
        <pt x="311" y="18" on="0"/>
        <pt x="249" y="-9" on="0"/>
        <pt x="198" y="-9" on="1"/>
        <pt x="165" y="-9" on="0"/>
        <pt x="109" y="7" on="0"/>
        <pt x="68" y="44" on="0"/>
        <pt x="45" y="105" on="0"/>
        <pt x="45" y="151" on="1"/>
        <pt x="45" y="242" on="0"/>
        <pt x="154" y="318" on="0"/>
        <pt x="257" y="318" on="1"/>
        <pt x="302" y="318" on="1"/>
        <pt x="302" y="339" on="1"/>
        <pt x="302" y="368" on="0"/>
        <pt x="273" y="399" on="0"/>
        <pt x="235" y="399" on="1"/>
        <pt x="192" y="399" on="0"/>
        <pt x="119" y="386" on="0"/>
        <pt x="81" y="375" on="1"/>
        <pt x="81" y="489" on="1"/>
        <pt x="95" y="493" on="0"/>
        <pt x="133" y="500" on="0"/>
        <pt x="174" y="506" on="0"/>
        <pt x="217" y="509" on="0"/>
        <pt x="235" y="509" on="1"/>
        <pt x="299" y="509" on="0"/>
        <pt x="377" y="488" on="0"/>
        <pt x="420" y="444" on="0"/>
        <pt x="435" y="376" on="0"/>
        <pt x="435" y="330" on="1"/>
        <pt x="435" y="132" on="1"/>
        <pt x="435" y="117" on="0"/>
        <pt x="451" y="100" on="0"/>
        <pt x="474" y="100" on="1"/>
        <pt x="474" y="0" on="1"/>
      </contour>
      <contour>
        <pt x="236" y="103" on="1"/>
        <pt x="257" y="103" on="0"/>
        <pt x="282" y="118" on="0"/>
        <pt x="297" y="140" on="0"/>
        <pt x="302" y="165" on="0"/>
        <pt x="302" y="175" on="1"/>
        <pt x="302" y="220" on="1"/>
        <pt x="252" y="220" on="1"/>
        <pt x="220" y="220" on="0"/>
        <pt x="180" y="192" on="0"/>
        <pt x="180" y="158" on="1"/>
        <pt x="180" y="135" on="0"/>
        <pt x="205" y="103" on="0"/>
      </contour>
      <contour>
        <pt x="94" y="687" on="1"/>
        <pt x="117" y="706" on="0"/>
        <pt x="170" y="720" on="0"/>
        <pt x="190" y="720" on="1"/>
        <pt x="208" y="720" on="0"/>
        <pt x="246" y="708" on="0"/>
        <pt x="284" y="693" on="0"/>
        <pt x="319" y="681" on="0"/>
        <pt x="334" y="681" on="1"/>
        <pt x="360" y="681" on="0"/>
        <pt x="404" y="700" on="0"/>
        <pt x="424" y="717" on="1"/>
        <pt x="424" y="613" on="1"/>
        <pt x="404" y="594" on="0"/>
        <pt x="354" y="580" on="0"/>
        <pt x="328" y="580" on="1"/>
        <pt x="309" y="580" on="0"/>
        <pt x="272" y="592" on="0"/>
        <pt x="235" y="607" on="0"/>
        <pt x="200" y="619" on="0"/>
        <pt x="184" y="619" on="1"/>
        <pt x="158" y="619" on="0"/>
        <pt x="110" y="597" on="0"/>
        <pt x="94" y="583" on="1"/>
      </contour>
    </TTGlyph>
    <TTGlyph name="b" xMin="65" yMin="-9" xMax="467" yMax="700">
      <contour>
        <pt x="467" y="282" on="1"/>
        <pt x="467" y="200" on="0"/>
        <pt x="442" y="88" on="0"/>
        <pt x="387" y="20" on="0"/>
        <pt x="296" y="-9" on="0"/>
        <pt x="230" y="-9" on="1"/>
        <pt x="176" y="-9" on="0"/>
        <pt x="93" y="1" on="0"/>
        <pt x="65" y="5" on="1"/>
        <pt x="65" y="700" on="1"/>
        <pt x="198" y="700" on="1"/>
        <pt x="198" y="474" on="1"/>
        <pt x="219" y="490" on="0"/>
        <pt x="272" y="509" on="0"/>
        <pt x="304" y="509" on="1"/>
        <pt x="345" y="509" on="0"/>
        <pt x="407" y="486" on="0"/>
        <pt x="447" y="434" on="0"/>
        <pt x="467" y="347" on="0"/>
      </contour>
      <contour>
        <pt x="269" y="395" on="1"/>
        <pt x="236" y="395" on="0"/>
        <pt x="198" y="347" on="0"/>
        <pt x="198" y="320" on="1"/>
        <pt x="198" y="107" on="1"/>
        <pt x="209" y="106" on="0"/>
        <pt x="229" y="105" on="0"/>
        <pt x="239" y="105" on="1"/>
        <pt x="267" y="105" on="0"/>
        <pt x="303" y="118" on="0"/>
        <pt x="324" y="155" on="0"/>
        <pt x="332" y="220" on="0"/>
        <pt x="332" y="272" on="1"/>
        <pt x="332" y="310" on="0"/>
        <pt x="326" y="358" on="0"/>
        <pt x="311" y="385" on="0"/>
        <pt x="287" y="395" on="0"/>
      </contour>
    </TTGlyph>
    <TTGlyph name="backslash" xMin="-20" yMin="-110" xMax="345" yMax="810">
      <contour>
        <pt x="-20" y="810" on="1"/>
        <pt x="109" y="810" on="1"/>
        <pt x="345" y="-110" on="1"/>
        <pt x="216" y="-110" on="1"/>
      </contour>
    </TTGlyph>
    <TTGlyph name="bar" xMin="90" yMin="-110" xMax="220" yMax="810">
      <contour>
        <pt x="90" y="-110" on="1"/>
        <pt x="90" y="810" on="1"/>
        <pt x="220" y="810" on="1"/>
        <pt x="220" y="-110" on="1"/>
      </contour>
    </TTGlyph>
    <TTGlyph name="braceleft" xMin="30" yMin="-127" xMax="300" yMax="827">
      <contour>
        <pt x="139" y="350" on="1"/>
        <pt x="156" y="347" on="0"/>
        <pt x="190" y="329" on="0"/>
        <pt x="217" y="297" on="0"/>
        <pt x="234" y="249" on="0"/>
        <pt x="234" y="216" on="1"/>
        <pt x="234" y="20" on="1"/>
        <pt x="234" y="-17" on="0"/>
        <pt x="272" y="-17" on="1"/>
        <pt x="280" y="-17" on="0"/>
        <pt x="295" y="-15" on="0"/>
        <pt x="300" y="-14" on="1"/>
        <pt x="300" y="-122" on="1"/>
        <pt x="292" y="-124" on="0"/>
        <pt x="255" y="-127" on="0"/>
        <pt x="245" y="-127" on="1"/>
        <pt x="215" y="-127" on="0"/>
        <pt x="165" y="-109" on="0"/>
        <pt x="127" y="-72" on="0"/>
        <pt x="106" y="-12" on="0"/>
        <pt x="106" y="30" on="1"/>
        <pt x="106" y="196" on="1"/>
        <pt x="106" y="219" on="0"/>
        <pt x="93" y="251" on="0"/>
        <pt x="71" y="271" on="0"/>
        <pt x="44" y="280" on="0"/>
        <pt x="30" y="280" on="1"/>
        <pt x="30" y="420" on="1"/>
        <pt x="58" y="420" on="0"/>
        <pt x="106" y="458" on="0"/>
        <pt x="106" y="504" on="1"/>
        <pt x="106" y="670" on="1"/>
        <pt x="106" y="712" on="0"/>
        <pt x="127" y="772" on="0"/>
        <pt x="165" y="809" on="0"/>
        <pt x="215" y="827" on="0"/>
        <pt x="245" y="827" on="1"/>
        <pt x="255" y="827" on="0"/>
        <pt x="292" y="824" on="0"/>
        <pt x="300" y="822" on="1"/>
        <pt x="300" y="714" on="1"/>
        <pt x="295" y="715" on="0"/>
        <pt x="280" y="717" on="0"/>
        <pt x="272" y="717" on="1"/>
        <pt x="234" y="717" on="0"/>
        <pt x="234" y="680" on="1"/>
        <pt x="234" y="484" on="1"/>
        <pt x="234" y="451" on="0"/>
        <pt x="217" y="403" on="0"/>
        <pt x="190" y="371" on="0"/>
        <pt x="156" y="353" on="0"/>
      </contour>
    </TTGlyph>
    <TTGlyph name="braceright" xMin="45" yMin="-127" xMax="315" yMax="827">
      <contour>
        <pt x="206" y="350" on="1"/>
        <pt x="189" y="353" on="0"/>
        <pt x="155" y="371" on="0"/>
        <pt x="128" y="403" on="0"/>
        <pt x="111" y="451" on="0"/>
        <pt x="111" y="484" on="1"/>
        <pt x="111" y="680" on="1"/>
        <pt x="111" y="717" on="0"/>
        <pt x="73" y="717" on="1"/>
        <pt x="65" y="717" on="0"/>
        <pt x="50" y="715" on="0"/>
        <pt x="45" y="714" on="1"/>
        <pt x="45" y="822" on="1"/>
        <pt x="53" y="824" on="0"/>
        <pt x="90" y="827" on="0"/>
        <pt x="100" y="827" on="1"/>
        <pt x="130" y="827" on="0"/>
        <pt x="180" y="809" on="0"/>
        <pt x="218" y="772" on="0"/>
        <pt x="239" y="712" on="0"/>
        <pt x="239" y="670" on="1"/>
        <pt x="239" y="504" on="1"/>
        <pt x="239" y="458" on="0"/>
        <pt x="287" y="420" on="0"/>
        <pt x="315" y="420" on="1"/>
        <pt x="315" y="280" on="1"/>
        <pt x="301" y="280" on="0"/>
        <pt x="274" y="271" on="0"/>
        <pt x="252" y="251" on="0"/>
        <pt x="239" y="219" on="0"/>
        <pt x="239" y="196" on="1"/>
        <pt x="239" y="30" on="1"/>
        <pt x="239" y="-12" on="0"/>
        <pt x="218" y="-72" on="0"/>
        <pt x="180" y="-109" on="0"/>
        <pt x="130" y="-127" on="0"/>
        <pt x="100" y="-127" on="1"/>
        <pt x="90" y="-127" on="0"/>
        <pt x="53" y="-124" on="0"/>
        <pt x="45" y="-122" on="1"/>
        <pt x="45" y="-14" on="1"/>
        <pt x="50" y="-15" on="0"/>
        <pt x="65" y="-17" on="0"/>
        <pt x="73" y="-17" on="1"/>
        <pt x="111" y="-17" on="0"/>
        <pt x="111" y="20" on="1"/>
        <pt x="111" y="216" on="1"/>
        <pt x="111" y="249" on="0"/>
        <pt x="128" y="297" on="0"/>
        <pt x="155" y="329" on="0"/>
        <pt x="189" y="347" on="0"/>
      </contour>
    </TTGlyph>
    <TTGlyph name="bracketleft" xMin="70" yMin="-120" xMax="290" yMax="820">
      <contour>
        <pt x="70" y="-120" on="1"/>
        <pt x="70" y="820" on="1"/>
        <pt x="290" y="820" on="1"/>
        <pt x="290" y="705" on="1"/>
        <pt x="200" y="705" on="1"/>
        <pt x="200" y="0" on="1"/>
        <pt x="290" y="0" on="1"/>
        <pt x="290" y="-120" on="1"/>
      </contour>
    </TTGlyph>
    <TTGlyph name="bracketright" xMin="40" yMin="-120" xMax="260" yMax="820">
      <contour>
        <pt x="40" y="-120" on="1"/>
        <pt x="40" y="0" on="1"/>
        <pt x="130" y="0" on="1"/>
        <pt x="130" y="705" on="1"/>
        <pt x="40" y="705" on="1"/>
        <pt x="40" y="820" on="1"/>
        <pt x="260" y="820" on="1"/>
        <pt x="260" y="-120" on="1"/>
      </contour>
    </TTGlyph>
    <TTGlyph name="breve" xMin="25" yMin="571" xMax="349" yMax="716">
      <contour>
        <pt x="142" y="716" on="1"/>
        <pt x="144" y="692" on="0"/>
        <pt x="167" y="665" on="0"/>
        <pt x="187" y="665" on="1"/>
        <pt x="207" y="665" on="0"/>
        <pt x="231" y="693" on="0"/>
        <pt x="232" y="716" on="1"/>
        <pt x="349" y="716" on="1"/>
        <pt x="348" y="695" on="0"/>
        <pt x="330" y="645" on="0"/>
        <pt x="292" y="601" on="0"/>
        <pt x="230" y="571" on="0"/>
        <pt x="185" y="571" on="1"/>
        <pt x="140" y="571" on="0"/>
        <pt x="79" y="601" on="0"/>
        <pt x="42" y="645" on="0"/>
        <pt x="26" y="695" on="0"/>
        <pt x="25" y="716" on="1"/>
      </contour>
    </TTGlyph>
    <TTGlyph name="brokenbar" xMin="90" yMin="-110" xMax="220" yMax="810">
      <contour>
        <pt x="90" y="-110" on="1"/>
        <pt x="90" y="250" on="1"/>
        <pt x="220" y="250" on="1"/>
        <pt x="220" y="-110" on="1"/>
      </contour>
      <contour>
        <pt x="90" y="450" on="1"/>
        <pt x="90" y="810" on="1"/>
        <pt x="220" y="810" on="1"/>
        <pt x="220" y="450" on="1"/>
      </contour>
    </TTGlyph>
    <TTGlyph name="bullet" xMin="50" yMin="215" xMax="255" yMax="410">
      <contour>
        <pt x="50" y="215" on="1"/>
        <pt x="50" y="410" on="1"/>
        <pt x="255" y="410" on="1"/>
        <pt x="255" y="215" on="1"/>
      </contour>
    </TTGlyph>
    <TTGlyph name="c" xMin="50" yMin="-9" xMax="367" yMax="509">
      <contour>
        <pt x="367" y="6" on="1"/>
        <pt x="343" y="-1" on="0"/>
        <pt x="279" y="-9" on="0"/>
        <pt x="252" y="-9" on="1"/>
        <pt x="203" y="-9" on="0"/>
        <pt x="128" y="11" on="0"/>
        <pt x="77" y="69" on="0"/>
        <pt x="50" y="174" on="0"/>
        <pt x="50" y="260" on="1"/>
        <pt x="50" y="394" on="0"/>
        <pt x="155" y="509" on="0"/>
        <pt x="253" y="509" on="1"/>
        <pt x="278" y="509" on="0"/>
        <pt x="345" y="500" on="0"/>
        <pt x="367" y="495" on="1"/>
        <pt x="367" y="378" on="1"/>
        <pt x="353" y="381" on="0"/>
        <pt x="330" y="386" on="0"/>
        <pt x="306" y="390" on="0"/>
        <pt x="278" y="392" on="0"/>
        <pt x="259" y="392" on="1"/>
        <pt x="242" y="392" on="0"/>
        <pt x="215" y="380" on="0"/>
        <pt x="197" y="347" on="0"/>
        <pt x="187" y="288" on="0"/>
        <pt x="187" y="240" on="1"/>
        <pt x="187" y="165" on="0"/>
        <pt x="222" y="108" on="0"/>
        <pt x="257" y="108" on="1"/>
        <pt x="295" y="108" on="0"/>
        <pt x="345" y="118" on="0"/>
        <pt x="367" y="122" on="1"/>
      </contour>
    </TTGlyph>
    <TTGlyph name="caron" xMin="20" yMin="581" xMax="413" yMax="716">
      <contour>
        <pt x="167" y="716" on="1"/>
        <pt x="217" y="642" on="1"/>
        <pt x="267" y="716" on="1"/>
        <pt x="413" y="716" on="1"/>
        <pt x="291" y="581" on="1"/>
        <pt x="143" y="581" on="1"/>
        <pt x="20" y="716" on="1"/>
      </contour>
    </TTGlyph>
    <TTGlyph name="ccedilla" xMin="50" yMin="-222" xMax="367" yMax="509">
      <contour>
        <pt x="161" y="-127" on="1"/>
        <pt x="175" y="-129" on="0"/>
        <pt x="204" y="-132" on="0"/>
        <pt x="215" y="-132" on="1"/>
        <pt x="238" y="-132" on="0"/>
        <pt x="255" y="-123" on="0"/>
        <pt x="255" y="-109" on="1"/>
        <pt x="255" y="-96" on="0"/>
        <pt x="221" y="-86" on="0"/>
        <pt x="172" y="-86" on="1"/>
        <pt x="185" y="-4" on="1"/>
        <pt x="152" y="2" on="0"/>
        <pt x="102" y="33" on="0"/>
        <pt x="67" y="94" on="0"/>
        <pt x="50" y="190" on="0"/>
        <pt x="50" y="260" on="1"/>
        <pt x="50" y="394" on="0"/>
        <pt x="155" y="509" on="0"/>
        <pt x="253" y="509" on="1"/>
        <pt x="278" y="509" on="0"/>
        <pt x="345" y="500" on="0"/>
        <pt x="367" y="495" on="1"/>
        <pt x="367" y="378" on="1"/>
        <pt x="353" y="381" on="0"/>
        <pt x="330" y="386" on="0"/>
        <pt x="306" y="390" on="0"/>
        <pt x="278" y="392" on="0"/>
        <pt x="259" y="392" on="1"/>
        <pt x="242" y="392" on="0"/>
        <pt x="215" y="380" on="0"/>
        <pt x="197" y="347" on="0"/>
        <pt x="187" y="288" on="0"/>
        <pt x="187" y="240" on="1"/>
        <pt x="187" y="165" on="0"/>
        <pt x="222" y="108" on="0"/>
        <pt x="257" y="108" on="1"/>
        <pt x="295" y="108" on="0"/>
        <pt x="345" y="118" on="0"/>
        <pt x="367" y="122" on="1"/>
        <pt x="367" y="6" on="1"/>
        <pt x="349" y="1" on="0"/>
        <pt x="304" y="-6" on="0"/>
        <pt x="281" y="-8" on="1"/>
        <pt x="279" y="-19" on="1"/>
        <pt x="324" y="-24" on="0"/>
        <pt x="365" y="-76" on="0"/>
        <pt x="365" y="-113" on="1"/>
        <pt x="365" y="-137" on="0"/>
        <pt x="352" y="-177" on="0"/>
        <pt x="322" y="-206" on="0"/>
        <pt x="273" y="-222" on="0"/>
        <pt x="237" y="-222" on="1"/>
        <pt x="220" y="-222" on="0"/>
        <pt x="175" y="-217" on="0"/>
        <pt x="161" y="-214" on="1"/>
      </contour>
    </TTGlyph>
    <TTGlyph name="cedilla" xMin="65" yMin="-222" xMax="269" yMax="50">
      <contour>
        <pt x="65" y="-127" on="1"/>
        <pt x="79" y="-129" on="0"/>
        <pt x="108" y="-132" on="0"/>
        <pt x="119" y="-132" on="1"/>
        <pt x="142" y="-132" on="0"/>
        <pt x="159" y="-123" on="0"/>
        <pt x="159" y="-109" on="1"/>
        <pt x="159" y="-96" on="0"/>
        <pt x="125" y="-86" on="0"/>
        <pt x="76" y="-86" on="1"/>
        <pt x="98" y="50" on="1"/>
        <pt x="194" y="50" on="1"/>
        <pt x="183" y="-19" on="1"/>
        <pt x="228" y="-24" on="0"/>
        <pt x="269" y="-76" on="0"/>
        <pt x="269" y="-113" on="1"/>
        <pt x="269" y="-137" on="0"/>
        <pt x="256" y="-177" on="0"/>
        <pt x="226" y="-206" on="0"/>
        <pt x="177" y="-222" on="0"/>
        <pt x="141" y="-222" on="1"/>
        <pt x="124" y="-222" on="0"/>
        <pt x="79" y="-217" on="0"/>
        <pt x="65" y="-214" on="1"/>
      </contour>
    </TTGlyph>
    <TTGlyph name="cent" xMin="74" yMin="-110" xMax="391" yMax="600">
      <contour>
        <pt x="217" y="-110" on="1"/>
        <pt x="217" y="-6" on="1"/>
        <pt x="182" y="-1" on="0"/>
        <pt x="129" y="29" on="0"/>
        <pt x="93" y="90" on="0"/>
        <pt x="74" y="187" on="0"/>
        <pt x="74" y="259" on="1"/>
        <pt x="74" y="371" on="0"/>
        <pt x="147" y="487" on="0"/>
        <pt x="217" y="502" on="1"/>
        <pt x="217" y="600" on="1"/>
        <pt x="342" y="600" on="1"/>
        <pt x="342" y="503" on="1"/>
        <pt x="356" y="501" on="0"/>
        <pt x="381" y="496" on="0"/>
        <pt x="391" y="494" on="1"/>
        <pt x="391" y="377" on="1"/>
        <pt x="377" y="380" on="0"/>
        <pt x="354" y="385" on="0"/>
        <pt x="330" y="389" on="0"/>
        <pt x="302" y="391" on="0"/>
        <pt x="283" y="391" on="1"/>
        <pt x="266" y="391" on="0"/>
        <pt x="239" y="379" on="0"/>
        <pt x="221" y="346" on="0"/>
        <pt x="211" y="287" on="0"/>
        <pt x="211" y="239" on="1"/>
        <pt x="211" y="164" on="0"/>
        <pt x="246" y="107" on="0"/>
        <pt x="281" y="107" on="1"/>
        <pt x="319" y="107" on="0"/>
        <pt x="369" y="117" on="0"/>
        <pt x="391" y="121" on="1"/>
        <pt x="391" y="5" on="1"/>
        <pt x="380" y="2" on="0"/>
        <pt x="356" y="-3" on="0"/>
        <pt x="342" y="-5" on="1"/>
        <pt x="342" y="-110" on="1"/>
      </contour>
    </TTGlyph>
    <TTGlyph name="circumflex" xMin="20" yMin="580" xMax="413" yMax="715">
      <contour>
        <pt x="266" y="580" on="1"/>
        <pt x="216" y="654" on="1"/>
        <pt x="166" y="580" on="1"/>
        <pt x="20" y="580" on="1"/>
        <pt x="142" y="715" on="1"/>
        <pt x="290" y="715" on="1"/>
        <pt x="413" y="580" on="1"/>
      </contour>
    </TTGlyph>
    <TTGlyph name="colon" xMin="50" yMin="0" xMax="200" yMax="500">
      <contour>
        <pt x="50" y="0" on="1"/>
        <pt x="50" y="130" on="1"/>
        <pt x="200" y="130" on="1"/>
        <pt x="200" y="0" on="1"/>
      </contour>
      <contour>
        <pt x="50" y="370" on="1"/>
        <pt x="50" y="500" on="1"/>
        <pt x="200" y="500" on="1"/>
        <pt x="200" y="370" on="1"/>
      </contour>
    </TTGlyph>
    <TTGlyph name="comma" xMin="10" yMin="-150" xMax="200" yMax="130">
      <contour>
        <pt x="108" y="-150" on="1"/>
        <pt x="10" y="-150" on="1"/>
        <pt x="50" y="0" on="1"/>
        <pt x="50" y="130" on="1"/>
        <pt x="200" y="130" on="1"/>
        <pt x="200" y="0" on="1"/>
      </contour>
    </TTGlyph>
    <TTGlyph name="copyright" xMin="70" yMin="-9" xMax="740" yMax="709">
      <contour>
        <pt x="489" y="162" on="1"/>
        <pt x="485" y="161" on="0"/>
        <pt x="465" y="158" on="0"/>
        <pt x="442" y="156" on="0"/>
        <pt x="420" y="154" on="0"/>
        <pt x="413" y="154" on="1"/>
        <pt x="381" y="154" on="0"/>
        <pt x="336" y="171" on="0"/>
        <pt x="307" y="216" on="0"/>
        <pt x="294" y="295" on="0"/>
        <pt x="294" y="356" on="1"/>
        <pt x="294" y="417" on="0"/>
        <pt x="308" y="491" on="0"/>
        <pt x="339" y="532" on="0"/>
        <pt x="386" y="546" on="0"/>
        <pt x="419" y="546" on="1"/>
        <pt x="425" y="546" on="0"/>
        <pt x="445" y="544" on="0"/>
        <pt x="466" y="542" on="0"/>
        <pt x="485" y="539" on="0"/>
        <pt x="489" y="538" on="1"/>
        <pt x="489" y="465" on="1"/>
        <pt x="475" y="468" on="0"/>
        <pt x="447" y="471" on="0"/>
        <pt x="436" y="471" on="1"/>
        <pt x="420" y="471" on="0"/>
        <pt x="399" y="466" on="0"/>
        <pt x="387" y="444" on="0"/>
        <pt x="383" y="396" on="0"/>
        <pt x="383" y="352" on="1"/>
        <pt x="383" y="307" on="0"/>
        <pt x="388" y="258" on="0"/>
        <pt x="400" y="234" on="0"/>
        <pt x="421" y="229" on="0"/>
        <pt x="437" y="229" on="1"/>
        <pt x="450" y="229" on="0"/>
        <pt x="478" y="233" on="0"/>
        <pt x="489" y="235" on="1"/>
      </contour>
      <contour>
        <pt x="740" y="350" on="1"/>
        <pt x="740" y="267" on="0"/>
        <pt x="708" y="134" on="0"/>
        <pt x="632" y="41" on="0"/>
        <pt x="505" y="-9" on="0"/>
        <pt x="410" y="-9" on="1"/>
        <pt x="315" y="-9" on="0"/>
        <pt x="185" y="40" on="0"/>
        <pt x="105" y="132" on="0"/>
        <pt x="70" y="265" on="0"/>
        <pt x="70" y="350" on="1"/>
        <pt x="70" y="433" on="0"/>
        <pt x="105" y="566" on="0"/>
        <pt x="186" y="659" on="0"/>
        <pt x="316" y="709" on="0"/>
        <pt x="410" y="709" on="1"/>
        <pt x="505" y="709" on="0"/>
        <pt x="631" y="659" on="0"/>
        <pt x="708" y="565" on="0"/>
        <pt x="740" y="433" on="0"/>
      </contour>
      <contour>
        <pt x="623" y="350" on="1"/>
        <pt x="623" y="416" on="0"/>
        <pt x="610" y="514" on="0"/>
        <pt x="566" y="579" on="0"/>
        <pt x="481" y="611" on="0"/>
        <pt x="410" y="611" on="1"/>
        <pt x="339" y="611" on="0"/>
        <pt x="251" y="580" on="0"/>
        <pt x="203" y="515" on="0"/>
        <pt x="187" y="417" on="0"/>
        <pt x="187" y="350" on="1"/>
        <pt x="187" y="284" on="0"/>
        <pt x="203" y="185" on="0"/>
        <pt x="251" y="121" on="0"/>
        <pt x="339" y="89" on="0"/>
        <pt x="410" y="89" on="1"/>
        <pt x="481" y="89" on="0"/>
        <pt x="566" y="121" on="0"/>
        <pt x="610" y="186" on="0"/>
        <pt x="623" y="284" on="0"/>
      </contour>
    </TTGlyph>
    <TTGlyph name="currency" xMin="13" yMin="28" xMax="557" yMax="572">
      <contour>
        <pt x="85" y="185" on="1"/>
        <pt x="74" y="210" on="0"/>
        <pt x="65" y="268" on="0"/>
        <pt x="65" y="300" on="1"/>
        <pt x="65" y="365" on="0"/>
        <pt x="86" y="414" on="1"/>
        <pt x="13" y="487" on="1"/>
        <pt x="98" y="572" on="1"/>
        <pt x="164" y="506" on="1"/>
        <pt x="215" y="537" on="0"/>
        <pt x="285" y="537" on="1"/>
        <pt x="353" y="537" on="0"/>
        <pt x="406" y="506" on="1"/>
        <pt x="472" y="572" on="1"/>
        <pt x="557" y="487" on="1"/>
        <pt x="489" y="419" on="1"/>
        <pt x="515" y="367" on="0"/>
        <pt x="515" y="300" on="1"/>
        <pt x="515" y="234" on="0"/>
        <pt x="489" y="180" on="1"/>
        <pt x="557" y="113" on="1"/>
        <pt x="472" y="28" on="1"/>
        <pt x="407" y="92" on="1"/>
        <pt x="357" y="63" on="0"/>
        <pt x="285" y="63" on="1"/>
        <pt x="212" y="63" on="0"/>
        <pt x="162" y="92" on="1"/>
        <pt x="98" y="28" on="1"/>
        <pt x="13" y="113" on="1"/>
      </contour>
      <contour>
        <pt x="383" y="300" on="1"/>
        <pt x="383" y="356" on="0"/>
        <pt x="335" y="430" on="0"/>
        <pt x="285" y="430" on="1"/>
        <pt x="235" y="430" on="0"/>
        <pt x="187" y="356" on="0"/>
        <pt x="187" y="300" on="1"/>
        <pt x="187" y="244" on="0"/>
        <pt x="235" y="170" on="0"/>
        <pt x="285" y="170" on="1"/>
        <pt x="310" y="170" on="0"/>
        <pt x="347" y="190" on="0"/>
        <pt x="371" y="225" on="0"/>
        <pt x="383" y="272" on="0"/>
      </contour>
    </TTGlyph>
    <TTGlyph name="d" xMin="50" yMin="-9" xMax="459" yMax="700">
      <contour>
        <pt x="50" y="237" on="1"/>
        <pt x="50" y="314" on="0"/>
        <pt x="78" y="418" on="0"/>
        <pt x="136" y="482" on="0"/>
        <pt x="227" y="509" on="0"/>
        <pt x="290" y="509" on="1"/>
        <pt x="300" y="509" on="0"/>
        <pt x="318" y="508" on="0"/>
        <pt x="326" y="508" on="1"/>
        <pt x="326" y="700" on="1"/>
        <pt x="459" y="700" on="1"/>
        <pt x="459" y="0" on="1"/>
        <pt x="351" y="0" on="1"/>
        <pt x="341" y="41" on="1"/>
        <pt x="317" y="18" on="0"/>
        <pt x="255" y="-9" on="0"/>
        <pt x="216" y="-9" on="1"/>
        <pt x="174" y="-9" on="0"/>
        <pt x="112" y="14" on="0"/>
        <pt x="70" y="70" on="0"/>
        <pt x="50" y="165" on="0"/>
      </contour>
      <contour>
        <pt x="251" y="105" on="1"/>
        <pt x="268" y="105" on="0"/>
        <pt x="295" y="118" on="0"/>
        <pt x="315" y="140" on="0"/>
        <pt x="326" y="167" on="0"/>
        <pt x="326" y="180" on="1"/>
        <pt x="326" y="392" on="1"/>
        <pt x="315" y="393" on="0"/>
        <pt x="292" y="395" on="0"/>
        <pt x="281" y="395" on="1"/>
        <pt x="255" y="395" on="0"/>
        <pt x="218" y="382" on="0"/>
        <pt x="195" y="345" on="0"/>
        <pt x="185" y="280" on="0"/>
        <pt x="185" y="228" on="1"/>
        <pt x="185" y="190" on="0"/>
        <pt x="192" y="142" on="0"/>
        <pt x="208" y="115" on="0"/>
        <pt x="233" y="105" on="0"/>
      </contour>
    </TTGlyph>
    <TTGlyph name="dagger" xMin="50" yMin="0" xMax="421" yMax="700">
      <contour>
        <pt x="171" y="0" on="1"/>
        <pt x="171" y="385" on="1"/>
        <pt x="50" y="385" on="1"/>
        <pt x="50" y="500" on="1"/>
        <pt x="171" y="500" on="1"/>
        <pt x="171" y="700" on="1"/>
        <pt x="301" y="700" on="1"/>
        <pt x="301" y="500" on="1"/>
        <pt x="421" y="500" on="1"/>
        <pt x="421" y="385" on="1"/>
        <pt x="301" y="385" on="1"/>
        <pt x="301" y="0" on="1"/>
      </contour>
    </TTGlyph>
    <TTGlyph name="daggerdbl" xMin="50" yMin="0" xMax="421" yMax="700">
      <contour>
        <pt x="171" y="0" on="1"/>
        <pt x="171" y="200" on="1"/>
        <pt x="50" y="200" on="1"/>
        <pt x="50" y="315" on="1"/>
        <pt x="171" y="315" on="1"/>
        <pt x="171" y="395" on="1"/>
        <pt x="50" y="395" on="1"/>
        <pt x="50" y="510" on="1"/>
        <pt x="171" y="510" on="1"/>
        <pt x="171" y="700" on="1"/>
        <pt x="301" y="700" on="1"/>
        <pt x="301" y="510" on="1"/>
        <pt x="421" y="510" on="1"/>
        <pt x="421" y="395" on="1"/>
        <pt x="301" y="395" on="1"/>
        <pt x="301" y="315" on="1"/>
        <pt x="421" y="315" on="1"/>
        <pt x="421" y="200" on="1"/>
        <pt x="301" y="200" on="1"/>
        <pt x="301" y="0" on="1"/>
      </contour>
    </TTGlyph>
    <TTGlyph name="degree" xMin="20" yMin="370" xMax="363" yMax="707">
      <contour>
        <pt x="249" y="542" on="1"/>
        <pt x="249" y="576" on="0"/>
        <pt x="223" y="615" on="0"/>
        <pt x="191" y="615" on="1"/>
        <pt x="159" y="615" on="0"/>
        <pt x="133" y="576" on="0"/>
        <pt x="133" y="542" on="1"/>
        <pt x="133" y="508" on="0"/>
        <pt x="159" y="464" on="0"/>
        <pt x="191" y="464" on="1"/>
        <pt x="223" y="464" on="0"/>
        <pt x="249" y="508" on="0"/>
      </contour>
      <contour>
        <pt x="363" y="541" on="1"/>
        <pt x="363" y="457" on="0"/>
        <pt x="277" y="370" on="0"/>
        <pt x="191" y="370" on="1"/>
        <pt x="105" y="370" on="0"/>
        <pt x="20" y="457" on="0"/>
        <pt x="20" y="541" on="1"/>
        <pt x="20" y="707" on="0"/>
        <pt x="191" y="707" on="1"/>
        <pt x="363" y="707" on="0"/>
      </contour>
    </TTGlyph>
    <TTGlyph name="dieresis" xMin="25" yMin="560" xMax="355" yMax="675">
      <contour>
        <pt x="225" y="560" on="1"/>
        <pt x="225" y="675" on="1"/>
        <pt x="355" y="675" on="1"/>
        <pt x="355" y="560" on="1"/>
      </contour>
      <contour>
        <pt x="25" y="560" on="1"/>
        <pt x="25" y="675" on="1"/>
        <pt x="155" y="675" on="1"/>
        <pt x="155" y="560" on="1"/>
      </contour>
    </TTGlyph>
    <TTGlyph name="divide" xMin="70" yMin="45" xMax="480" yMax="560">
      <contour>
        <pt x="70" y="245" on="1"/>
        <pt x="70" y="360" on="1"/>
        <pt x="480" y="360" on="1"/>
        <pt x="480" y="245" on="1"/>
      </contour>
      <contour>
        <pt x="200" y="45" on="1"/>
        <pt x="200" y="175" on="1"/>
        <pt x="350" y="175" on="1"/>
        <pt x="350" y="45" on="1"/>
      </contour>
      <contour>
        <pt x="200" y="430" on="1"/>
        <pt x="200" y="560" on="1"/>
        <pt x="350" y="560" on="1"/>
        <pt x="350" y="430" on="1"/>
      </contour>
    </TTGlyph>
    <TTGlyph name="dollar" xMin="52" yMin="-110" xMax="418" yMax="780">
      <contour>
        <pt x="177" y="-110" on="1"/>
        <pt x="177" y="-7" on="1"/>
        <pt x="146" y="-6" on="0"/>
        <pt x="86" y="1" on="0"/>
        <pt x="63" y="7" on="1"/>
        <pt x="63" y="126" on="1"/>
        <pt x="86" y="120" on="0"/>
        <pt x="153" y="111" on="0"/>
        <pt x="182" y="111" on="1"/>
        <pt x="236" y="111" on="0"/>
        <pt x="279" y="153" on="0"/>
        <pt x="279" y="198" on="1"/>
        <pt x="279" y="280" on="0"/>
        <pt x="199" y="296" on="1"/>
        <pt x="127" y="311" on="0"/>
        <pt x="52" y="401" on="0"/>
        <pt x="52" y="482" on="1"/>
        <pt x="52" y="554" on="0"/>
        <pt x="111" y="644" on="0"/>
        <pt x="177" y="664" on="1"/>
        <pt x="177" y="780" on="1"/>
        <pt x="302" y="780" on="1"/>
        <pt x="302" y="676" on="1"/>
        <pt x="325" y="674" on="0"/>
        <pt x="378" y="667" on="0"/>
        <pt x="396" y="662" on="1"/>
        <pt x="396" y="544" on="1"/>
        <pt x="383" y="547" on="0"/>
        <pt x="351" y="552" on="0"/>
        <pt x="318" y="557" on="0"/>
        <pt x="285" y="559" on="0"/>
        <pt x="272" y="559" on="1"/>
        <pt x="235" y="559" on="0"/>
        <pt x="191" y="535" on="0"/>
        <pt x="191" y="493" on="1"/>
        <pt x="191" y="458" on="0"/>
        <pt x="222" y="417" on="0"/>
        <pt x="262" y="409" on="1"/>
        <pt x="298" y="402" on="0"/>
        <pt x="356" y="374" on="0"/>
        <pt x="396" y="327" on="0"/>
        <pt x="418" y="258" on="0"/>
        <pt x="418" y="208" on="1"/>
        <pt x="418" y="161" on="0"/>
        <pt x="402" y="92" on="0"/>
        <pt x="372" y="43" on="0"/>
        <pt x="329" y="13" on="0"/>
        <pt x="302" y="5" on="1"/>
        <pt x="302" y="-110" on="1"/>
      </contour>
    </TTGlyph>
    <TTGlyph name="dotaccent" xMin="25" yMin="585" xMax="168" yMax="700">
      <contour>
        <pt x="25" y="585" on="1"/>
        <pt x="25" y="700" on="1"/>
        <pt x="168" y="700" on="1"/>
        <pt x="168" y="585" on="1"/>
      </contour>
    </TTGlyph>
    <TTGlyph name="dotlessi" xMin="65" yMin="0" xMax="198" yMax="500">
      <contour>
        <pt x="65" y="0" on="1"/>
        <pt x="65" y="500" on="1"/>
        <pt x="198" y="500" on="1"/>
        <pt x="198" y="0" on="1"/>
      </contour>
    </TTGlyph>
    <TTGlyph name="dotmath" xMin="50" yMin="244" xMax="200" yMax="374">
      <contour>
        <pt x="50" y="244" on="1"/>
        <pt x="50" y="374" on="1"/>
        <pt x="200" y="374" on="1"/>
        <pt x="200" y="244" on="1"/>
      </contour>
    </TTGlyph>
    <TTGlyph name="e" xMin="50" yMin="-9" xMax="444" yMax="509">
      <contour>
        <pt x="185" y="201" on="1"/>
        <pt x="188" y="146" on="0"/>
        <pt x="223" y="105" on="0"/>
        <pt x="268" y="105" on="1"/>
        <pt x="310" y="105" on="0"/>
        <pt x="385" y="115" on="0"/>
        <pt x="407" y="120" on="1"/>
        <pt x="407" y="8" on="1"/>
        <pt x="395" y="5" on="0"/>
        <pt x="359" y="-2" on="0"/>
        <pt x="319" y="-6" on="0"/>
        <pt x="282" y="-9" on="0"/>
        <pt x="268" y="-9" on="1"/>
        <pt x="214" y="-9" on="0"/>
        <pt x="132" y="9" on="0"/>
        <pt x="77" y="65" on="0"/>
        <pt x="50" y="166" on="0"/>
        <pt x="50" y="250" on="1"/>
        <pt x="50" y="319" on="0"/>
        <pt x="77" y="418" on="0"/>
        <pt x="130" y="480" on="0"/>
        <pt x="206" y="509" on="0"/>
        <pt x="255" y="509" on="1"/>
        <pt x="312" y="509" on="0"/>
        <pt x="385" y="479" on="0"/>
        <pt x="427" y="422" on="0"/>
        <pt x="444" y="338" on="0"/>
        <pt x="444" y="285" on="1"/>
        <pt x="444" y="201" on="1"/>
      </contour>
      <contour>
        <pt x="253" y="399" on="1"/>
        <pt x="222" y="399" on="0"/>
        <pt x="191" y="355" on="0"/>
        <pt x="186" y="299" on="1"/>
        <pt x="316" y="299" on="1"/>
        <pt x="316" y="325" on="1"/>
        <pt x="316" y="362" on="0"/>
        <pt x="286" y="399" on="0"/>
      </contour>
    </TTGlyph>
    <TTGlyph name="eacute" xMin="50" yMin="-9" xMax="444" yMax="715">
      <contour>
        <pt x="185" y="201" on="1"/>
        <pt x="188" y="146" on="0"/>
        <pt x="223" y="105" on="0"/>
        <pt x="268" y="105" on="1"/>
        <pt x="310" y="105" on="0"/>
        <pt x="385" y="115" on="0"/>
        <pt x="407" y="120" on="1"/>
        <pt x="407" y="8" on="1"/>
        <pt x="395" y="5" on="0"/>
        <pt x="359" y="-2" on="0"/>
        <pt x="319" y="-6" on="0"/>
        <pt x="282" y="-9" on="0"/>
        <pt x="268" y="-9" on="1"/>
        <pt x="214" y="-9" on="0"/>
        <pt x="132" y="9" on="0"/>
        <pt x="77" y="65" on="0"/>
        <pt x="50" y="166" on="0"/>
        <pt x="50" y="250" on="1"/>
        <pt x="50" y="319" on="0"/>
        <pt x="77" y="418" on="0"/>
        <pt x="130" y="480" on="0"/>
        <pt x="206" y="509" on="0"/>
        <pt x="255" y="509" on="1"/>
        <pt x="312" y="509" on="0"/>
        <pt x="385" y="479" on="0"/>
        <pt x="427" y="422" on="0"/>
        <pt x="444" y="338" on="0"/>
        <pt x="444" y="285" on="1"/>
        <pt x="444" y="201" on="1"/>
      </contour>
      <contour>
        <pt x="253" y="399" on="1"/>
        <pt x="222" y="399" on="0"/>
        <pt x="191" y="355" on="0"/>
        <pt x="186" y="299" on="1"/>
        <pt x="316" y="299" on="1"/>
        <pt x="316" y="325" on="1"/>
        <pt x="316" y="362" on="0"/>
        <pt x="286" y="399" on="0"/>
      </contour>
      <contour>
        <pt x="162" y="580" on="1"/>
        <pt x="266" y="715" on="1"/>
        <pt x="425" y="715" on="1"/>
        <pt x="273" y="580" on="1"/>
      </contour>
    </TTGlyph>
    <TTGlyph name="ecircumflex" xMin="50" yMin="-9" xMax="444" yMax="715">
      <contour>
        <pt x="185" y="201" on="1"/>
        <pt x="188" y="146" on="0"/>
        <pt x="223" y="105" on="0"/>
        <pt x="268" y="105" on="1"/>
        <pt x="310" y="105" on="0"/>
        <pt x="385" y="115" on="0"/>
        <pt x="407" y="120" on="1"/>
        <pt x="407" y="8" on="1"/>
        <pt x="395" y="5" on="0"/>
        <pt x="359" y="-2" on="0"/>
        <pt x="319" y="-6" on="0"/>
        <pt x="282" y="-9" on="0"/>
        <pt x="268" y="-9" on="1"/>
        <pt x="214" y="-9" on="0"/>
        <pt x="132" y="9" on="0"/>
        <pt x="77" y="65" on="0"/>
        <pt x="50" y="166" on="0"/>
        <pt x="50" y="250" on="1"/>
        <pt x="50" y="319" on="0"/>
        <pt x="77" y="418" on="0"/>
        <pt x="130" y="480" on="0"/>
        <pt x="206" y="509" on="0"/>
        <pt x="255" y="509" on="1"/>
        <pt x="312" y="509" on="0"/>
        <pt x="385" y="479" on="0"/>
        <pt x="427" y="422" on="0"/>
        <pt x="444" y="338" on="0"/>
        <pt x="444" y="285" on="1"/>
        <pt x="444" y="201" on="1"/>
      </contour>
      <contour>
        <pt x="253" y="399" on="1"/>
        <pt x="222" y="399" on="0"/>
        <pt x="191" y="355" on="0"/>
        <pt x="186" y="299" on="1"/>
        <pt x="316" y="299" on="1"/>
        <pt x="316" y="325" on="1"/>
        <pt x="316" y="362" on="0"/>
        <pt x="286" y="399" on="0"/>
      </contour>
      <contour>
        <pt x="297" y="580" on="1"/>
        <pt x="247" y="654" on="1"/>
        <pt x="197" y="580" on="1"/>
        <pt x="51" y="580" on="1"/>
        <pt x="173" y="715" on="1"/>
        <pt x="321" y="715" on="1"/>
        <pt x="444" y="580" on="1"/>
      </contour>
    </TTGlyph>
    <TTGlyph name="edieresis" xMin="50" yMin="-9" xMax="444" yMax="675">
      <contour>
        <pt x="185" y="201" on="1"/>
        <pt x="188" y="146" on="0"/>
        <pt x="223" y="105" on="0"/>
        <pt x="268" y="105" on="1"/>
        <pt x="310" y="105" on="0"/>
        <pt x="385" y="115" on="0"/>
        <pt x="407" y="120" on="1"/>
        <pt x="407" y="8" on="1"/>
        <pt x="395" y="5" on="0"/>
        <pt x="359" y="-2" on="0"/>
        <pt x="319" y="-6" on="0"/>
        <pt x="282" y="-9" on="0"/>
        <pt x="268" y="-9" on="1"/>
        <pt x="214" y="-9" on="0"/>
        <pt x="132" y="9" on="0"/>
        <pt x="77" y="65" on="0"/>
        <pt x="50" y="166" on="0"/>
        <pt x="50" y="250" on="1"/>
        <pt x="50" y="319" on="0"/>
        <pt x="77" y="418" on="0"/>
        <pt x="130" y="480" on="0"/>
        <pt x="206" y="509" on="0"/>
        <pt x="255" y="509" on="1"/>
        <pt x="312" y="509" on="0"/>
        <pt x="385" y="479" on="0"/>
        <pt x="427" y="422" on="0"/>
        <pt x="444" y="338" on="0"/>
        <pt x="444" y="285" on="1"/>
        <pt x="444" y="201" on="1"/>
      </contour>
      <contour>
        <pt x="253" y="399" on="1"/>
        <pt x="222" y="399" on="0"/>
        <pt x="191" y="355" on="0"/>
        <pt x="186" y="299" on="1"/>
        <pt x="316" y="299" on="1"/>
        <pt x="316" y="325" on="1"/>
        <pt x="316" y="362" on="0"/>
        <pt x="286" y="399" on="0"/>
      </contour>
      <contour>
        <pt x="289" y="560" on="1"/>
        <pt x="289" y="675" on="1"/>
        <pt x="419" y="675" on="1"/>
        <pt x="419" y="560" on="1"/>
      </contour>
      <contour>
        <pt x="89" y="560" on="1"/>
        <pt x="89" y="675" on="1"/>
        <pt x="219" y="675" on="1"/>
        <pt x="219" y="560" on="1"/>
      </contour>
    </TTGlyph>
    <TTGlyph name="egrave" xMin="50" yMin="-9" xMax="444" yMax="715">
      <contour>
        <pt x="185" y="201" on="1"/>
        <pt x="188" y="146" on="0"/>
        <pt x="223" y="105" on="0"/>
        <pt x="268" y="105" on="1"/>
        <pt x="310" y="105" on="0"/>
        <pt x="385" y="115" on="0"/>
        <pt x="407" y="120" on="1"/>
        <pt x="407" y="8" on="1"/>
        <pt x="395" y="5" on="0"/>
        <pt x="359" y="-2" on="0"/>
        <pt x="319" y="-6" on="0"/>
        <pt x="282" y="-9" on="0"/>
        <pt x="268" y="-9" on="1"/>
        <pt x="214" y="-9" on="0"/>
        <pt x="132" y="9" on="0"/>
        <pt x="77" y="65" on="0"/>
        <pt x="50" y="166" on="0"/>
        <pt x="50" y="250" on="1"/>
        <pt x="50" y="319" on="0"/>
        <pt x="77" y="418" on="0"/>
        <pt x="130" y="480" on="0"/>
        <pt x="206" y="509" on="0"/>
        <pt x="255" y="509" on="1"/>
        <pt x="312" y="509" on="0"/>
        <pt x="385" y="479" on="0"/>
        <pt x="427" y="422" on="0"/>
        <pt x="444" y="338" on="0"/>
        <pt x="444" y="285" on="1"/>
        <pt x="444" y="201" on="1"/>
      </contour>
      <contour>
        <pt x="253" y="399" on="1"/>
        <pt x="222" y="399" on="0"/>
        <pt x="191" y="355" on="0"/>
        <pt x="186" y="299" on="1"/>
        <pt x="316" y="299" on="1"/>
        <pt x="316" y="325" on="1"/>
        <pt x="316" y="362" on="0"/>
        <pt x="286" y="399" on="0"/>
      </contour>
      <contour>
        <pt x="248" y="580" on="1"/>
        <pt x="96" y="715" on="1"/>
        <pt x="255" y="715" on="1"/>
        <pt x="359" y="580" on="1"/>
      </contour>
    </TTGlyph>
    <TTGlyph name="eight" xMin="27" yMin="-9" xMax="443" yMax="709">
      <contour>
        <pt x="310" y="199" on="1"/>
        <pt x="310" y="229" on="0"/>
        <pt x="304" y="272" on="0"/>
        <pt x="282" y="300" on="0"/>
        <pt x="239" y="314" on="0"/>
        <pt x="201" y="314" on="1"/>
        <pt x="189" y="306" on="0"/>
        <pt x="173" y="289" on="0"/>
        <pt x="164" y="264" on="0"/>
        <pt x="160" y="227" on="0"/>
        <pt x="160" y="199" on="1"/>
        <pt x="160" y="143" on="0"/>
        <pt x="193" y="100" on="0"/>
        <pt x="235" y="100" on="1"/>
        <pt x="277" y="100" on="0"/>
        <pt x="310" y="143" on="0"/>
      </contour>
      <contour>
        <pt x="298" y="515" on="1"/>
        <pt x="298" y="564" on="0"/>
        <pt x="274" y="602" on="0"/>
        <pt x="237" y="602" on="1"/>
        <pt x="205" y="602" on="0"/>
        <pt x="172" y="564" on="0"/>
        <pt x="172" y="515" on="1"/>
        <pt x="172" y="491" on="0"/>
        <pt x="177" y="455" on="0"/>
        <pt x="196" y="430" on="0"/>
        <pt x="233" y="417" on="0"/>
        <pt x="264" y="417" on="1"/>
        <pt x="285" y="430" on="0"/>
        <pt x="298" y="478" on="0"/>
      </contour>
      <contour>
        <pt x="443" y="209" on="1"/>
        <pt x="443" y="104" on="0"/>
        <pt x="348" y="-9" on="0"/>
        <pt x="235" y="-9" on="1"/>
        <pt x="122" y="-9" on="0"/>
        <pt x="27" y="104" on="0"/>
        <pt x="27" y="209" on="1"/>
        <pt x="27" y="243" on="0"/>
        <pt x="42" y="293" on="0"/>
        <pt x="67" y="329" on="0"/>
        <pt x="99" y="352" on="0"/>
        <pt x="116" y="358" on="1"/>
        <pt x="99" y="366" on="0"/>
        <pt x="71" y="398" on="0"/>
        <pt x="52" y="439" on="0"/>
        <pt x="41" y="485" on="0"/>
        <pt x="41" y="506" on="1"/>
        <pt x="41" y="565" on="0"/>
        <pt x="68" y="643" on="0"/>
        <pt x="119" y="690" on="0"/>
        <pt x="190" y="709" on="0"/>
        <pt x="235" y="709" on="1"/>
        <pt x="280" y="709" on="0"/>
        <pt x="351" y="690" on="0"/>
        <pt x="402" y="643" on="0"/>
        <pt x="429" y="565" on="0"/>
        <pt x="429" y="506" on="1"/>
        <pt x="429" y="490" on="0"/>
        <pt x="420" y="452" on="0"/>
        <pt x="402" y="416" on="0"/>
        <pt x="372" y="384" on="0"/>
        <pt x="351" y="374" on="1"/>
        <pt x="375" y="368" on="0"/>
        <pt x="410" y="336" on="0"/>
        <pt x="433" y="291" on="0"/>
        <pt x="443" y="237" on="0"/>
      </contour>
    </TTGlyph>
    <TTGlyph name="ellipsis" xMin="50" yMin="0" xMax="700" yMax="130">
      <contour>
        <pt x="50" y="0" on="1"/>
        <pt x="50" y="130" on="1"/>
        <pt x="200" y="130" on="1"/>
        <pt x="200" y="0" on="1"/>
      </contour>
      <contour>
        <pt x="300" y="0" on="1"/>
        <pt x="300" y="130" on="1"/>
        <pt x="450" y="130" on="1"/>
        <pt x="450" y="0" on="1"/>
      </contour>
      <contour>
        <pt x="550" y="0" on="1"/>
        <pt x="550" y="130" on="1"/>
        <pt x="700" y="130" on="1"/>
        <pt x="700" y="0" on="1"/>
      </contour>
    </TTGlyph>
    <TTGlyph name="emdash" xMin="55" yMin="245" xMax="550" yMax="360">
      <contour>
        <pt x="55" y="245" on="1"/>
        <pt x="55" y="360" on="1"/>
        <pt x="550" y="360" on="1"/>
        <pt x="550" y="245" on="1"/>
      </contour>
    </TTGlyph>
    <TTGlyph name="endash" xMin="75" yMin="245" xMax="475" yMax="360">
      <contour>
        <pt x="75" y="245" on="1"/>
        <pt x="75" y="360" on="1"/>
        <pt x="475" y="360" on="1"/>
        <pt x="475" y="245" on="1"/>
      </contour>
    </TTGlyph>
    <TTGlyph name="equal" xMin="75" yMin="145" xMax="475" yMax="460">
      <contour>
        <pt x="75" y="145" on="1"/>
        <pt x="75" y="260" on="1"/>
        <pt x="475" y="260" on="1"/>
        <pt x="475" y="145" on="1"/>
      </contour>
      <contour>
        <pt x="75" y="345" on="1"/>
        <pt x="75" y="460" on="1"/>
        <pt x="475" y="460" on="1"/>
        <pt x="475" y="345" on="1"/>
      </contour>
    </TTGlyph>
    <TTGlyph name="eth" xMin="50" yMin="-9" xMax="453" yMax="750">
      <contour>
        <pt x="50" y="210" on="1"/>
        <pt x="50" y="269" on="0"/>
        <pt x="66" y="365" on="0"/>
        <pt x="106" y="433" on="0"/>
        <pt x="173" y="469" on="0"/>
        <pt x="223" y="469" on="1"/>
        <pt x="249" y="469" on="0"/>
        <pt x="294" y="458" on="0"/>
        <pt x="314" y="448" on="1"/>
        <pt x="308" y="489" on="0"/>
        <pt x="285" y="541" on="0"/>
        <pt x="270" y="558" on="1"/>
        <pt x="247" y="516" on="1"/>
        <pt x="140" y="516" on="1"/>
        <pt x="183" y="595" on="1"/>
        <pt x="163" y="597" on="0"/>
        <pt x="120" y="597" on="0"/>
        <pt x="97" y="597" on="1"/>
        <pt x="97" y="709" on="1"/>
        <pt x="137" y="709" on="0"/>
        <pt x="209" y="706" on="0"/>
        <pt x="241" y="701" on="1"/>
        <pt x="268" y="750" on="1"/>
        <pt x="375" y="750" on="1"/>
        <pt x="333" y="673" on="1"/>
        <pt x="362" y="658" on="0"/>
        <pt x="407" y="609" on="0"/>
        <pt x="437" y="534" on="0"/>
        <pt x="453" y="430" on="0"/>
        <pt x="453" y="361" on="1"/>
        <pt x="453" y="253" on="0"/>
        <pt x="429" y="110" on="0"/>
        <pt x="376" y="26" on="0"/>
        <pt x="294" y="-9" on="0"/>
        <pt x="236" y="-9" on="1"/>
        <pt x="208" y="-9" on="0"/>
        <pt x="143" y="9" on="0"/>
        <pt x="87" y="58" on="0"/>
        <pt x="50" y="143" on="0"/>
      </contour>
      <contour>
        <pt x="247" y="361" on="1"/>
        <pt x="214" y="361" on="0"/>
        <pt x="183" y="287" on="0"/>
        <pt x="183" y="221" on="1"/>
        <pt x="183" y="184" on="0"/>
        <pt x="191" y="137" on="0"/>
        <pt x="207" y="111" on="0"/>
        <pt x="232" y="101" on="0"/>
        <pt x="249" y="101" on="1"/>
        <pt x="266" y="101" on="0"/>
        <pt x="292" y="117" on="0"/>
        <pt x="310" y="169" on="0"/>
        <pt x="320" y="265" on="0"/>
        <pt x="320" y="346" on="1"/>
        <pt x="304" y="352" on="0"/>
        <pt x="267" y="361" on="0"/>
      </contour>
    </TTGlyph>
    <TTGlyph name="exclam" xMin="60" yMin="0" xMax="210" yMax="700">
      <contour>
        <pt x="60" y="0" on="1"/>
        <pt x="60" y="130" on="1"/>
        <pt x="210" y="130" on="1"/>
        <pt x="210" y="0" on="1"/>
      </contour>
      <contour>
        <pt x="67" y="228" on="1"/>
        <pt x="67" y="700" on="1"/>
        <pt x="202" y="700" on="1"/>
        <pt x="202" y="228" on="1"/>
      </contour>
    </TTGlyph>
    <TTGlyph name="exclamdown" xMin="60" yMin="-200" xMax="210" yMax="500">
      <contour>
        <pt x="210" y="500" on="1"/>
        <pt x="210" y="370" on="1"/>
        <pt x="60" y="370" on="1"/>
        <pt x="60" y="500" on="1"/>
      </contour>
      <contour>
        <pt x="203" y="272" on="1"/>
        <pt x="203" y="-200" on="1"/>
        <pt x="68" y="-200" on="1"/>
        <pt x="68" y="272" on="1"/>
      </contour>
    </TTGlyph>
    <TTGlyph name="f" xMin="25" yMin="0" xMax="351" yMax="709">
      <contour>
        <pt x="223" y="387" on="1"/>
        <pt x="223" y="0" on="1"/>
        <pt x="90" y="0" on="1"/>
        <pt x="90" y="387" on="1"/>
        <pt x="25" y="387" on="1"/>
        <pt x="25" y="500" on="1"/>
        <pt x="90" y="500" on="1"/>
        <pt x="90" y="540" on="1"/>
        <pt x="90" y="591" on="0"/>
        <pt x="109" y="657" on="0"/>
        <pt x="147" y="695" on="0"/>
        <pt x="204" y="709" on="0"/>
        <pt x="241" y="709" on="1"/>
        <pt x="273" y="709" on="0"/>
        <pt x="336" y="700" on="0"/>
        <pt x="351" y="697" on="1"/>
        <pt x="351" y="584" on="1"/>
        <pt x="335" y="588" on="0"/>
        <pt x="293" y="595" on="0"/>
        <pt x="266" y="595" on="1"/>
        <pt x="241" y="595" on="0"/>
        <pt x="223" y="570" on="0"/>
        <pt x="223" y="549" on="1"/>
        <pt x="223" y="500" on="1"/>
        <pt x="332" y="500" on="1"/>
        <pt x="332" y="387" on="1"/>
      </contour>
    </TTGlyph>
    <TTGlyph name="fi" xMin="25" yMin="0" xMax="478" yMax="709">
      <contour>
        <pt x="345" y="0" on="1"/>
        <pt x="345" y="387" on="1"/>
        <pt x="223" y="387" on="1"/>
        <pt x="223" y="0" on="1"/>
        <pt x="90" y="0" on="1"/>
        <pt x="90" y="387" on="1"/>
        <pt x="25" y="387" on="1"/>
        <pt x="25" y="500" on="1"/>
        <pt x="90" y="500" on="1"/>
        <pt x="90" y="540" on="1"/>
        <pt x="90" y="591" on="0"/>
        <pt x="111" y="657" on="0"/>
        <pt x="154" y="695" on="0"/>
        <pt x="218" y="709" on="0"/>
        <pt x="261" y="709" on="1"/>
        <pt x="285" y="709" on="0"/>
        <pt x="336" y="706" on="0"/>
        <pt x="383" y="700" on="0"/>
        <pt x="425" y="694" on="0"/>
        <pt x="441" y="691" on="1"/>
        <pt x="441" y="578" on="1"/>
        <pt x="414" y="583" on="0"/>
        <pt x="332" y="595" on="0"/>
        <pt x="286" y="595" on="1"/>
        <pt x="248" y="595" on="0"/>
        <pt x="223" y="578" on="0"/>
        <pt x="223" y="549" on="1"/>
        <pt x="223" y="500" on="1"/>
        <pt x="478" y="500" on="1"/>
        <pt x="478" y="0" on="1"/>
      </contour>
    </TTGlyph>
    <TTGlyph name="five" xMin="60" yMin="-9" xMax="403" yMax="700">
      <contour>
        <pt x="203" y="587" on="1"/>
        <pt x="203" y="441" on="1"/>
        <pt x="208" y="441" on="1"/>
        <pt x="262" y="441" on="0"/>
        <pt x="336" y="419" on="0"/>
        <pt x="382" y="368" on="0"/>
        <pt x="403" y="285" on="0"/>
        <pt x="403" y="223" on="1"/>
        <pt x="403" y="155" on="0"/>
        <pt x="374" y="66" on="0"/>
        <pt x="322" y="13" on="0"/>
        <pt x="251" y="-9" on="0"/>
        <pt x="210" y="-9" on="1"/>
        <pt x="191" y="-9" on="0"/>
        <pt x="148" y="-5" on="0"/>
        <pt x="107" y="0" on="0"/>
        <pt x="71" y="6" on="0"/>
        <pt x="60" y="8" on="1"/>
        <pt x="60" y="120" on="1"/>
        <pt x="74" y="117" on="0"/>
        <pt x="147" y="103" on="0"/>
        <pt x="189" y="103" on="1"/>
        <pt x="231" y="103" on="0"/>
        <pt x="269" y="160" on="0"/>
        <pt x="269" y="213" on="1"/>
        <pt x="269" y="253" on="0"/>
        <pt x="258" y="301" on="0"/>
        <pt x="236" y="327" on="0"/>
        <pt x="206" y="335" on="0"/>
        <pt x="186" y="335" on="1"/>
        <pt x="70" y="335" on="1"/>
        <pt x="70" y="700" on="1"/>
        <pt x="383" y="700" on="1"/>
        <pt x="383" y="587" on="1"/>
      </contour>
    </TTGlyph>
    <TTGlyph name="fl" xMin="25" yMin="-5" xMax="545" yMax="709">
      <contour>
        <pt x="545" y="3" on="1"/>
        <pt x="534" y="1" on="0"/>
        <pt x="483" y="-5" on="0"/>
        <pt x="454" y="-5" on="1"/>
        <pt x="392" y="-5" on="0"/>
        <pt x="345" y="70" on="0"/>
        <pt x="345" y="148" on="1"/>
        <pt x="345" y="387" on="1"/>
        <pt x="223" y="387" on="1"/>
        <pt x="223" y="0" on="1"/>
        <pt x="90" y="0" on="1"/>
        <pt x="90" y="387" on="1"/>
        <pt x="25" y="387" on="1"/>
        <pt x="25" y="500" on="1"/>
        <pt x="90" y="500" on="1"/>
        <pt x="90" y="540" on="1"/>
        <pt x="90" y="591" on="0"/>
        <pt x="111" y="657" on="0"/>
        <pt x="154" y="695" on="0"/>
        <pt x="218" y="709" on="0"/>
        <pt x="261" y="709" on="1"/>
        <pt x="284" y="709" on="0"/>
        <pt x="331" y="703" on="0"/>
        <pt x="345" y="700" on="1"/>
        <pt x="478" y="700" on="1"/>
        <pt x="478" y="153" on="1"/>
        <pt x="478" y="129" on="0"/>
        <pt x="490" y="110" on="0"/>
        <pt x="509" y="110" on="1"/>
        <pt x="520" y="110" on="0"/>
        <pt x="541" y="113" on="0"/>
        <pt x="545" y="114" on="1"/>
      </contour>
      <contour>
        <pt x="223" y="500" on="1"/>
        <pt x="345" y="500" on="1"/>
        <pt x="345" y="590" on="1"/>
        <pt x="331" y="592" on="0"/>
        <pt x="301" y="595" on="0"/>
        <pt x="286" y="595" on="1"/>
        <pt x="248" y="595" on="0"/>
        <pt x="223" y="578" on="0"/>
        <pt x="223" y="549" on="1"/>
      </contour>
    </TTGlyph>
    <TTGlyph name="florin" xMin="-20" yMin="-177" xMax="351" yMax="709">
      <contour>
        <pt x="223" y="387" on="1"/>
        <pt x="223" y="-13" on="1"/>
        <pt x="223" y="-61" on="0"/>
        <pt x="205" y="-124" on="0"/>
        <pt x="167" y="-161" on="0"/>
        <pt x="107" y="-177" on="0"/>
        <pt x="65" y="-177" on="1"/>
        <pt x="41" y="-177" on="0"/>
        <pt x="0" y="-174" on="0"/>
        <pt x="-20" y="-172" on="1"/>
        <pt x="-20" y="-60" on="1"/>
        <pt x="-7" y="-62" on="0"/>
        <pt x="31" y="-63" on="0"/>
        <pt x="43" y="-63" on="1"/>
        <pt x="70" y="-63" on="0"/>
        <pt x="90" y="-44" on="0"/>
        <pt x="90" y="-18" on="1"/>
        <pt x="90" y="387" on="1"/>
        <pt x="25" y="387" on="1"/>
        <pt x="25" y="500" on="1"/>
        <pt x="90" y="500" on="1"/>
        <pt x="90" y="540" on="1"/>
        <pt x="90" y="591" on="0"/>
        <pt x="109" y="657" on="0"/>
        <pt x="147" y="695" on="0"/>
        <pt x="204" y="709" on="0"/>
        <pt x="241" y="709" on="1"/>
        <pt x="273" y="709" on="0"/>
        <pt x="336" y="700" on="0"/>
        <pt x="351" y="697" on="1"/>
        <pt x="351" y="584" on="1"/>
        <pt x="335" y="588" on="0"/>
        <pt x="293" y="595" on="0"/>
        <pt x="266" y="595" on="1"/>
        <pt x="241" y="595" on="0"/>
        <pt x="223" y="570" on="0"/>
        <pt x="223" y="549" on="1"/>
        <pt x="223" y="500" on="1"/>
        <pt x="332" y="500" on="1"/>
        <pt x="332" y="387" on="1"/>
      </contour>
    </TTGlyph>
    <TTGlyph name="four" xMin="50" yMin="0" xMax="438" yMax="700">
      <contour>
        <pt x="378" y="156" on="1"/>
        <pt x="378" y="0" on="1"/>
        <pt x="243" y="0" on="1"/>
        <pt x="243" y="156" on="1"/>
        <pt x="50" y="156" on="1"/>
        <pt x="50" y="282" on="1"/>
        <pt x="144" y="700" on="1"/>
        <pt x="273" y="700" on="1"/>
        <pt x="177" y="269" on="1"/>
        <pt x="243" y="269" on="1"/>
        <pt x="265" y="457" on="1"/>
        <pt x="378" y="457" on="1"/>
        <pt x="378" y="269" on="1"/>
        <pt x="438" y="269" on="1"/>
        <pt x="438" y="156" on="1"/>
      </contour>
    </TTGlyph>
    <TTGlyph name="fraction" xMin="-100" yMin="-100" xMax="329" yMax="810">
      <contour>
        <pt x="19" y="-100" on="1"/>
        <pt x="-100" y="-100" on="1"/>
        <pt x="210" y="810" on="1"/>
        <pt x="329" y="810" on="1"/>
      </contour>
    </TTGlyph>
    <TTGlyph name="g" xMin="45" yMin="-192" xMax="528" yMax="509">
      <contour>
        <pt x="478" y="326" on="1"/>
        <pt x="478" y="236" on="0"/>
        <pt x="366" y="155" on="0"/>
        <pt x="252" y="155" on="1"/>
        <pt x="220" y="155" on="0"/>
        <pt x="193" y="158" on="1"/>
        <pt x="187" y="146" on="0"/>
        <pt x="187" y="129" on="1"/>
        <pt x="187" y="123" on="0"/>
        <pt x="189" y="113" on="1"/>
        <pt x="221" y="116" on="0"/>
        <pt x="287" y="119" on="0"/>
        <pt x="307" y="119" on="1"/>
        <pt x="352" y="119" on="0"/>
        <pt x="422" y="103" on="0"/>
        <pt x="471" y="66" on="0"/>
        <pt x="496" y="4" on="0"/>
        <pt x="496" y="-42" on="1"/>
        <pt x="496" y="-92" on="0"/>
        <pt x="458" y="-151" on="0"/>
        <pt x="394" y="-183" on="0"/>
        <pt x="311" y="-192" on="0"/>
        <pt x="265" y="-192" on="1"/>
        <pt x="246" y="-192" on="0"/>
        <pt x="191" y="-189" on="0"/>
        <pt x="135" y="-184" on="0"/>
        <pt x="85" y="-178" on="0"/>
        <pt x="71" y="-175" on="1"/>
        <pt x="71" y="-67" on="1"/>
        <pt x="90" y="-70" on="0"/>
        <pt x="139" y="-77" on="0"/>
        <pt x="193" y="-81" on="0"/>
        <pt x="247" y="-84" on="0"/>
        <pt x="271" y="-84" on="1"/>
        <pt x="322" y="-84" on="0"/>
        <pt x="359" y="-62" on="0"/>
        <pt x="359" y="-39" on="1"/>
        <pt x="359" y="-20" on="0"/>
        <pt x="336" y="6" on="0"/>
        <pt x="298" y="6" on="1"/>
        <pt x="284" y="6" on="0"/>
        <pt x="235" y="4" on="0"/>
        <pt x="182" y="1" on="0"/>
        <pt x="132" y="-3" on="0"/>
        <pt x="117" y="-5" on="1"/>
        <pt x="102" y="9" on="0"/>
        <pt x="70" y="68" on="0"/>
        <pt x="70" y="108" on="1"/>
        <pt x="70" y="160" on="0"/>
        <pt x="96" y="195" on="1"/>
        <pt x="70" y="217" on="0"/>
        <pt x="45" y="284" on="0"/>
        <pt x="45" y="334" on="1"/>
        <pt x="45" y="392" on="0"/>
        <pt x="85" y="461" on="0"/>
        <pt x="151" y="498" on="0"/>
        <pt x="234" y="509" on="0"/>
        <pt x="277" y="509" on="1"/>
        <pt x="327" y="509" on="0"/>
        <pt x="364" y="497" on="1"/>
        <pt x="528" y="504" on="1"/>
        <pt x="528" y="402" on="1"/>
        <pt x="464" y="406" on="1"/>
        <pt x="478" y="370" on="0"/>
      </contour>
      <contour>
        <pt x="345" y="334" on="1"/>
        <pt x="345" y="372" on="0"/>
        <pt x="311" y="401" on="0"/>
        <pt x="267" y="401" on="1"/>
        <pt x="213" y="401" on="0"/>
        <pt x="178" y="367" on="0"/>
        <pt x="178" y="326" on="1"/>
        <pt x="178" y="261" on="0"/>
        <pt x="252" y="261" on="1"/>
        <pt x="274" y="261" on="0"/>
        <pt x="309" y="266" on="0"/>
        <pt x="333" y="282" on="0"/>
        <pt x="345" y="311" on="0"/>
      </contour>
    </TTGlyph>
    <TTGlyph name="germandbls" xMin="65" yMin="-9" xMax="492" yMax="709">
      <contour>
        <pt x="492" y="166" on="1"/>
        <pt x="492" y="112" on="0"/>
        <pt x="463" y="44" on="0"/>
        <pt x="414" y="5" on="0"/>
        <pt x="350" y="-9" on="0"/>
        <pt x="315" y="-9" on="1"/>
        <pt x="306" y="-9" on="0"/>
        <pt x="283" y="-8" on="0"/>
        <pt x="257" y="-5" on="0"/>
        <pt x="232" y="-2" on="0"/>
        <pt x="223" y="0" on="1"/>
        <pt x="223" y="114" on="1"/>
        <pt x="237" y="109" on="0"/>
        <pt x="278" y="103" on="0"/>
        <pt x="288" y="103" on="1"/>
        <pt x="355" y="103" on="0"/>
        <pt x="355" y="161" on="1"/>
        <pt x="355" y="191" on="0"/>
        <pt x="324" y="225" on="0"/>
        <pt x="292" y="239" on="1"/>
        <pt x="249" y="259" on="0"/>
        <pt x="211" y="317" on="0"/>
        <pt x="211" y="370" on="1"/>
        <pt x="211" y="421" on="0"/>
        <pt x="269" y="489" on="0"/>
        <pt x="319" y="496" on="1"/>
        <pt x="322" y="503" on="0"/>
        <pt x="328" y="529" on="0"/>
        <pt x="328" y="537" on="1"/>
        <pt x="328" y="564" on="0"/>
        <pt x="302" y="597" on="0"/>
        <pt x="262" y="597" on="1"/>
        <pt x="226" y="597" on="0"/>
        <pt x="199" y="556" on="0"/>
        <pt x="199" y="510" on="1"/>
        <pt x="199" y="0" on="1"/>
        <pt x="65" y="0" on="1"/>
        <pt x="65" y="503" on="1"/>
        <pt x="65" y="545" on="0"/>
        <pt x="84" y="619" on="0"/>
        <pt x="129" y="676" on="0"/>
        <pt x="205" y="709" on="0"/>
        <pt x="262" y="709" on="1"/>
        <pt x="348" y="709" on="0"/>
        <pt x="448" y="629" on="0"/>
        <pt x="448" y="557" on="1"/>
        <pt x="448" y="520" on="0"/>
        <pt x="440" y="451" on="0"/>
        <pt x="432" y="413" on="1"/>
        <pt x="379" y="413" on="0"/>
        <pt x="340" y="394" on="0"/>
        <pt x="340" y="369" on="1"/>
        <pt x="340" y="355" on="0"/>
        <pt x="358" y="342" on="0"/>
        <pt x="374" y="335" on="1"/>
        <pt x="399" y="325" on="0"/>
        <pt x="442" y="300" on="0"/>
        <pt x="474" y="261" on="0"/>
        <pt x="492" y="205" on="0"/>
      </contour>
    </TTGlyph>
    <TTGlyph name="grave" xMin="25" yMin="580" xMax="288" yMax="715">
      <contour>
        <pt x="177" y="580" on="1"/>
        <pt x="25" y="715" on="1"/>
        <pt x="184" y="715" on="1"/>
        <pt x="288" y="580" on="1"/>
      </contour>
    </TTGlyph>
    <TTGlyph name="greater" xMin="75" yMin="86" xMax="475" yMax="583">
      <contour>
        <pt x="75" y="86" on="1"/>
        <pt x="75" y="219" on="1"/>
        <pt x="374" y="336" on="1"/>
        <pt x="75" y="452" on="1"/>
        <pt x="75" y="583" on="1"/>
        <pt x="475" y="414" on="1"/>
        <pt x="475" y="251" on="1"/>
      </contour>
    </TTGlyph>
    <TTGlyph name="greaterequal" xMin="75" yMin="0" xMax="475" yMax="583">
      <contour>
        <pt x="75" y="0" on="1"/>
        <pt x="75" y="115" on="1"/>
        <pt x="475" y="115" on="1"/>
        <pt x="475" y="0" on="1"/>
      </contour>
      <contour>
        <pt x="75" y="136" on="1"/>
        <pt x="75" y="269" on="1"/>
        <pt x="364" y="349" on="1"/>
        <pt x="75" y="452" on="1"/>
        <pt x="75" y="583" on="1"/>
        <pt x="475" y="427" on="1"/>
        <pt x="475" y="264" on="1"/>
      </contour>
    </TTGlyph>
    <TTGlyph name="guillemotleft" xMin="50" yMin="92" xMax="415" yMax="506">
      <contour>
        <pt x="137" y="92" on="1"/>
        <pt x="50" y="299" on="1"/>
        <pt x="137" y="506" on="1"/>
        <pt x="245" y="506" on="1"/>
        <pt x="184" y="299" on="1"/>
        <pt x="245" y="92" on="1"/>
      </contour>
      <contour>
        <pt x="307" y="92" on="1"/>
        <pt x="220" y="299" on="1"/>
        <pt x="307" y="506" on="1"/>
        <pt x="415" y="506" on="1"/>
        <pt x="354" y="299" on="1"/>
        <pt x="415" y="92" on="1"/>
      </contour>
    </TTGlyph>
    <TTGlyph name="guillemotright" xMin="50" yMin="92" xMax="415" yMax="506">
      <contour>
        <pt x="220" y="92" on="1"/>
        <pt x="281" y="299" on="1"/>
        <pt x="220" y="506" on="1"/>
        <pt x="328" y="506" on="1"/>
        <pt x="415" y="299" on="1"/>
        <pt x="328" y="92" on="1"/>
      </contour>
      <contour>
        <pt x="50" y="92" on="1"/>
        <pt x="111" y="299" on="1"/>
        <pt x="50" y="506" on="1"/>
        <pt x="158" y="506" on="1"/>
        <pt x="245" y="299" on="1"/>
        <pt x="158" y="92" on="1"/>
      </contour>
    </TTGlyph>
    <TTGlyph name="guilsinglleft" xMin="50" yMin="92" xMax="245" yMax="506">
      <contour>
        <pt x="137" y="92" on="1"/>
        <pt x="50" y="299" on="1"/>
        <pt x="137" y="506" on="1"/>
        <pt x="245" y="506" on="1"/>
        <pt x="184" y="299" on="1"/>
        <pt x="245" y="92" on="1"/>
      </contour>
    </TTGlyph>
    <TTGlyph name="guilsinglright" xMin="50" yMin="92" xMax="245" yMax="506">
      <contour>
        <pt x="50" y="92" on="1"/>
        <pt x="111" y="299" on="1"/>
        <pt x="50" y="506" on="1"/>
        <pt x="158" y="506" on="1"/>
        <pt x="245" y="299" on="1"/>
        <pt x="158" y="92" on="1"/>
      </contour>
    </TTGlyph>
    <TTGlyph name="h" xMin="65" yMin="0" xMax="464" yMax="700">
      <contour>
        <pt x="65" y="0" on="1"/>
        <pt x="65" y="700" on="1"/>
        <pt x="198" y="700" on="1"/>
        <pt x="198" y="475" on="1"/>
        <pt x="219" y="491" on="0"/>
        <pt x="271" y="509" on="0"/>
        <pt x="302" y="509" on="1"/>
        <pt x="354" y="509" on="0"/>
        <pt x="417" y="485" on="0"/>
        <pt x="452" y="435" on="0"/>
        <pt x="464" y="361" on="0"/>
        <pt x="464" y="310" on="1"/>
        <pt x="464" y="0" on="1"/>
        <pt x="331" y="0" on="1"/>
        <pt x="331" y="313" on="1"/>
        <pt x="331" y="363" on="0"/>
        <pt x="302" y="394" on="0"/>
        <pt x="275" y="394" on="1"/>
        <pt x="237" y="394" on="0"/>
        <pt x="200" y="350" on="0"/>
        <pt x="198" y="324" on="1"/>
        <pt x="198" y="0" on="1"/>
      </contour>
    </TTGlyph>
    <TTGlyph name="hungarumlaut" xMin="25" yMin="598" xMax="493" yMax="745">
      <contour>
        <pt x="131" y="598" on="1"/>
        <pt x="25" y="598" on="1"/>
        <pt x="128" y="745" on="1"/>
        <pt x="298" y="745" on="1"/>
      </contour>
      <contour>
        <pt x="326" y="598" on="1"/>
        <pt x="220" y="598" on="1"/>
        <pt x="323" y="745" on="1"/>
        <pt x="493" y="745" on="1"/>
      </contour>
    </TTGlyph>
    <TTGlyph name="hyphen" xMin="75" yMin="245" xMax="420" yMax="360">
      <contour>
        <pt x="75" y="245" on="1"/>
        <pt x="75" y="360" on="1"/>
        <pt x="420" y="360" on="1"/>
        <pt x="420" y="245" on="1"/>
      </contour>
    </TTGlyph>
    <TTGlyph name="i" xMin="60" yMin="0" xMax="203" yMax="700">
      <contour>
        <pt x="60" y="585" on="1"/>
        <pt x="60" y="700" on="1"/>
        <pt x="203" y="700" on="1"/>
        <pt x="203" y="585" on="1"/>
      </contour>
      <contour>
        <pt x="65" y="0" on="1"/>
        <pt x="65" y="500" on="1"/>
        <pt x="198" y="500" on="1"/>
        <pt x="198" y="0" on="1"/>
      </contour>
    </TTGlyph>
    <TTGlyph name="iacute" xMin="36" yMin="0" xMax="299" yMax="715">
      <contour>
        <pt x="65" y="0" on="1"/>
        <pt x="65" y="500" on="1"/>
        <pt x="198" y="500" on="1"/>
        <pt x="198" y="0" on="1"/>
      </contour>
      <contour>
        <pt x="36" y="580" on="1"/>
        <pt x="140" y="715" on="1"/>
        <pt x="299" y="715" on="1"/>
        <pt x="147" y="580" on="1"/>
      </contour>
    </TTGlyph>
    <TTGlyph name="icircumflex" xMin="-65" yMin="0" xMax="328" yMax="715">
      <contour>
        <pt x="65" y="0" on="1"/>
        <pt x="65" y="500" on="1"/>
        <pt x="198" y="500" on="1"/>
        <pt x="198" y="0" on="1"/>
      </contour>
      <contour>
        <pt x="181" y="580" on="1"/>
        <pt x="131" y="654" on="1"/>
        <pt x="81" y="580" on="1"/>
        <pt x="-65" y="580" on="1"/>
        <pt x="57" y="715" on="1"/>
        <pt x="205" y="715" on="1"/>
        <pt x="328" y="580" on="1"/>
      </contour>
    </TTGlyph>
    <TTGlyph name="idieresis" xMin="-33" yMin="0" xMax="297" yMax="675">
      <contour>
        <pt x="65" y="0" on="1"/>
        <pt x="65" y="500" on="1"/>
        <pt x="198" y="500" on="1"/>
        <pt x="198" y="0" on="1"/>
      </contour>
      <contour>
        <pt x="167" y="560" on="1"/>
        <pt x="167" y="675" on="1"/>
        <pt x="297" y="675" on="1"/>
        <pt x="297" y="560" on="1"/>
      </contour>
      <contour>
        <pt x="-33" y="560" on="1"/>
        <pt x="-33" y="675" on="1"/>
        <pt x="97" y="675" on="1"/>
        <pt x="97" y="560" on="1"/>
      </contour>
    </TTGlyph>
    <TTGlyph name="igrave" xMin="-39" yMin="0" xMax="224" yMax="715">
      <contour>
        <pt x="65" y="0" on="1"/>
        <pt x="65" y="500" on="1"/>
        <pt x="198" y="500" on="1"/>
        <pt x="198" y="0" on="1"/>
      </contour>
      <contour>
        <pt x="113" y="580" on="1"/>
        <pt x="-39" y="715" on="1"/>
        <pt x="120" y="715" on="1"/>
        <pt x="224" y="580" on="1"/>
      </contour>
    </TTGlyph>
    <TTGlyph name="infinity" xMin="34" yMin="156" xMax="695" yMax="504">
      <contour>
        <pt x="221" y="504" on="1"/>
        <pt x="263" y="504" on="0"/>
        <pt x="333" y="473" on="0"/>
        <pt x="359" y="439" on="1"/>
        <pt x="381" y="467" on="0"/>
        <pt x="457" y="504" on="0"/>
        <pt x="508" y="504" on="1"/>
        <pt x="559" y="504" on="0"/>
        <pt x="630" y="479" on="0"/>
        <pt x="675" y="433" on="0"/>
        <pt x="695" y="369" on="0"/>
        <pt x="695" y="330" on="1"/>
        <pt x="695" y="291" on="0"/>
        <pt x="675" y="227" on="0"/>
        <pt x="630" y="181" on="0"/>
        <pt x="559" y="156" on="0"/>
        <pt x="508" y="156" on="1"/>
        <pt x="466" y="156" on="0"/>
        <pt x="395" y="187" on="0"/>
        <pt x="369" y="220" on="1"/>
        <pt x="347" y="193" on="0"/>
        <pt x="272" y="156" on="0"/>
        <pt x="221" y="156" on="1"/>
        <pt x="170" y="156" on="0"/>
        <pt x="99" y="181" on="0"/>
        <pt x="54" y="227" on="0"/>
        <pt x="34" y="291" on="0"/>
        <pt x="34" y="330" on="1"/>
        <pt x="34" y="369" on="0"/>
        <pt x="54" y="433" on="0"/>
        <pt x="99" y="479" on="0"/>
        <pt x="170" y="504" on="0"/>
      </contour>
      <contour>
        <pt x="510" y="259" on="1"/>
        <pt x="536" y="259" on="0"/>
        <pt x="576" y="294" on="0"/>
        <pt x="576" y="330" on="1"/>
        <pt x="576" y="367" on="0"/>
        <pt x="536" y="401" on="0"/>
        <pt x="510" y="401" on="1"/>
        <pt x="492" y="401" on="0"/>
        <pt x="461" y="394" on="0"/>
        <pt x="438" y="376" on="0"/>
        <pt x="425" y="344" on="0"/>
        <pt x="425" y="320" on="1"/>
        <pt x="430" y="301" on="0"/>
        <pt x="449" y="278" on="0"/>
        <pt x="473" y="264" on="0"/>
        <pt x="498" y="259" on="0"/>
      </contour>
      <contour>
        <pt x="219" y="401" on="1"/>
        <pt x="193" y="401" on="0"/>
        <pt x="153" y="366" on="0"/>
        <pt x="153" y="330" on="1"/>
        <pt x="153" y="293" on="0"/>
        <pt x="193" y="259" on="0"/>
        <pt x="219" y="259" on="1"/>
        <pt x="237" y="259" on="0"/>
        <pt x="268" y="266" on="0"/>
        <pt x="291" y="284" on="0"/>
        <pt x="304" y="316" on="0"/>
        <pt x="304" y="340" on="1"/>
        <pt x="299" y="359" on="0"/>
        <pt x="280" y="383" on="0"/>
        <pt x="256" y="396" on="0"/>
        <pt x="231" y="401" on="0"/>
      </contour>
    </TTGlyph>
    <TTGlyph name="integral" xMin="-25" yMin="-242" xMax="345" yMax="829">
      <contour>
        <pt x="345" y="704" on="1"/>
        <pt x="329" y="708" on="0"/>
        <pt x="288" y="715" on="0"/>
        <pt x="261" y="715" on="1"/>
        <pt x="236" y="715" on="0"/>
        <pt x="218" y="690" on="0"/>
        <pt x="218" y="669" on="1"/>
        <pt x="218" y="-78" on="1"/>
        <pt x="218" y="-126" on="0"/>
        <pt x="200" y="-189" on="0"/>
        <pt x="162" y="-226" on="0"/>
        <pt x="102" y="-242" on="0"/>
        <pt x="60" y="-242" on="1"/>
        <pt x="36" y="-242" on="0"/>
        <pt x="-5" y="-239" on="0"/>
        <pt x="-25" y="-237" on="1"/>
        <pt x="-25" y="-125" on="1"/>
        <pt x="-12" y="-127" on="0"/>
        <pt x="26" y="-128" on="0"/>
        <pt x="38" y="-128" on="1"/>
        <pt x="65" y="-128" on="0"/>
        <pt x="85" y="-109" on="0"/>
        <pt x="85" y="-83" on="1"/>
        <pt x="85" y="660" on="1"/>
        <pt x="85" y="711" on="0"/>
        <pt x="104" y="777" on="0"/>
        <pt x="142" y="815" on="0"/>
        <pt x="199" y="829" on="0"/>
        <pt x="236" y="829" on="1"/>
        <pt x="268" y="829" on="0"/>
        <pt x="330" y="820" on="0"/>
        <pt x="345" y="817" on="1"/>
      </contour>
    </TTGlyph>
    <TTGlyph name="j" xMin="-45" yMin="-177" xMax="203" yMax="700">
      <contour>
        <pt x="198" y="-13" on="1"/>
        <pt x="198" y="-61" on="0"/>
        <pt x="180" y="-124" on="0"/>
        <pt x="142" y="-161" on="0"/>
        <pt x="82" y="-177" on="0"/>
        <pt x="40" y="-177" on="1"/>
        <pt x="16" y="-177" on="0"/>
        <pt x="-25" y="-174" on="0"/>
        <pt x="-45" y="-172" on="1"/>
        <pt x="-45" y="-60" on="1"/>
        <pt x="-32" y="-62" on="0"/>
        <pt x="6" y="-63" on="0"/>
        <pt x="18" y="-63" on="1"/>
        <pt x="45" y="-63" on="0"/>
        <pt x="65" y="-44" on="0"/>
        <pt x="65" y="-18" on="1"/>
        <pt x="65" y="500" on="1"/>
        <pt x="198" y="500" on="1"/>
      </contour>
      <contour>
        <pt x="60" y="585" on="1"/>
        <pt x="60" y="700" on="1"/>
        <pt x="203" y="700" on="1"/>
        <pt x="203" y="585" on="1"/>
      </contour>
    </TTGlyph>
    <TTGlyph name="k" xMin="65" yMin="0" xMax="480" yMax="700">
      <contour>
        <pt x="327" y="0" on="1"/>
        <pt x="219" y="207" on="1"/>
        <pt x="198" y="180" on="1"/>
        <pt x="198" y="0" on="1"/>
        <pt x="65" y="0" on="1"/>
        <pt x="65" y="700" on="1"/>
        <pt x="198" y="700" on="1"/>
        <pt x="198" y="350" on="1"/>
        <pt x="318" y="500" on="1"/>
        <pt x="470" y="500" on="1"/>
        <pt x="301" y="300" on="1"/>
        <pt x="480" y="0" on="1"/>
      </contour>
    </TTGlyph>
    <TTGlyph name="l" xMin="65" yMin="-5" xMax="265" yMax="700">
      <contour>
        <pt x="265" y="3" on="1"/>
        <pt x="254" y="1" on="0"/>
        <pt x="203" y="-5" on="0"/>
        <pt x="174" y="-5" on="1"/>
        <pt x="112" y="-5" on="0"/>
        <pt x="65" y="70" on="0"/>
        <pt x="65" y="148" on="1"/>
        <pt x="65" y="700" on="1"/>
        <pt x="198" y="700" on="1"/>
        <pt x="198" y="153" on="1"/>
        <pt x="198" y="129" on="0"/>
        <pt x="210" y="110" on="0"/>
        <pt x="229" y="110" on="1"/>
        <pt x="240" y="110" on="0"/>
        <pt x="261" y="113" on="0"/>
        <pt x="265" y="114" on="1"/>
      </contour>
    </TTGlyph>
    <TTGlyph name="less" xMin="75" yMin="86" xMax="475" yMax="583">
      <contour>
        <pt x="75" y="251" on="1"/>
        <pt x="75" y="414" on="1"/>
        <pt x="475" y="583" on="1"/>
        <pt x="475" y="452" on="1"/>
        <pt x="176" y="336" on="1"/>
        <pt x="475" y="219" on="1"/>
        <pt x="475" y="86" on="1"/>
      </contour>
    </TTGlyph>
    <TTGlyph name="lessequal" xMin="75" yMin="0" xMax="475" yMax="583">
      <contour>
        <pt x="75" y="0" on="1"/>
        <pt x="75" y="115" on="1"/>
        <pt x="475" y="115" on="1"/>
        <pt x="475" y="0" on="1"/>
      </contour>
      <contour>
        <pt x="75" y="264" on="1"/>
        <pt x="75" y="427" on="1"/>
        <pt x="475" y="583" on="1"/>
        <pt x="475" y="452" on="1"/>
        <pt x="186" y="349" on="1"/>
        <pt x="475" y="269" on="1"/>
        <pt x="475" y="136" on="1"/>
      </contour>
    </TTGlyph>
    <TTGlyph name="logicaland" xMin="50" yMin="244" xMax="200" yMax="374">
      <contour>
        <pt x="50" y="244" on="1"/>
        <pt x="50" y="374" on="1"/>
        <pt x="200" y="374" on="1"/>
        <pt x="200" y="244" on="1"/>
      </contour>
    </TTGlyph>
    <TTGlyph name="logicalnot" xMin="60" yMin="106" xMax="515" yMax="360">
      <contour>
        <pt x="395" y="106" on="1"/>
        <pt x="395" y="245" on="1"/>
        <pt x="60" y="245" on="1"/>
        <pt x="60" y="360" on="1"/>
        <pt x="515" y="360" on="1"/>
        <pt x="515" y="106" on="1"/>
      </contour>
    </TTGlyph>
    <TTGlyph name="lozenge" xMin="25" yMin="0" xMax="469" yMax="700">
      <contour>
        <pt x="340" y="0" on="1"/>
        <pt x="152" y="0" on="1"/>
        <pt x="25" y="350" on="1"/>
        <pt x="154" y="700" on="1"/>
        <pt x="340" y="700" on="1"/>
        <pt x="469" y="350" on="1"/>
      </contour>
      <contour>
        <pt x="247" y="597" on="1"/>
        <pt x="167" y="350" on="1"/>
        <pt x="247" y="103" on="1"/>
        <pt x="327" y="350" on="1"/>
      </contour>
    </TTGlyph>
    <TTGlyph name="lslash" xMin="25" yMin="-5" xMax="275" yMax="700">
      <contour>
        <pt x="275" y="3" on="1"/>
        <pt x="264" y="1" on="0"/>
        <pt x="213" y="-5" on="0"/>
        <pt x="184" y="-5" on="1"/>
        <pt x="122" y="-5" on="0"/>
        <pt x="75" y="70" on="0"/>
        <pt x="75" y="148" on="1"/>
        <pt x="75" y="319" on="1"/>
        <pt x="25" y="290" on="1"/>
        <pt x="25" y="408" on="1"/>
        <pt x="75" y="438" on="1"/>
        <pt x="75" y="700" on="1"/>
        <pt x="208" y="700" on="1"/>
        <pt x="208" y="518" on="1"/>
        <pt x="270" y="555" on="1"/>
        <pt x="270" y="435" on="1"/>
        <pt x="208" y="398" on="1"/>
        <pt x="208" y="153" on="1"/>
        <pt x="208" y="129" on="0"/>
        <pt x="220" y="110" on="0"/>
        <pt x="239" y="110" on="1"/>
        <pt x="250" y="110" on="0"/>
        <pt x="271" y="113" on="0"/>
        <pt x="275" y="114" on="1"/>
      </contour>
    </TTGlyph>
    <TTGlyph name="m" xMin="65" yMin="0" xMax="690" yMax="509">
      <contour>
        <pt x="65" y="0" on="1"/>
        <pt x="65" y="500" on="1"/>
        <pt x="173" y="500" on="1"/>
        <pt x="181" y="463" on="1"/>
        <pt x="203" y="484" on="0"/>
        <pt x="259" y="509" on="0"/>
        <pt x="292" y="509" on="1"/>
        <pt x="340" y="509" on="0"/>
        <pt x="398" y="483" on="0"/>
        <pt x="415" y="458" on="1"/>
        <pt x="438" y="481" on="0"/>
        <pt x="500" y="509" on="0"/>
        <pt x="538" y="509" on="1"/>
        <pt x="588" y="509" on="0"/>
        <pt x="648" y="484" on="0"/>
        <pt x="680" y="434" on="0"/>
        <pt x="690" y="360" on="0"/>
        <pt x="690" y="310" on="1"/>
        <pt x="690" y="0" on="1"/>
        <pt x="557" y="0" on="1"/>
        <pt x="557" y="313" on="1"/>
        <pt x="557" y="363" on="0"/>
        <pt x="535" y="394" on="0"/>
        <pt x="511" y="394" on="1"/>
        <pt x="476" y="394" on="0"/>
        <pt x="446" y="350" on="0"/>
        <pt x="444" y="324" on="1"/>
        <pt x="444" y="0" on="1"/>
        <pt x="311" y="0" on="1"/>
        <pt x="311" y="313" on="1"/>
        <pt x="311" y="363" on="0"/>
        <pt x="289" y="394" on="0"/>
        <pt x="265" y="394" on="1"/>
        <pt x="229" y="394" on="0"/>
        <pt x="198" y="346" on="0"/>
        <pt x="198" y="319" on="1"/>
        <pt x="198" y="0" on="1"/>
      </contour>
    </TTGlyph>
    <TTGlyph name="macron" xMin="25" yMin="591" xMax="320" yMax="700">
      <contour>
        <pt x="25" y="591" on="1"/>
        <pt x="25" y="700" on="1"/>
        <pt x="320" y="700" on="1"/>
        <pt x="320" y="591" on="1"/>
      </contour>
    </TTGlyph>
    <TTGlyph name="minus" xMin="70" yMin="245" xMax="480" yMax="360">
      <contour>
        <pt x="70" y="245" on="1"/>
        <pt x="70" y="360" on="1"/>
        <pt x="480" y="360" on="1"/>
        <pt x="480" y="245" on="1"/>
      </contour>
    </TTGlyph>
    <TTGlyph name="mu" xMin="65" yMin="-170" xMax="458" yMax="500">
      <contour>
        <pt x="65" y="-170" on="1"/>
        <pt x="65" y="500" on="1"/>
        <pt x="198" y="500" on="1"/>
        <pt x="198" y="182" on="1"/>
        <pt x="198" y="157" on="0"/>
        <pt x="206" y="127" on="0"/>
        <pt x="220" y="111" on="0"/>
        <pt x="241" y="106" on="0"/>
        <pt x="254" y="106" on="1"/>
        <pt x="292" y="106" on="0"/>
        <pt x="325" y="154" on="0"/>
        <pt x="325" y="181" on="1"/>
        <pt x="325" y="500" on="1"/>
        <pt x="458" y="500" on="1"/>
        <pt x="458" y="0" on="1"/>
        <pt x="350" y="0" on="1"/>
        <pt x="341" y="39" on="1"/>
        <pt x="318" y="17" on="0"/>
        <pt x="260" y="-9" on="0"/>
        <pt x="222" y="-9" on="1"/>
        <pt x="215" y="-9" on="0"/>
        <pt x="203" y="-8" on="0"/>
        <pt x="198" y="-8" on="1"/>
        <pt x="198" y="-170" on="1"/>
      </contour>
    </TTGlyph>
    <TTGlyph name="multiply" xMin="83" yMin="98" xMax="487" yMax="502">
      <contour>
        <pt x="200" y="300" on="1"/>
        <pt x="83" y="417" on="1"/>
        <pt x="168" y="502" on="1"/>
        <pt x="285" y="385" on="1"/>
        <pt x="402" y="502" on="1"/>
        <pt x="487" y="417" on="1"/>
        <pt x="370" y="300" on="1"/>
        <pt x="487" y="183" on="1"/>
        <pt x="402" y="98" on="1"/>
        <pt x="285" y="215" on="1"/>
        <pt x="168" y="98" on="1"/>
        <pt x="83" y="183" on="1"/>
      </contour>
    </TTGlyph>
    <TTGlyph name="n" xMin="65" yMin="0" xMax="464" yMax="509">
      <contour>
        <pt x="65" y="0" on="1"/>
        <pt x="65" y="500" on="1"/>
        <pt x="173" y="500" on="1"/>
        <pt x="182" y="461" on="1"/>
        <pt x="205" y="483" on="0"/>
        <pt x="265" y="509" on="0"/>
        <pt x="302" y="509" on="1"/>
        <pt x="354" y="509" on="0"/>
        <pt x="417" y="485" on="0"/>
        <pt x="452" y="435" on="0"/>
        <pt x="464" y="361" on="0"/>
        <pt x="464" y="310" on="1"/>
        <pt x="464" y="0" on="1"/>
        <pt x="331" y="0" on="1"/>
        <pt x="331" y="313" on="1"/>
        <pt x="331" y="363" on="0"/>
        <pt x="302" y="394" on="0"/>
        <pt x="275" y="394" on="1"/>
        <pt x="237" y="394" on="0"/>
        <pt x="200" y="350" on="0"/>
        <pt x="198" y="324" on="1"/>
        <pt x="198" y="0" on="1"/>
      </contour>
    </TTGlyph>
    <TTGlyph name="nine" xMin="28" yMin="-9" xMax="424" yMax="709">
      <contour>
        <pt x="28" y="485" on="1"/>
        <pt x="28" y="551" on="0"/>
        <pt x="61" y="637" on="0"/>
        <pt x="116" y="688" on="0"/>
        <pt x="190" y="709" on="0"/>
        <pt x="231" y="709" on="1"/>
        <pt x="278" y="709" on="0"/>
        <pt x="350" y="681" on="0"/>
        <pt x="399" y="604" on="0"/>
        <pt x="424" y="467" on="0"/>
        <pt x="424" y="358" on="1"/>
        <pt x="424" y="240" on="0"/>
        <pt x="394" y="96" on="0"/>
        <pt x="335" y="17" on="0"/>
        <pt x="247" y="-9" on="0"/>
        <pt x="189" y="-9" on="1"/>
        <pt x="177" y="-9" on="0"/>
        <pt x="146" y="-7" on="0"/>
        <pt x="116" y="-3" on="0"/>
        <pt x="89" y="1" on="0"/>
        <pt x="82" y="3" on="1"/>
        <pt x="82" y="115" on="1"/>
        <pt x="102" y="110" on="0"/>
        <pt x="158" y="101" on="0"/>
        <pt x="193" y="101" on="1"/>
        <pt x="218" y="101" on="0"/>
        <pt x="253" y="113" on="0"/>
        <pt x="276" y="149" on="0"/>
        <pt x="287" y="214" on="0"/>
        <pt x="289" y="267" on="1"/>
        <pt x="269" y="255" on="0"/>
        <pt x="224" y="241" on="0"/>
        <pt x="198" y="241" on="1"/>
        <pt x="148" y="241" on="0"/>
        <pt x="82" y="275" on="0"/>
        <pt x="43" y="338" on="0"/>
        <pt x="28" y="428" on="0"/>
      </contour>
      <contour>
        <pt x="222" y="349" on="1"/>
        <pt x="242" y="349" on="0"/>
        <pt x="277" y="358" on="0"/>
        <pt x="291" y="366" on="1"/>
        <pt x="291" y="450" on="0"/>
        <pt x="282" y="544" on="0"/>
        <pt x="266" y="589" on="0"/>
        <pt x="241" y="599" on="0"/>
        <pt x="224" y="599" on="1"/>
        <pt x="208" y="599" on="0"/>
        <pt x="185" y="588" on="0"/>
        <pt x="169" y="559" on="0"/>
        <pt x="161" y="511" on="0"/>
        <pt x="161" y="474" on="1"/>
        <pt x="161" y="408" on="0"/>
        <pt x="189" y="349" on="0"/>
      </contour>
    </TTGlyph>
    <TTGlyph name="notequal" xMin="75" yMin="50" xMax="475" yMax="555">
      <contour>
        <pt x="251" y="145" on="1"/>
        <pt x="200" y="50" on="1"/>
        <pt x="75" y="50" on="1"/>
        <pt x="126" y="145" on="1"/>
        <pt x="75" y="145" on="1"/>
        <pt x="75" y="260" on="1"/>
        <pt x="189" y="260" on="1"/>
        <pt x="235" y="345" on="1"/>
        <pt x="75" y="345" on="1"/>
        <pt x="75" y="460" on="1"/>
        <pt x="298" y="460" on="1"/>
        <pt x="350" y="555" on="1"/>
        <pt x="475" y="555" on="1"/>
        <pt x="423" y="460" on="1"/>
        <pt x="475" y="460" on="1"/>
        <pt x="475" y="345" on="1"/>
        <pt x="360" y="345" on="1"/>
        <pt x="314" y="260" on="1"/>
        <pt x="475" y="260" on="1"/>
        <pt x="475" y="145" on="1"/>
      </contour>
    </TTGlyph>
    <TTGlyph name="ntilde" xMin="65" yMin="0" xMax="464" yMax="720">
      <contour>
        <pt x="65" y="0" on="1"/>
        <pt x="65" y="500" on="1"/>
        <pt x="173" y="500" on="1"/>
        <pt x="182" y="461" on="1"/>
        <pt x="205" y="483" on="0"/>
        <pt x="265" y="509" on="0"/>
        <pt x="302" y="509" on="1"/>
        <pt x="354" y="509" on="0"/>
        <pt x="417" y="485" on="0"/>
        <pt x="452" y="435" on="0"/>
        <pt x="464" y="361" on="0"/>
        <pt x="464" y="310" on="1"/>
        <pt x="464" y="0" on="1"/>
        <pt x="331" y="0" on="1"/>
        <pt x="331" y="313" on="1"/>
        <pt x="331" y="363" on="0"/>
        <pt x="302" y="394" on="0"/>
        <pt x="275" y="394" on="1"/>
        <pt x="237" y="394" on="0"/>
        <pt x="200" y="350" on="0"/>
        <pt x="198" y="324" on="1"/>
        <pt x="198" y="0" on="1"/>
      </contour>
      <contour>
        <pt x="117" y="687" on="1"/>
        <pt x="140" y="706" on="0"/>
        <pt x="193" y="720" on="0"/>
        <pt x="213" y="720" on="1"/>
        <pt x="231" y="720" on="0"/>
        <pt x="269" y="708" on="0"/>
        <pt x="307" y="693" on="0"/>
        <pt x="342" y="681" on="0"/>
        <pt x="357" y="681" on="1"/>
        <pt x="383" y="681" on="0"/>
        <pt x="427" y="700" on="0"/>
        <pt x="447" y="717" on="1"/>
        <pt x="447" y="613" on="1"/>
        <pt x="427" y="594" on="0"/>
        <pt x="377" y="580" on="0"/>
        <pt x="351" y="580" on="1"/>
        <pt x="332" y="580" on="0"/>
        <pt x="295" y="592" on="0"/>
        <pt x="258" y="607" on="0"/>
        <pt x="223" y="619" on="0"/>
        <pt x="207" y="619" on="1"/>
        <pt x="181" y="619" on="0"/>
        <pt x="133" y="597" on="0"/>
        <pt x="117" y="583" on="1"/>
      </contour>
    </TTGlyph>
    <TTGlyph name="numbersign" xMin="15" yMin="0" xMax="481" yMax="700">
      <contour>
        <pt x="284" y="425" on="1"/>
        <pt x="224" y="425" on="1"/>
        <pt x="212" y="285" on="1"/>
        <pt x="272" y="285" on="1"/>
      </contour>
      <contour>
        <pt x="389" y="170" on="1"/>
        <pt x="374" y="0" on="1"/>
        <pt x="247" y="0" on="1"/>
        <pt x="262" y="170" on="1"/>
        <pt x="202" y="170" on="1"/>
        <pt x="187" y="0" on="1"/>
        <pt x="60" y="0" on="1"/>
        <pt x="75" y="170" on="1"/>
        <pt x="15" y="170" on="1"/>
        <pt x="25" y="285" on="1"/>
        <pt x="85" y="285" on="1"/>
        <pt x="97" y="425" on="1"/>
        <pt x="37" y="425" on="1"/>
        <pt x="47" y="540" on="1"/>
        <pt x="107" y="540" on="1"/>
        <pt x="121" y="700" on="1"/>
        <pt x="248" y="700" on="1"/>
        <pt x="234" y="540" on="1"/>
        <pt x="294" y="540" on="1"/>
        <pt x="308" y="700" on="1"/>
        <pt x="435" y="700" on="1"/>
        <pt x="421" y="540" on="1"/>
        <pt x="481" y="540" on="1"/>
        <pt x="471" y="425" on="1"/>
        <pt x="411" y="425" on="1"/>
        <pt x="399" y="285" on="1"/>
        <pt x="459" y="285" on="1"/>
        <pt x="449" y="170" on="1"/>
      </contour>
    </TTGlyph>
    <TTGlyph name="o" xMin="50" yMin="-7" xMax="480" yMax="507">
      <contour>
        <pt x="480" y="260" on="1"/>
        <pt x="480" y="181" on="0"/>
        <pt x="452" y="78" on="0"/>
        <pt x="398" y="17" on="0"/>
        <pt x="317" y="-7" on="0"/>
        <pt x="264" y="-7" on="1"/>
        <pt x="211" y="-7" on="0"/>
        <pt x="131" y="17" on="0"/>
        <pt x="77" y="78" on="0"/>
        <pt x="50" y="181" on="0"/>
        <pt x="50" y="260" on="1"/>
        <pt x="50" y="388" on="0"/>
        <pt x="151" y="507" on="0"/>
        <pt x="264" y="507" on="1"/>
        <pt x="377" y="507" on="0"/>
        <pt x="480" y="388" on="0"/>
      </contour>
      <contour>
        <pt x="344" y="245" on="1"/>
        <pt x="344" y="289" on="0"/>
        <pt x="336" y="348" on="0"/>
        <pt x="317" y="384" on="0"/>
        <pt x="287" y="399" on="0"/>
        <pt x="264" y="399" on="1"/>
        <pt x="242" y="399" on="0"/>
        <pt x="212" y="384" on="0"/>
        <pt x="194" y="348" on="0"/>
        <pt x="186" y="289" on="0"/>
        <pt x="186" y="245" on="1"/>
        <pt x="186" y="203" on="0"/>
        <pt x="193" y="148" on="0"/>
        <pt x="211" y="115" on="0"/>
        <pt x="241" y="101" on="0"/>
        <pt x="264" y="101" on="1"/>
        <pt x="287" y="101" on="0"/>
        <pt x="318" y="115" on="0"/>
        <pt x="336" y="148" on="0"/>
        <pt x="344" y="203" on="0"/>
      </contour>
    </TTGlyph>
    <TTGlyph name="oacute" xMin="50" yMin="-7" xMax="480" yMax="715">
      <contour>
        <pt x="480" y="260" on="1"/>
        <pt x="480" y="181" on="0"/>
        <pt x="452" y="78" on="0"/>
        <pt x="398" y="17" on="0"/>
        <pt x="317" y="-7" on="0"/>
        <pt x="264" y="-7" on="1"/>
        <pt x="211" y="-7" on="0"/>
        <pt x="131" y="17" on="0"/>
        <pt x="77" y="78" on="0"/>
        <pt x="50" y="181" on="0"/>
        <pt x="50" y="260" on="1"/>
        <pt x="50" y="388" on="0"/>
        <pt x="151" y="507" on="0"/>
        <pt x="264" y="507" on="1"/>
        <pt x="377" y="507" on="0"/>
        <pt x="480" y="388" on="0"/>
      </contour>
      <contour>
        <pt x="344" y="245" on="1"/>
        <pt x="344" y="289" on="0"/>
        <pt x="336" y="348" on="0"/>
        <pt x="317" y="384" on="0"/>
        <pt x="287" y="399" on="0"/>
        <pt x="264" y="399" on="1"/>
        <pt x="242" y="399" on="0"/>
        <pt x="212" y="384" on="0"/>
        <pt x="194" y="348" on="0"/>
        <pt x="186" y="289" on="0"/>
        <pt x="186" y="245" on="1"/>
        <pt x="186" y="203" on="0"/>
        <pt x="193" y="148" on="0"/>
        <pt x="211" y="115" on="0"/>
        <pt x="241" y="101" on="0"/>
        <pt x="264" y="101" on="1"/>
        <pt x="287" y="101" on="0"/>
        <pt x="318" y="115" on="0"/>
        <pt x="336" y="148" on="0"/>
        <pt x="344" y="203" on="0"/>
      </contour>
      <contour>
        <pt x="170" y="580" on="1"/>
        <pt x="274" y="715" on="1"/>
        <pt x="433" y="715" on="1"/>
        <pt x="281" y="580" on="1"/>
      </contour>
    </TTGlyph>
    <TTGlyph name="ocircumflex" xMin="50" yMin="-7" xMax="480" yMax="715">
      <contour>
        <pt x="480" y="260" on="1"/>
        <pt x="480" y="181" on="0"/>
        <pt x="452" y="78" on="0"/>
        <pt x="398" y="17" on="0"/>
        <pt x="317" y="-7" on="0"/>
        <pt x="264" y="-7" on="1"/>
        <pt x="211" y="-7" on="0"/>
        <pt x="131" y="17" on="0"/>
        <pt x="77" y="78" on="0"/>
        <pt x="50" y="181" on="0"/>
        <pt x="50" y="260" on="1"/>
        <pt x="50" y="388" on="0"/>
        <pt x="151" y="507" on="0"/>
        <pt x="264" y="507" on="1"/>
        <pt x="377" y="507" on="0"/>
        <pt x="480" y="388" on="0"/>
      </contour>
      <contour>
        <pt x="344" y="245" on="1"/>
        <pt x="344" y="289" on="0"/>
        <pt x="336" y="348" on="0"/>
        <pt x="317" y="384" on="0"/>
        <pt x="287" y="399" on="0"/>
        <pt x="264" y="399" on="1"/>
        <pt x="242" y="399" on="0"/>
        <pt x="212" y="384" on="0"/>
        <pt x="194" y="348" on="0"/>
        <pt x="186" y="289" on="0"/>
        <pt x="186" y="245" on="1"/>
        <pt x="186" y="203" on="0"/>
        <pt x="193" y="148" on="0"/>
        <pt x="211" y="115" on="0"/>
        <pt x="241" y="101" on="0"/>
        <pt x="264" y="101" on="1"/>
        <pt x="287" y="101" on="0"/>
        <pt x="318" y="115" on="0"/>
        <pt x="336" y="148" on="0"/>
        <pt x="344" y="203" on="0"/>
      </contour>
      <contour>
        <pt x="315" y="580" on="1"/>
        <pt x="265" y="654" on="1"/>
        <pt x="215" y="580" on="1"/>
        <pt x="69" y="580" on="1"/>
        <pt x="191" y="715" on="1"/>
        <pt x="339" y="715" on="1"/>
        <pt x="462" y="580" on="1"/>
      </contour>
    </TTGlyph>
    <TTGlyph name="odieresis" xMin="50" yMin="-7" xMax="480" yMax="675">
      <contour>
        <pt x="480" y="260" on="1"/>
        <pt x="480" y="181" on="0"/>
        <pt x="452" y="78" on="0"/>
        <pt x="398" y="17" on="0"/>
        <pt x="317" y="-7" on="0"/>
        <pt x="264" y="-7" on="1"/>
        <pt x="211" y="-7" on="0"/>
        <pt x="131" y="17" on="0"/>
        <pt x="77" y="78" on="0"/>
        <pt x="50" y="181" on="0"/>
        <pt x="50" y="260" on="1"/>
        <pt x="50" y="388" on="0"/>
        <pt x="151" y="507" on="0"/>
        <pt x="264" y="507" on="1"/>
        <pt x="377" y="507" on="0"/>
        <pt x="480" y="388" on="0"/>
      </contour>
      <contour>
        <pt x="344" y="245" on="1"/>
        <pt x="344" y="289" on="0"/>
        <pt x="336" y="348" on="0"/>
        <pt x="317" y="384" on="0"/>
        <pt x="287" y="399" on="0"/>
        <pt x="264" y="399" on="1"/>
        <pt x="242" y="399" on="0"/>
        <pt x="212" y="384" on="0"/>
        <pt x="194" y="348" on="0"/>
        <pt x="186" y="289" on="0"/>
        <pt x="186" y="245" on="1"/>
        <pt x="186" y="203" on="0"/>
        <pt x="193" y="148" on="0"/>
        <pt x="211" y="115" on="0"/>
        <pt x="241" y="101" on="0"/>
        <pt x="264" y="101" on="1"/>
        <pt x="287" y="101" on="0"/>
        <pt x="318" y="115" on="0"/>
        <pt x="336" y="148" on="0"/>
        <pt x="344" y="203" on="0"/>
      </contour>
      <contour>
        <pt x="303" y="560" on="1"/>
        <pt x="303" y="675" on="1"/>
        <pt x="433" y="675" on="1"/>
        <pt x="433" y="560" on="1"/>
      </contour>
      <contour>
        <pt x="103" y="560" on="1"/>
        <pt x="103" y="675" on="1"/>
        <pt x="233" y="675" on="1"/>
        <pt x="233" y="560" on="1"/>
      </contour>
    </TTGlyph>
    <TTGlyph name="oe" xMin="50" yMin="-9" xMax="734" yMax="509">
      <contour>
        <pt x="475" y="201" on="1"/>
        <pt x="478" y="146" on="0"/>
        <pt x="513" y="105" on="0"/>
        <pt x="558" y="105" on="1"/>
        <pt x="600" y="105" on="0"/>
        <pt x="675" y="115" on="0"/>
        <pt x="697" y="120" on="1"/>
        <pt x="697" y="8" on="1"/>
        <pt x="685" y="5" on="0"/>
        <pt x="649" y="-2" on="0"/>
        <pt x="609" y="-6" on="0"/>
        <pt x="572" y="-9" on="0"/>
        <pt x="558" y="-9" on="1"/>
        <pt x="506" y="-9" on="0"/>
        <pt x="430" y="11" on="0"/>
        <pt x="404" y="36" on="1"/>
        <pt x="355" y="-7" on="0"/>
        <pt x="264" y="-7" on="1"/>
        <pt x="211" y="-7" on="0"/>
        <pt x="131" y="17" on="0"/>
        <pt x="77" y="78" on="0"/>
        <pt x="50" y="181" on="0"/>
        <pt x="50" y="260" on="1"/>
        <pt x="50" y="388" on="0"/>
        <pt x="151" y="507" on="0"/>
        <pt x="264" y="507" on="1"/>
        <pt x="313" y="507" on="0"/>
        <pt x="385" y="480" on="0"/>
        <pt x="410" y="457" on="1"/>
        <pt x="434" y="481" on="0"/>
        <pt x="501" y="509" on="0"/>
        <pt x="545" y="509" on="1"/>
        <pt x="602" y="509" on="0"/>
        <pt x="675" y="479" on="0"/>
        <pt x="717" y="422" on="0"/>
        <pt x="734" y="338" on="0"/>
        <pt x="734" y="285" on="1"/>
        <pt x="734" y="201" on="1"/>
      </contour>
      <contour>
        <pt x="344" y="245" on="1"/>
        <pt x="344" y="289" on="0"/>
        <pt x="336" y="348" on="0"/>
        <pt x="317" y="384" on="0"/>
        <pt x="287" y="399" on="0"/>
        <pt x="264" y="399" on="1"/>
        <pt x="242" y="399" on="0"/>
        <pt x="212" y="384" on="0"/>
        <pt x="194" y="348" on="0"/>
        <pt x="186" y="289" on="0"/>
        <pt x="186" y="245" on="1"/>
        <pt x="186" y="203" on="0"/>
        <pt x="193" y="148" on="0"/>
        <pt x="211" y="115" on="0"/>
        <pt x="241" y="101" on="0"/>
        <pt x="264" y="101" on="1"/>
        <pt x="287" y="101" on="0"/>
        <pt x="318" y="115" on="0"/>
        <pt x="336" y="148" on="0"/>
        <pt x="344" y="203" on="0"/>
      </contour>
      <contour>
        <pt x="543" y="399" on="1"/>
        <pt x="512" y="399" on="0"/>
        <pt x="481" y="355" on="0"/>
        <pt x="476" y="299" on="1"/>
        <pt x="606" y="299" on="1"/>
        <pt x="606" y="325" on="1"/>
        <pt x="606" y="362" on="0"/>
        <pt x="576" y="399" on="0"/>
      </contour>
    </TTGlyph>
    <TTGlyph name="ogonek" xMin="65" yMin="-198" xMax="274" yMax="60">
      <contour>
        <pt x="274" y="-188" on="1"/>
        <pt x="267" y="-190" on="0"/>
        <pt x="245" y="-193" on="0"/>
        <pt x="221" y="-196" on="0"/>
        <pt x="198" y="-198" on="0"/>
        <pt x="189" y="-198" on="1"/>
        <pt x="118" y="-198" on="0"/>
        <pt x="65" y="-132" on="0"/>
        <pt x="65" y="-70" on="1"/>
        <pt x="65" y="-23" on="0"/>
        <pt x="100" y="39" on="0"/>
        <pt x="119" y="60" on="1"/>
        <pt x="219" y="60" on="1"/>
        <pt x="199" y="30" on="0"/>
        <pt x="174" y="-35" on="0"/>
        <pt x="174" y="-54" on="1"/>
        <pt x="174" y="-74" on="0"/>
        <pt x="193" y="-100" on="0"/>
        <pt x="213" y="-100" on="1"/>
        <pt x="224" y="-100" on="0"/>
        <pt x="260" y="-95" on="0"/>
        <pt x="274" y="-93" on="1"/>
      </contour>
    </TTGlyph>
    <TTGlyph name="ograve" xMin="50" yMin="-7" xMax="480" yMax="715">
      <contour>
        <pt x="480" y="260" on="1"/>
        <pt x="480" y="181" on="0"/>
        <pt x="452" y="78" on="0"/>
        <pt x="398" y="17" on="0"/>
        <pt x="317" y="-7" on="0"/>
        <pt x="264" y="-7" on="1"/>
        <pt x="211" y="-7" on="0"/>
        <pt x="131" y="17" on="0"/>
        <pt x="77" y="78" on="0"/>
        <pt x="50" y="181" on="0"/>
        <pt x="50" y="260" on="1"/>
        <pt x="50" y="388" on="0"/>
        <pt x="151" y="507" on="0"/>
        <pt x="264" y="507" on="1"/>
        <pt x="377" y="507" on="0"/>
        <pt x="480" y="388" on="0"/>
      </contour>
      <contour>
        <pt x="344" y="245" on="1"/>
        <pt x="344" y="289" on="0"/>
        <pt x="336" y="348" on="0"/>
        <pt x="317" y="384" on="0"/>
        <pt x="287" y="399" on="0"/>
        <pt x="264" y="399" on="1"/>
        <pt x="242" y="399" on="0"/>
        <pt x="212" y="384" on="0"/>
        <pt x="194" y="348" on="0"/>
        <pt x="186" y="289" on="0"/>
        <pt x="186" y="245" on="1"/>
        <pt x="186" y="203" on="0"/>
        <pt x="193" y="148" on="0"/>
        <pt x="211" y="115" on="0"/>
        <pt x="241" y="101" on="0"/>
        <pt x="264" y="101" on="1"/>
        <pt x="287" y="101" on="0"/>
        <pt x="318" y="115" on="0"/>
        <pt x="336" y="148" on="0"/>
        <pt x="344" y="203" on="0"/>
      </contour>
      <contour>
        <pt x="248" y="580" on="1"/>
        <pt x="96" y="715" on="1"/>
        <pt x="255" y="715" on="1"/>
        <pt x="359" y="580" on="1"/>
      </contour>
    </TTGlyph>
</ttFont>
